<?xml version="1.0" encoding="UTF-8"?>
<svg id="Calque_2" data-name="Calque 2" xmlns="http://www.w3.org/2000/svg" viewBox="0 0 49.88 72.98">
  <defs>
    <style>
      .cls-1 {
        opacity: .56;
      }

      .cls-1, .cls-2, .cls-3, .cls-4, .cls-5, .cls-6, .cls-7, .cls-8 {
        stroke-width: 0px;
      }

      .cls-1, .cls-8 {
        fill: #efeeea;
      }

      .cls-2 {
        fill: #cecace;
      }

      .cls-2, .cls-3, .cls-4 {
        opacity: .6;
      }

      .cls-3 {
        fill: #848083;
      }

      .cls-4 {
        fill: #aaa4a8;
      }

      .cls-5 {
        fill: #c4c3c3;
      }

      .cls-6 {
        fill: #cfcdcd;
      }

      .cls-7 {
        fill: #656564;
      }
    </style>
  </defs>
  <g id="Calque_9" data-name="Calque 9">
    <g id="base">
      <path class="cls-8" d="m41.73,65.39H8.12c-2.5,0-4.53-2.03-4.53-4.53v-10.76c14.02,5.29,28.25,5.14,42.68,0v10.76c0,2.5-2.03,4.53-4.53,4.53Z"/>
      <path class="cls-2" d="m41.73,65.39h-16.57,0c5.52-2.2,8.86-6.01,9.24-10l.36-2.26c3.14-.47,7.2-1.75,11.51-3.04v10.76c0,2.5-2.03,4.53-4.53,4.53Z"/>
    </g>
    <g id="réacteur4">
      <path class="cls-7" d="m22.84,65.39h-7.44l-1.89,6.61c-.14.49.23.98.74.98h9.45c.5,0,.86-.47.75-.95l-1.6-6.64Z"/>
      <path class="cls-1" d="m19.69,65.39h-2.37c-.85,2.66-1.44,5.21-1.62,7.59h3.95c-.37-1.74-.19-4.62.04-7.59Z"/>
    </g>
    <g id="réacteur3">
      <path class="cls-7" d="m34.52,65.39h-7.44l-1.89,6.61c-.14.49.23.98.74.98h9.45c.5,0,.86-.47.75-.95l-1.6-6.64Z"/>
      <path class="cls-1" d="m30.66,65.39h-2.02c-1,2.35-1.74,4.88-2.22,7.59h3.46c.01-2.16.33-4.79.77-7.59Z"/>
    </g>
    <g id="Gréacteur1">
      <path class="cls-5" d="m48.06,63.37h-8.35l-2.12,8.3c-.16.62.26,1.23.83,1.23h10.6c.56,0,.97-.58.84-1.19l-1.8-8.34Z"/>
      <path class="cls-4" d="m48.06,63.37h-5.5c1.43,3.26,2.59,6.45,3.37,9.53h3.09c.56,0,.97-.58.84-1.19l-1.8-8.34Z"/>
    </g>
    <g id="Gréacteur2">
      <path class="cls-5" d="m10.5,63.45H2.15L.03,71.75c-.16.62.26,1.23.83,1.23h10.6c.56,0,.97-.58.84-1.19l-1.8-8.34Z"/>
      <path class="cls-4" d="m10.5,63.45h-2.59l1.65,7.56c.11.49-.26.95-.76.94-2.46-.01-8.8-.03-8.8.03-.02.53.36,1,.86,1h10.6c.56,0,.97-.58.84-1.19l-1.8-8.34Z"/>
    </g>
    <g id="boost2">
      <path class="cls-6" d="m5.69.24l6.13,15.85c.28.71.42,1.47.42,2.23v44.02c0,1.81-1.35,3.33-3.14,3.55h0c-1.95.24-3.92.24-5.86,0h0c-1.79-.22-3.14-1.74-3.14-3.55V18c0-.61.09-1.21.27-1.79L5.2.26c.07-.24.4-.25.49-.02Z"/>
      <path class="cls-3" d="m5.69.24L1.46,16.92c-.06.23-.09.47-.09.71l-.09,47.36c-.73-.66-1.18-1.61-1.18-2.66V18c0-.61.09-1.21.27-1.79L5.2.26c.07-.24.4-.25.49-.02Z"/>
    </g>
    <g id="boost1">
      <path class="cls-6" d="m44.2.17l-6.13,15.85c-.28.71-.42,1.47-.42,2.23v44.02c0,1.81,1.35,3.33,3.14,3.55h0c1.95.24,3.92.24,5.86,0h0c1.79-.22,3.14-1.74,3.14-3.55V17.92c0-.61-.09-1.21-.27-1.79L44.69.18c-.07-.24-.4-.25-.49-.02Z"/>
      <path class="cls-3" d="m44.2.17l-2.12,5.48,2.67,10.67c.18.73.28,1.49.28,2.24l.16,47.39c.49-.03.98-.08,1.46-.14h0c1.79-.22,3.14-1.74,3.14-3.55V17.92c0-.61-.09-1.21-.27-1.79L44.69.18c-.07-.24-.4-.25-.49-.02Z"/>
    </g>
  </g>
</svg>