<svg width="461" height="115" viewBox="0 0 461 115" fill="none" xmlns="http://www.w3.org/2000/svg">
<path d="M288.77 114.6C276.25 114.6 263.73 114.49 251.22 114.67C247.33 114.72 245.99 113.37 246.05 109.49C246.23 97.44 246.24 85.39 246.05 73.34C245.99 69.17 247.88 67.68 251.64 67.67C276.67 67.67 301.71 67.67 326.74 67.67C329.53 67.67 331.44 68.34 331.64 71.83C332.4 84.91 330.84 98 332.1 111.08C332.4 114.24 329.87 114.63 327.25 114.62C314.42 114.56 301.59 114.59 288.76 114.59L288.77 114.6ZM254.77 107.59C260.85 107.68 266.93 107.89 273 107.84C286.88 107.73 300.77 108.47 314.65 107.65C316.67 107.7 318.72 107.59 320.72 107.83C324.05 108.24 324.98 106.9 324.9 103.65C324.69 95.39 324.75 87.11 324.88 78.85C324.92 76.2 324.44 74.96 321.33 74.98C299.8 75.11 278.28 75.09 256.75 74.98C253.98 74.97 253.35 75.94 253.39 78.49C253.51 87.22 253.41 95.96 253.49 104.7C253.49 105.72 252.73 107.36 254.78 107.58L254.77 107.59Z" fill="#F4F0E3"/>
<path d="M254.78 107.59C252.74 107.37 253.5 105.73 253.49 104.71C253.41 95.97 253.52 87.24 253.39 78.5C253.35 75.96 253.99 74.98 256.75 74.99C278.28 75.1 299.8 75.11 321.33 74.99C324.43 74.97 324.91 76.21 324.88 78.86C324.76 87.13 324.7 95.4 324.9 103.66C324.98 106.91 324.05 108.25 320.72 107.84C318.72 107.59 316.68 107.71 314.65 107.66C314.63 98.44 314.51 89.23 314.65 80.01C314.7 76.98 313.78 75.86 310.67 75.95C303.96 76.14 297.23 76.17 290.53 75.94C287.05 75.82 286.34 77.27 286.42 80.37C286.59 87.55 286.23 94.75 286.56 101.92C286.75 106.05 285.52 107.22 281.36 107.19C272.51 107.13 263.62 106.38 254.78 107.6V107.59Z" fill="#980E29"/>
<path d="M254.78 107.59C263.62 106.37 272.5 107.13 281.36 107.18C285.53 107.21 286.76 106.04 286.56 101.91C286.23 94.7401 286.59 87.5401 286.42 80.3601C286.35 77.2601 287.06 75.8101 290.53 75.9301C297.24 76.1701 303.96 76.1301 310.67 75.9401C313.78 75.8501 314.7 76.9701 314.65 80.0001C314.51 89.2101 314.63 98.4301 314.65 107.65C300.77 108.46 286.89 107.73 273 107.84C266.92 107.89 260.84 107.68 254.77 107.59H254.78Z" fill="#DC183C"/>
<path d="M289.24 46.97C276.57 46.97 263.89 46.86 251.22 47.03C247.33 47.08 245.99 45.72 246.04 41.85C246.21 29.8 246.21 17.75 246.04 5.70997C246 1.33997 247.85 -0.0200274 251.99 -2.73656e-05C276.87 0.0999726 301.74 0.0899726 326.62 -2.73656e-05C330.53 -0.0100274 332.38 1.28997 332.33 5.41997C332.2 17.47 332.21 29.52 332.33 41.57C332.37 45.55 330.93 47.11 326.79 47.04C314.28 46.84 301.76 46.97 289.24 46.96V46.97ZM253.77 39.34C257.01 41.06 260.43 39.86 263.76 39.92C272.92 40.36 282.08 40.32 291.24 39.94C301.83 39.96 312.42 39.99 323 40.01C325.43 40.48 324.97 38.64 324.97 37.38C325.01 28.06 324.99 18.74 324.98 9.40997C324.98 8.63997 324.98 7.83997 323.99 7.57997C313.33 7.53997 302.67 7.49997 292.01 7.46997C282.32 6.95997 272.62 6.84997 262.93 7.52997C260.77 7.48997 258.59 7.53997 256.44 7.37997C254.35 7.21997 253.37 7.74997 253.42 10.13C253.63 19.86 253.66 29.6 253.77 39.34Z" fill="#F4F0E3"/>
<path d="M292.02 7.45995C302.68 7.49995 313.34 7.53995 324 7.56995C324 16.91 324.02 26.25 324.04 35.59C324.04 37.15 324.2 38.72 323.01 39.99C312.42 39.97 301.83 39.9399 291.24 39.9199C291.21 32.3099 291.09 24.69 291.18 17.08C291.22 13.87 290.43 10.54 292.02 7.44995V7.45995Z" fill="#24264A"/>
<path d="M292.02 7.45991C290.43 10.5499 291.22 13.8799 291.18 17.0899C291.09 24.6999 291.21 32.3099 291.24 39.9299C282.08 40.3099 272.92 40.3499 263.76 39.9099C263.79 30.5599 263.82 21.2099 263.83 11.8599C263.83 10.6499 264.1 9.31991 262.89 8.42991C262.91 8.12991 262.93 7.82991 262.94 7.52991C272.63 6.84991 282.33 6.95991 292.02 7.46991V7.45991Z" fill="#4E5382"/>
<path d="M262.9 8.41996C264.11 9.31996 263.84 10.64 263.84 11.85C263.84 21.2 263.8 30.55 263.77 39.9C260.43 39.84 257.02 41.05 253.77 39.32C255.38 31.83 254.19 24.25 254.46 16.71C254.8 7.35996 252.87 8.41996 262.89 8.40996L262.9 8.41996Z" fill="#24264A"/>
<path d="M262.9 8.41999C252.88 8.42999 254.81 7.36999 254.47 16.72C254.19 24.26 255.39 31.84 253.78 39.33C253.68 29.59 253.64 19.85 253.43 10.12C253.38 7.73999 254.36 7.20999 256.45 7.36999C258.61 7.52999 260.78 7.47999 262.94 7.51999C262.94 7.81999 262.92 8.11999 262.89 8.41999H262.9Z" fill="#171E2E"/>
<path d="M323.01 40C324.2 38.73 324.05 37.15 324.04 35.6C324.02 26.26 324.01 16.92 324 7.57996C324.98 7.83996 324.99 8.64996 324.99 9.40996C324.99 18.73 325.02 28.05 324.98 37.38C324.98 38.64 325.44 40.47 323.01 40.01V40Z" fill="#4E5382"/>
<path d="M237.12 51.1799C237.03 50.7399 237.2 50.5899 237.63 50.7199C237.51 50.9199 237.34 51.0799 237.12 51.1799Z" fill="#171E2E"/>
<path d="M169.68 114.6C157.16 114.6 144.64 114.49 132.13 114.67C128.24 114.72 126.9 113.37 126.96 109.49C127.14 97.44 127.15 85.39 126.96 73.34C126.9 69.17 128.79 67.68 132.55 67.67C157.58 67.67 182.62 67.67 207.65 67.67C210.44 67.67 212.35 68.34 212.55 71.83C213.31 84.91 211.75 98 213.01 111.08C213.31 114.24 210.78 114.63 208.16 114.62C195.33 114.56 182.5 114.59 169.67 114.59L169.68 114.6ZM135.68 107.59C141.76 107.68 147.84 107.89 153.91 107.84C167.79 107.73 181.68 108.47 195.56 107.65C197.58 107.7 199.63 107.59 201.63 107.83C204.96 108.24 205.89 106.9 205.81 103.65C205.6 95.39 205.66 87.11 205.79 78.85C205.83 76.2 205.35 74.96 202.24 74.98C180.71 75.11 159.19 75.09 137.66 74.98C134.89 74.97 134.26 75.94 134.3 78.49C134.42 87.22 134.32 95.96 134.4 104.7C134.4 105.72 133.64 107.36 135.69 107.58L135.68 107.59Z" fill="#F4F0E3"/>
<path d="M135.68 107.59C133.64 107.37 134.4 105.73 134.39 104.71C134.31 95.97 134.42 87.24 134.29 78.5C134.25 75.96 134.89 74.98 137.65 74.99C159.18 75.1 180.7 75.11 202.23 74.99C205.33 74.97 205.81 76.21 205.78 78.86C205.66 87.13 205.6 95.4 205.8 103.66C205.88 106.91 204.95 108.25 201.62 107.84C199.62 107.59 197.58 107.71 195.55 107.66C195.53 98.44 195.41 89.23 195.55 80.01C195.6 76.98 194.68 75.86 191.57 75.95C184.86 76.14 178.13 76.17 171.43 75.94C167.95 75.82 167.24 77.27 167.32 80.37C167.49 87.55 167.13 94.75 167.46 101.92C167.65 106.05 166.42 107.22 162.26 107.19C153.41 107.13 144.52 106.38 135.68 107.6V107.59Z" fill="#980E29"/>
<path d="M135.68 107.59C144.52 106.37 153.4 107.13 162.26 107.18C166.43 107.21 167.66 106.04 167.46 101.91C167.13 94.7401 167.49 87.5401 167.32 80.3601C167.25 77.2601 167.96 75.8101 171.43 75.9301C178.14 76.1701 184.86 76.1301 191.57 75.9401C194.68 75.8501 195.6 76.9701 195.55 80.0001C195.41 89.2101 195.53 98.4301 195.55 107.65C181.67 108.46 167.79 107.73 153.9 107.84C147.82 107.89 141.74 107.68 135.67 107.59H135.68Z" fill="#DC183C"/>
<path d="M170.15 46.97C157.48 46.97 144.8 46.86 132.13 47.03C128.24 47.08 126.9 45.72 126.95 41.85C127.12 29.8 127.12 17.75 126.95 5.70997C126.9 1.33997 128.76 -0.0200274 132.89 -2.73656e-05C157.77 0.0999726 182.64 0.0899726 207.52 -2.73656e-05C211.43 -0.0100274 213.28 1.28997 213.23 5.41997C213.1 17.47 213.11 29.52 213.23 41.57C213.27 45.55 211.83 47.11 207.69 47.04C195.18 46.84 182.66 46.97 170.14 46.96L170.15 46.97ZM134.68 39.34C137.92 41.06 141.34 39.86 144.67 39.92C153.83 40.36 162.99 40.32 172.15 39.94C182.74 39.96 193.33 39.99 203.91 40.01C206.34 40.48 205.88 38.64 205.88 37.38C205.92 28.06 205.9 18.74 205.89 9.40997C205.89 8.63997 205.89 7.83997 204.9 7.57997C194.24 7.53997 183.58 7.49997 172.92 7.46997C163.23 6.95997 153.53 6.84997 143.84 7.52997C141.68 7.48997 139.5 7.53997 137.35 7.37997C135.26 7.21997 134.28 7.74997 134.33 10.13C134.54 19.86 134.57 29.6 134.68 39.34Z" fill="#F4F0E3"/>
<path d="M172.93 7.45995C183.59 7.49995 194.25 7.53995 204.91 7.56995C204.91 16.91 204.93 26.25 204.95 35.59C204.95 37.15 205.11 38.72 203.92 39.99C193.33 39.97 182.74 39.9399 172.15 39.9199C172.12 32.3099 172 24.69 172.09 17.08C172.13 13.87 171.34 10.54 172.93 7.44995V7.45995Z" fill="#24264A"/>
<path d="M172.93 7.45991C171.34 10.5499 172.13 13.8799 172.09 17.0899C172 24.6999 172.12 32.3099 172.15 39.9299C162.99 40.3099 153.83 40.3499 144.67 39.9099C144.7 30.5599 144.73 21.2099 144.74 11.8599C144.74 10.6499 145.01 9.31991 143.8 8.42991C143.82 8.12991 143.84 7.82991 143.85 7.52991C153.54 6.84991 163.24 6.95991 172.93 7.46991V7.45991Z" fill="#4E5382"/>
<path d="M143.81 8.41996C145.02 9.31996 144.75 10.64 144.75 11.85C144.75 21.2 144.71 30.55 144.68 39.9C141.34 39.84 137.93 41.05 134.68 39.32C136.29 31.83 135.1 24.25 135.37 16.71C135.71 7.35996 133.78 8.41996 143.8 8.40996L143.81 8.41996Z" fill="#24264A"/>
<path d="M143.81 8.41999C133.79 8.42999 135.72 7.36999 135.38 16.72C135.1 24.26 136.3 31.84 134.69 39.33C134.59 29.59 134.55 19.85 134.34 10.12C134.29 7.73999 135.27 7.20999 137.36 7.36999C139.52 7.52999 141.69 7.47999 143.85 7.51999C143.85 7.81999 143.83 8.11999 143.8 8.41999H143.81Z" fill="#171E2E"/>
<path d="M203.92 40C205.11 38.73 204.96 37.15 204.95 35.6C204.93 26.26 204.92 16.92 204.91 7.57996C205.89 7.83996 205.9 8.64996 205.9 9.40996C205.9 18.73 205.93 28.05 205.89 37.38C205.89 38.64 206.35 40.47 203.92 40.01V40Z" fill="#4E5382"/>
<path d="M118.02 51.1799C117.93 50.7399 118.1 50.5899 118.53 50.7199C118.41 50.9199 118.24 51.0799 118.02 51.1799Z" fill="#171E2E"/>
<path d="M416.82 114.6C404.3 114.6 391.78 114.49 379.27 114.67C375.38 114.72 374.04 113.37 374.1 109.49C374.28 97.44 374.29 85.39 374.1 73.34C374.04 69.17 375.93 67.68 379.69 67.67C404.72 67.67 429.76 67.67 454.79 67.67C457.58 67.67 459.49 68.34 459.69 71.83C460.45 84.91 458.89 98 460.15 111.08C460.45 114.24 457.92 114.63 455.3 114.62C442.47 114.56 429.64 114.59 416.81 114.59L416.82 114.6ZM382.82 107.59C388.9 107.68 394.98 107.89 401.05 107.84C414.93 107.73 428.82 108.47 442.7 107.65C444.72 107.7 446.77 107.59 448.77 107.83C452.1 108.24 453.03 106.9 452.95 103.65C452.74 95.39 452.8 87.11 452.93 78.85C452.97 76.2 452.49 74.96 449.38 74.98C427.85 75.11 406.33 75.09 384.8 74.98C382.03 74.97 381.4 75.94 381.44 78.49C381.56 87.22 381.46 95.96 381.54 104.7C381.54 105.72 380.78 107.36 382.83 107.58L382.82 107.59Z" fill="#F4F0E3"/>
<path d="M382.82 107.59C380.78 107.37 381.54 105.73 381.53 104.71C381.45 95.97 381.56 87.24 381.43 78.5C381.39 75.96 382.03 74.98 384.79 74.99C406.32 75.1 427.84 75.11 449.37 74.99C452.47 74.97 452.95 76.21 452.92 78.86C452.8 87.13 452.74 95.4 452.94 103.66C453.02 106.91 452.09 108.25 448.76 107.84C446.76 107.59 444.72 107.71 442.69 107.66C442.67 98.44 442.55 89.23 442.69 80.01C442.74 76.98 441.82 75.86 438.71 75.95C432 76.14 425.27 76.17 418.57 75.94C415.09 75.82 414.38 77.27 414.46 80.37C414.63 87.55 414.27 94.75 414.6 101.92C414.79 106.05 413.56 107.22 409.4 107.19C400.55 107.13 391.66 106.38 382.82 107.6V107.59Z" fill="#980E29"/>
<path d="M382.82 107.59C391.66 106.37 400.54 107.13 409.4 107.18C413.57 107.21 414.8 106.04 414.6 101.91C414.27 94.7401 414.63 87.5401 414.46 80.3601C414.39 77.2601 415.1 75.8101 418.57 75.9301C425.28 76.1701 432 76.1301 438.71 75.9401C441.82 75.8501 442.74 76.9701 442.69 80.0001C442.55 89.2101 442.67 98.4301 442.69 107.65C428.81 108.46 414.93 107.73 401.04 107.84C394.96 107.89 388.88 107.68 382.81 107.59H382.82Z" fill="#DC183C"/>
<path d="M417.29 46.97C404.62 46.97 391.94 46.86 379.27 47.03C375.38 47.08 374.04 45.72 374.09 41.85C374.26 29.8 374.26 17.75 374.09 5.70998C374.03 1.34998 375.89 -0.0100176 380.02 0.0099824C404.9 0.109982 429.77 0.0999824 454.65 0.0099824C458.56 -1.7596e-05 460.41 1.29998 460.36 5.42998C460.23 17.48 460.24 29.53 460.36 41.58C460.4 45.56 458.96 47.12 454.82 47.05C442.31 46.85 429.79 46.98 417.27 46.97H417.29ZM381.82 39.34C385.06 41.06 388.48 39.86 391.81 39.92C400.97 40.36 410.13 40.32 419.29 39.94C429.88 39.96 440.47 39.99 451.05 40.01C453.48 40.48 453.02 38.64 453.02 37.38C453.06 28.06 453.04 18.74 453.03 9.40998C453.03 8.63998 453.03 7.83998 452.04 7.57998C441.38 7.53998 430.72 7.49998 420.06 7.46998C410.37 6.95998 400.67 6.84998 390.98 7.52998C388.82 7.48998 386.64 7.53998 384.49 7.37998C382.4 7.21998 381.42 7.74998 381.47 10.13C381.68 19.86 381.71 29.6 381.82 39.34Z" fill="#F4F0E3"/>
<path d="M420.07 7.45995C430.73 7.49995 441.39 7.53995 452.05 7.56995C452.05 16.91 452.07 26.25 452.09 35.59C452.09 37.15 452.25 38.72 451.06 39.99C440.47 39.97 429.88 39.9399 419.29 39.9199C419.26 32.3099 419.14 24.69 419.23 17.08C419.27 13.87 418.48 10.54 420.07 7.44995V7.45995Z" fill="#24264A"/>
<path d="M420.07 7.46004C418.48 10.55 419.27 13.88 419.23 17.09C419.14 24.7 419.26 32.31 419.29 39.93C410.13 40.31 400.97 40.35 391.81 39.91C391.84 30.56 391.87 21.21 391.88 11.86C391.88 10.65 392.15 9.32004 390.94 8.43004C390.96 8.13004 390.98 7.83004 390.99 7.53004C400.68 6.85004 410.38 6.96004 420.07 7.47004V7.46004Z" fill="#4E5382"/>
<path d="M390.94 8.41996C392.15 9.31996 391.88 10.64 391.88 11.85C391.88 21.2 391.84 30.55 391.81 39.9C388.47 39.84 385.06 41.05 381.81 39.32C383.42 31.83 382.23 24.25 382.5 16.71C382.84 7.35996 380.91 8.41996 390.93 8.40996L390.94 8.41996Z" fill="#24264A"/>
<path d="M390.94 8.41999C380.92 8.42999 382.85 7.36999 382.51 16.72C382.23 24.26 383.43 31.84 381.82 39.33C381.72 29.59 381.68 19.85 381.47 10.12C381.42 7.73999 382.4 7.20999 384.49 7.36999C386.65 7.52999 388.82 7.47999 390.98 7.51999C390.98 7.81999 390.96 8.11999 390.93 8.41999H390.94Z" fill="#171E2E"/>
<path d="M451.06 40C452.25 38.73 452.1 37.15 452.09 35.6C452.07 26.26 452.06 16.92 452.05 7.57996C453.03 7.83996 453.04 8.64996 453.04 9.40996C453.04 18.73 453.07 28.05 453.03 37.38C453.03 38.64 453.49 40.47 451.06 40.01V40Z" fill="#4E5382"/>
<path d="M365.16 51.1799C365.07 50.7399 365.24 50.5899 365.67 50.7199C365.55 50.9199 365.38 51.0799 365.16 51.1799Z" fill="#171E2E"/>
<path d="M51.6734 114.6C39.1534 114.6 26.6334 114.49 14.1234 114.67C10.2334 114.72 8.89339 113.37 8.95339 109.49C9.13339 97.44 9.14339 85.39 8.95339 73.34C8.89339 69.17 10.7834 67.68 14.5434 67.67C39.5734 67.67 64.6134 67.67 89.6434 67.67C92.4334 67.67 94.3434 68.34 94.5434 71.83C95.3034 84.91 93.7434 98 95.0034 111.08C95.3034 114.24 92.7734 114.63 90.1534 114.62C77.3234 114.56 64.4934 114.59 51.6634 114.59L51.6734 114.6ZM17.6734 107.59C23.7534 107.68 29.8334 107.89 35.9034 107.84C49.7834 107.73 63.6734 108.47 77.5534 107.65C79.5734 107.7 81.6234 107.59 83.6234 107.83C86.9534 108.24 87.8834 106.9 87.8034 103.65C87.5934 95.39 87.6534 87.11 87.7834 78.85C87.8234 76.2 87.3434 74.96 84.2334 74.98C62.7034 75.11 41.1834 75.09 19.6534 74.98C16.8834 74.97 16.2534 75.94 16.2934 78.49C16.4134 87.22 16.3134 95.96 16.3934 104.7C16.3934 105.72 15.6334 107.36 17.6834 107.58L17.6734 107.59Z" fill="#F4F0E3"/>
<path d="M17.6834 107.59C15.6434 107.37 16.4034 105.73 16.3934 104.71C16.3134 95.97 16.4234 87.24 16.2934 78.5C16.2534 75.96 16.8934 74.98 19.6534 74.99C41.1834 75.1 62.7034 75.11 84.2334 74.99C87.3334 74.97 87.8134 76.21 87.7834 78.86C87.6634 87.13 87.6034 95.4 87.8034 103.66C87.8834 106.91 86.9534 108.25 83.6234 107.84C81.6234 107.59 79.5834 107.71 77.5534 107.66C77.5334 98.44 77.4134 89.23 77.5534 80.01C77.6034 76.98 76.6834 75.86 73.5734 75.95C66.8634 76.14 60.1334 76.17 53.4334 75.94C49.9534 75.82 49.2434 77.27 49.3234 80.37C49.4934 87.55 49.1334 94.75 49.4634 101.92C49.6534 106.05 48.4234 107.22 44.2634 107.19C35.4134 107.13 26.5234 106.38 17.6834 107.6V107.59Z" fill="#980E29"/>
<path d="M17.6834 107.59C26.5234 106.37 35.4034 107.13 44.2634 107.18C48.4334 107.21 49.6634 106.04 49.4634 101.91C49.1334 94.7401 49.4934 87.5401 49.3234 80.3601C49.2534 77.2601 49.9634 75.8101 53.4334 75.9301C60.1434 76.1701 66.8634 76.1301 73.5734 75.9401C76.6834 75.8501 77.6034 76.9701 77.5534 80.0001C77.4134 89.2101 77.5334 98.4301 77.5534 107.65C63.6734 108.46 49.7934 107.73 35.9034 107.84C29.8234 107.89 23.7434 107.68 17.6734 107.59H17.6834Z" fill="#DC183C"/>
<path d="M52.1434 46.97C39.4734 46.97 26.7934 46.86 14.1234 47.03C10.2334 47.08 8.89336 45.72 8.94336 41.85C9.11336 29.8 9.11336 17.75 8.94336 5.70997C8.90336 1.33997 10.7534 -0.0200274 14.8934 -2.73656e-05C39.7734 0.0999726 64.6434 0.0899726 89.5234 -2.73656e-05C93.4334 -0.0100274 95.2834 1.28997 95.2334 5.41997C95.1034 17.47 95.1134 29.52 95.2334 41.57C95.2734 45.55 93.8334 47.11 89.6934 47.04C77.1834 46.84 64.6634 46.97 52.1434 46.96V46.97ZM16.6734 39.34C19.9134 41.06 23.3334 39.86 26.6634 39.92C35.8234 40.36 44.9834 40.32 54.1434 39.94C64.7334 39.96 75.3234 39.99 85.9034 40.01C88.3334 40.48 87.8734 38.64 87.8734 37.38C87.9134 28.06 87.8934 18.74 87.8834 9.40997C87.8834 8.63997 87.8834 7.83997 86.8934 7.57997C76.2334 7.53997 65.5734 7.49997 54.9134 7.46997C45.2234 6.95997 35.5234 6.84997 25.8334 7.52997C23.6734 7.48997 21.4934 7.53997 19.3434 7.37997C17.2534 7.21997 16.2734 7.74997 16.3234 10.13C16.5334 19.86 16.5634 29.6 16.6734 39.34Z" fill="#F4F0E3"/>
<path d="M54.9234 7.45995C65.5834 7.49995 76.2434 7.53995 86.9034 7.56995C86.9034 16.91 86.9234 26.25 86.9434 35.59C86.9434 37.15 87.1034 38.72 85.9134 39.99C75.3234 39.97 64.7334 39.9399 54.1434 39.9199C54.1134 32.3099 53.9934 24.69 54.0834 17.08C54.1234 13.87 53.3334 10.54 54.9234 7.44995V7.45995Z" fill="#24264A"/>
<path d="M54.9233 7.45991C53.3333 10.5499 54.1233 13.8799 54.0833 17.0899C53.9933 24.6999 54.1133 32.3099 54.1433 39.9299C44.9833 40.3099 35.8233 40.3499 26.6633 39.9099C26.6933 30.5599 26.7233 21.2099 26.7333 11.8599C26.7333 10.6499 27.0033 9.31991 25.7933 8.42991C25.8133 8.12991 25.8333 7.82991 25.8433 7.52991C35.5333 6.84991 45.2333 6.95991 54.9233 7.46991V7.45991Z" fill="#4E5382"/>
<path d="M25.8033 8.41996C27.0133 9.31996 26.7433 10.64 26.7433 11.85C26.7433 21.2 26.7033 30.55 26.6733 39.9C23.3333 39.84 19.9233 41.05 16.6733 39.32C18.2833 31.83 17.0933 24.25 17.3633 16.71C17.7033 7.35996 15.7733 8.41996 25.7933 8.40996L25.8033 8.41996Z" fill="#24264A"/>
<path d="M25.8034 8.41999C15.7834 8.42999 17.7134 7.36999 17.3734 16.72C17.0934 24.26 18.2934 31.84 16.6834 39.33C16.5834 29.59 16.5434 19.85 16.3334 10.12C16.2834 7.73999 17.2634 7.20999 19.3534 7.36999C21.5134 7.52999 23.6834 7.47999 25.8434 7.51999C25.8434 7.81999 25.8234 8.11999 25.7934 8.41999H25.8034Z" fill="#171E2E"/>
<path d="M85.9133 40C87.1033 38.73 86.9533 37.15 86.9433 35.6C86.9233 26.26 86.9133 16.92 86.9033 7.57996C87.8833 7.83996 87.8933 8.64996 87.8933 9.40996C87.8933 18.73 87.9233 28.05 87.8833 37.38C87.8833 38.64 88.3433 40.47 85.9133 40.01V40Z" fill="#4E5382"/>
<path d="M0.0233658 51.1799C-0.0666342 50.7399 0.10336 50.5899 0.53336 50.7199C0.41336 50.9199 0.243366 51.0799 0.0233658 51.1799Z" fill="#171E2E"/>
</svg>
