<svg width="809" height="230" viewBox="0 0 809 230" fill="none" xmlns="http://www.w3.org/2000/svg">
<g clip-path="url(#clip0_58_875)">
<path d="M137.39 175.43C137.39 162.91 137.5 150.39 137.32 137.88C137.27 133.99 138.62 132.65 142.5 132.71C154.55 132.89 166.6 132.9 178.65 132.71C182.82 132.65 184.31 134.54 184.32 138.3C184.32 163.33 184.32 188.37 184.32 213.4C184.32 216.19 183.65 218.1 180.16 218.3C167.08 219.06 153.99 217.5 140.91 218.76C137.75 219.06 137.36 216.53 137.37 213.91C137.43 201.08 137.4 188.25 137.4 175.42L137.39 175.43ZM144.4 141.43C144.31 147.51 144.1 153.59 144.15 159.66C144.26 173.54 143.52 187.43 144.34 201.31C144.29 203.33 144.4 205.38 144.16 207.38C143.75 210.71 145.09 211.64 148.34 211.56C156.6 211.35 164.88 211.41 173.14 211.54C175.79 211.58 177.03 211.1 177.01 207.99C176.88 186.46 176.9 164.94 177.01 143.41C177.02 140.64 176.05 140.01 173.5 140.05C164.77 140.17 156.03 140.07 147.29 140.15C146.27 140.15 144.63 139.39 144.41 141.44L144.4 141.43Z" fill="#F4F0E3"/>
<path d="M144.4 141.43C144.62 139.39 146.26 140.15 147.28 140.14C156.02 140.06 164.75 140.17 173.49 140.04C176.03 140 177.01 140.64 177 143.4C176.89 164.93 176.88 186.45 177 207.98C177.02 211.08 175.78 211.56 173.13 211.53C164.86 211.41 156.59 211.35 148.33 211.55C145.08 211.63 143.74 210.7 144.15 207.37C144.4 205.37 144.28 203.33 144.33 201.3C153.55 201.28 162.76 201.16 171.98 201.3C175.01 201.35 176.13 200.43 176.04 197.32C175.85 190.61 175.82 183.88 176.05 177.18C176.17 173.7 174.72 172.99 171.62 173.07C164.44 173.24 157.24 172.88 150.07 173.21C145.94 173.4 144.77 172.17 144.8 168.01C144.86 159.16 145.61 150.27 144.39 141.43H144.4Z" fill="#980E29"/>
<path d="M144.4 141.43C145.62 150.27 144.86 159.15 144.81 168.01C144.78 172.18 145.95 173.41 150.08 173.21C157.25 172.88 164.45 173.24 171.63 173.07C174.73 173 176.18 173.71 176.06 177.18C175.82 183.89 175.86 190.61 176.05 197.32C176.14 200.43 175.02 201.35 171.99 201.3C162.78 201.16 153.56 201.28 144.34 201.3C143.53 187.42 144.26 173.54 144.15 159.65C144.1 153.57 144.31 147.49 144.4 141.42V141.43Z" fill="#DC183C"/>
<path d="M300.87 114.14C300.87 82.88 301.37 51.6 300.66 20.36C300.26 3.03003 308.15 0.390026 321.41 0.260026C359.23 -0.129974 397.05 2.5928e-05 434.87 0.170026C453.18 0.250026 471.49 1.25003 489.8 1.11003C499.96 1.04003 505.36 7.71003 505.29 18.52C505.1 49.78 505.22 81.04 505.22 112.31C505.22 144.69 505.25 177.07 505.22 209.44C505.21 223.36 499.99 228.97 486.14 229C429.75 229.13 373.36 229.09 316.97 229C306.5 228.98 300.9 222.87 300.89 212.1C300.87 179.44 300.89 146.79 300.87 114.13V114.14ZM388.4 115.65C384.39 115.01 382.95 116.86 383.06 120.73C383.21 126.22 383.37 131.73 383.02 137.2C382.6 143.76 385.33 146.42 391.75 145.47C395 145.49 398.26 145.52 401.51 145.54C401.63 147.64 401.75 149.73 401.88 151.83C398.97 151.83 396.06 151.83 393.15 151.83C392.86 151.2 392.57 150.57 392.28 149.94C392 150.58 391.73 151.22 391.45 151.86C388.57 152.6 386.98 154.62 386.03 157.29C383.28 160.52 381.67 178.24 383.96 181.06C385.41 182.85 387.44 182.18 389.32 181.96C390.03 182.13 390.74 182.29 391.46 182.46C395.54 186.72 413.81 187.43 417.42 183.35C418.03 182.66 417.87 181.29 418.06 180.24C417.95 179.72 418.12 179.31 418.56 179.02C421.46 171.21 419.47 163.15 419.75 155.2C419.82 153.14 418.12 152.53 416.32 152.37C413.65 152.18 410.99 151.99 408.32 151.8C409.13 148.51 411.87 149.06 414.22 148.87C417.54 148.6 418.44 146.94 417.13 143.95C417.58 143.36 418.03 142.77 418.48 142.18C421.74 133.54 419.31 124.6 419.8 115.81C419.96 112.92 417.85 112.11 415.34 112.11C407.52 112.11 399.71 112.11 391.89 112.12C389.49 112.12 388.32 113.35 388.3 115.72L388.39 115.65H388.4ZM370.86 145.4C374.32 146.33 376.57 144.25 378.28 141.89C380.4 138.94 377.56 139.18 375.87 138.83C375.03 135.51 375.03 132.2 375.86 128.88C377.09 128.75 378.87 128.93 379.06 127.52C379.37 125.25 377.23 125.7 375.85 125.43C375.8 123.68 375.75 121.94 375.71 120.19C376.97 117.39 376.31 115.68 373.04 115.43L369.71 114.79C364.23 110.73 350.93 110.92 346.23 115.13C345.06 116.35 343.89 117.57 342.72 118.78C337.38 123.71 337.83 128.75 342.44 133.87C342.62 136.57 342.81 139.27 342.99 141.97C342.21 145.85 344.15 149.28 344.8 152.93C341.46 161.79 340.65 171.66 344.64 179.48C347.81 185.7 356.96 181.2 363.37 182.16C364.46 182.32 365.6 182.07 366.7 182.18C373.38 182.83 375.52 179.41 375.46 173.2C375.42 168.26 374.55 163.22 376.17 158.33C377.92 150.31 374.13 148.6 366.77 148.67C362.25 148.72 356.17 152.36 352.94 145.56C358.91 145.51 364.89 145.46 370.86 145.41V145.4ZM401.64 45.17C384.62 45.17 367.59 45.22 350.57 45.14C345.92 45.12 342.25 45.55 342.36 51.68C342.59 63.39 342.57 75.12 342.46 86.83C342.42 91.65 344.82 93.12 349.21 93.11C384.09 93.05 418.97 93.03 453.86 93.11C458.86 93.12 460.84 91.14 460.74 86.12C460.53 75.24 460.34 64.34 460.79 53.48C461.08 46.58 458.15 44.94 451.86 45.06C435.12 45.37 418.38 45.17 401.63 45.16L401.64 45.17ZM446.37 115.05C435.437 115.043 429.963 119.32 429.95 127.88C429.93 139.427 435.947 145.183 448 145.15C457.54 145.13 462.31 140.323 462.31 130.73C462.33 113.12 462.98 115.2 446.37 115.05ZM446.81 152.11C429.98 152.11 430.02 152.11 429.93 164.59C429.79 184.12 429.2 182.11 447.64 182.18C462.3 182.23 462.3 182.18 462.33 167.48C462.343 157.24 457.17 152.117 446.81 152.11ZM484.07 12.87C479.61 13.92 475.85 16.51 476.1 22.19C476.37 28.14 480.11 31.45 485.94 31.01C491.34 30.6 494.53 26.97 494.16 21.45C493.79 15.94 490.24 13.19 484.06 12.87H484.07ZM485.36 198.77C479.55 199.09 476.21 202.18 476.12 207.6C476.02 213.5 479.75 217.09 485.52 216.88C490.8 216.69 494.27 213.24 494.14 207.65C494.01 202.11 490.65 199.24 485.37 198.77H485.36ZM331.33 22.46C330.94 16.95 328.3 13.34 322.72 13.07C316.73 12.79 313.14 16.3 313.12 22.09C313.1 27.44 316.53 30.98 322.04 31.05C327.51 31.12 330.56 27.78 331.33 22.45V22.46ZM320.23 198.72C314.91 199.22 311.42 202.08 311.24 207.58C311.06 213.13 314.54 216.67 319.84 216.86C325.53 217.06 329.42 213.69 329.35 207.67C329.29 202.17 325.89 199.2 320.24 198.72H320.23Z" fill="#F9F4E5"/>
<path d="M401.64 45.17C418.38 45.17 435.13 45.38 451.87 45.0601C458.16 44.9401 461.08 46.59 460.8 53.48C460.35 64.34 460.53 75.2401 460.75 86.1201C460.85 91.1401 458.87 93.1201 453.87 93.1101C418.99 93.0201 384.11 93.0501 349.22 93.1101C344.83 93.1101 342.43 91.6501 342.47 86.8301C342.58 75.1101 342.6 63.39 342.37 51.68C342.25 45.55 345.93 45.12 350.58 45.14C367.6 45.23 384.62 45.17 401.65 45.17H401.64ZM416.3 75.09V75.04C426.91 75.04 437.52 75.13 448.12 74.99C451.89 74.94 454.8 73.05 454.64 68.95C454.5 65.4 451.9 63.64 448.4 63.44C446.45 63.33 444.49 63.38 442.54 63.38C424.4 63.38 406.25 63.31 388.11 63.43C384.05 63.46 380.98 63.22 381.11 57.88C381.18 54.8 379.11 52.5 375.95 52.28C372.57 52.05 370.52 54.63 370.51 57.5C370.49 64.03 366.29 63.15 362.02 63.47C357.28 63.82 349.62 60.66 349.47 68.83C349.31 77.53 357.27 74.57 362.29 75C366.2 75.33 370.23 74.4101 370.4 80.4701C370.48 83.4701 372.47 85.65 375.93 85.52C379.41 85.39 381.04 82.98 381.1 80.03C381.2 75.07 384.2 75.0101 387.83 75.0501C397.32 75.1501 406.81 75.08 416.3 75.08V75.09Z" fill="#171E2E"/>
<path d="M376.17 158.31C374.55 163.19 375.42 168.23 375.46 173.18C375.51 179.39 373.38 182.8 366.7 182.16C365.6 182.05 364.45 182.3 363.37 182.14C356.96 181.18 347.81 185.68 344.64 179.46C340.65 171.64 341.46 161.77 344.8 152.91C351.88 151.31 359.08 152.71 366.18 152.05C371.36 151.56 374.55 153.51 376.18 158.32L376.17 158.31Z" fill="#2F304E"/>
<path d="M446.36 115.05C462.97 115.2 462.32 113.12 462.3 130.73C462.287 140.323 457.517 145.13 447.99 145.15C435.937 145.177 429.92 139.42 429.94 127.88C429.953 119.32 435.427 115.043 446.36 115.05ZM445.99 138.85C452.29 139.53 457.44 139.87 457.14 130.09C456.88 121.43 453.37 120.32 446.08 120.17C438.15 120.01 434.87 121.78 434.75 130.64C434.63 140.08 439.79 139.32 445.98 138.84L445.99 138.85Z" fill="#2F304E"/>
<path d="M446.8 152.11C457.16 152.11 462.333 157.233 462.32 167.48C462.3 182.18 462.3 182.23 447.63 182.18C429.19 182.11 429.78 184.12 429.92 164.59C430.01 152.11 429.96 152.11 446.8 152.11ZM446.06 157.52C438.07 155.89 434.69 158.62 434.81 167.46C434.92 175.36 437.93 177.65 445.17 177.4C455.3 177.05 456.31 175.95 456.93 167.12C457.53 158.61 453.91 156 446.05 157.53L446.06 157.52Z" fill="#2F304E"/>
<path d="M375.7 120.18C375.75 121.93 375.8 123.67 375.84 125.42C375.84 126.57 375.84 127.72 375.84 128.87C375.02 132.19 375.02 135.51 375.85 138.82C375.02 141.65 373.51 143.96 370.84 145.39C364.87 145.44 358.89 145.49 352.92 145.54C349.37 144.99 345.6 145.06 342.97 141.95C342.79 139.25 342.6 136.55 342.42 133.85C342.51 128.82 342.61 123.79 342.7 118.76C343.87 117.54 345.04 116.32 346.21 115.11C354.04 115 361.86 114.89 369.69 114.77L373.02 115.41C373.91 117 374.8 118.59 375.69 120.17L375.7 120.18ZM359.05 138.83C365.41 139.66 370.48 139.66 370 129.99C369.63 122.57 368.11 119.77 360.24 120.21C348.58 120.86 348.64 120.83 347.81 130.63C347 140.17 352.77 139.28 359.04 138.83H359.05Z" fill="#2F304E"/>
<path d="M418.49 142.18C418.04 142.77 417.59 143.36 417.14 143.95C412.1 146.12 406.66 144.37 401.51 145.54C398.26 145.52 395 145.49 391.75 145.47C389.71 144.19 386.79 143.35 386.79 140.53C386.79 132.21 384.57 123.72 388.4 115.65L388.31 115.72C396.1 115.5 403.9 115.31 411.69 115.05C416.6 114.89 418.86 117.18 418.74 122.11C418.57 128.8 418.56 135.49 418.48 142.18H418.49ZM402.97 138.83C409.47 139.92 413.64 139.07 413.63 129.77C413.63 120.67 409.73 119.99 402.61 120.27C391.62 120.71 392.13 120.53 391.37 130.67C390.64 140.34 396.55 139.19 402.98 138.83H402.97Z" fill="#2F304E"/>
<path d="M418.57 179.02C418.13 179.31 417.96 179.72 418.07 180.24C409.48 184.28 400.26 180.84 391.46 182.47C390.75 182.3 390.04 182.14 389.32 181.98C387.19 179.64 386.3 176.97 386.35 173.74C386.45 168.27 386.15 162.78 386.03 157.3C386.98 154.63 388.57 152.6 391.45 151.87C392.02 151.86 392.58 151.85 393.15 151.83C396.06 151.83 398.97 151.83 401.88 151.83C404.03 151.83 406.18 151.81 408.33 151.81C411 152 413.66 152.19 416.33 152.38C421.06 160.93 417.87 170.14 418.57 179.02ZM403.08 157.56C395.42 156.23 391.04 157.72 391.28 167.11C391.48 174.99 393.57 177.91 401.69 177.48C413.21 176.88 412.71 177.31 413.42 166.87C413.99 158.44 410.79 155.75 403.08 157.55V157.56Z" fill="#2F304E"/>
<path d="M484.07 12.87C490.25 13.19 493.8 15.94 494.17 21.45C494.54 26.97 491.35 30.6 485.95 31.01C480.12 31.45 476.37 28.14 476.11 22.19C475.86 16.51 479.61 13.92 484.08 12.87H484.07Z" fill="#2F304E"/>
<path d="M485.36 198.77C490.64 199.23 494 202.11 494.13 207.65C494.27 213.24 490.8 216.69 485.51 216.88C479.74 217.09 476.01 213.5 476.11 207.6C476.2 202.18 479.54 199.09 485.35 198.77H485.36Z" fill="#2F304E"/>
<path d="M331.33 22.46C330.55 27.79 327.51 31.13 322.04 31.06C316.54 30.99 313.11 27.45 313.12 22.1C313.14 16.31 316.73 12.8 322.72 13.08C328.31 13.34 330.94 16.96 331.33 22.47V22.46Z" fill="#2F304E"/>
<path d="M320.24 198.72C325.9 199.19 329.29 202.17 329.35 207.67C329.42 213.69 325.53 217.06 319.84 216.86C314.55 216.67 311.06 213.12 311.24 207.58C311.42 202.08 314.91 199.22 320.23 198.72H320.24Z" fill="#2F304E"/>
<path d="M342.98 141.95C345.61 145.06 349.38 144.99 352.93 145.54C356.15 152.34 362.24 148.69 366.76 148.65C374.12 148.58 377.92 150.29 376.16 158.31C374.53 153.5 371.34 151.56 366.16 152.04C359.06 152.71 351.86 151.3 344.78 152.9C344.13 149.26 342.19 145.82 342.97 141.94L342.98 141.95Z" fill="#F4F0E3"/>
<path d="M418.49 142.18C418.57 135.49 418.58 128.8 418.75 122.11C418.87 117.19 416.61 114.89 411.7 115.05C403.91 115.3 396.11 115.5 388.32 115.72C388.34 113.35 389.51 112.12 391.91 112.12C399.73 112.12 407.54 112.11 415.36 112.11C417.87 112.11 419.98 112.92 419.82 115.81C419.32 124.6 421.76 133.54 418.5 142.18H418.49Z" fill="#F4F0E3"/>
<path d="M388.4 115.65C384.57 123.72 386.79 132.22 386.79 140.53C386.79 143.35 389.71 144.19 391.75 145.47C385.33 146.42 382.6 143.76 383.02 137.2C383.37 131.73 383.21 126.21 383.06 120.73C382.95 116.86 384.39 115.01 388.4 115.65Z" fill="#F4F0E3"/>
<path d="M391.46 182.47C400.26 180.84 409.47 184.29 418.07 180.24C417.87 181.3 418.04 182.67 417.43 183.35C413.82 187.43 395.55 186.72 391.47 182.46L391.46 182.47Z" fill="#F4F0E3"/>
<path d="M386.03 157.29C386.16 162.77 386.45 168.25 386.35 173.73C386.29 176.96 387.19 179.63 389.32 181.97C387.44 182.19 385.41 182.85 383.96 181.06C381.67 178.24 383.28 160.51 386.03 157.29Z" fill="#F4F0E3"/>
<path d="M369.7 114.78C361.87 114.89 354.05 115 346.22 115.12C350.92 110.91 364.21 110.72 369.7 114.78Z" fill="#F4F0E3"/>
<path d="M408.33 151.8C406.18 151.8 404.03 151.82 401.88 151.82C401.76 149.72 401.64 147.63 401.51 145.53C406.65 144.36 412.09 146.11 417.14 143.94C418.46 146.93 417.55 148.59 414.23 148.85C411.88 149.04 409.14 148.49 408.33 151.78V151.8Z" fill="#F4F0E3"/>
<path d="M342.72 118.77C342.63 123.8 342.53 128.83 342.44 133.86C337.83 128.74 337.38 123.7 342.72 118.77Z" fill="#F4F0E3"/>
<path d="M418.57 179.02C417.87 170.13 421.06 160.92 416.33 152.38C418.13 152.54 419.84 153.15 419.76 155.21C419.47 163.15 421.47 171.22 418.57 179.03V179.02Z" fill="#F4F0E3"/>
<path d="M370.86 145.39C373.53 143.96 375.04 141.65 375.87 138.82C377.56 139.17 380.4 138.93 378.28 141.88C376.57 144.25 374.32 146.33 370.86 145.39Z" fill="#F4F0E3"/>
<path d="M375.85 128.87C375.85 127.72 375.85 126.57 375.85 125.42C377.22 125.69 379.37 125.23 379.06 127.51C378.87 128.92 377.09 128.74 375.86 128.87H375.85Z" fill="#F4F0E3"/>
<path d="M375.7 120.18C374.81 118.59 373.92 117 373.03 115.42C376.3 115.68 376.96 117.39 375.7 120.18Z" fill="#F4F0E3"/>
<path d="M393.15 151.82C392.58 151.83 392.02 151.84 391.45 151.86C391.73 151.22 392 150.58 392.28 149.94C392.57 150.57 392.86 151.2 393.15 151.83V151.82Z" fill="#F4F0E3"/>
<path d="M416.3 75.09C406.81 75.09 397.32 75.16 387.83 75.06C384.2 75.02 381.2 75.08 381.1 80.04C381.04 82.99 379.41 85.39 375.93 85.53C372.47 85.66 370.48 83.48 370.4 80.48C370.24 74.42 366.2 75.35 362.29 75.01C357.26 74.58 349.3 77.54 349.47 68.84C349.62 60.67 357.28 63.83 362.02 63.48C366.29 63.16 370.49 64.04 370.51 57.51C370.51 54.65 372.57 52.06 375.95 52.29C379.11 52.51 381.19 54.81 381.11 57.89C380.98 63.22 384.05 63.46 388.11 63.44C406.25 63.32 424.4 63.39 442.54 63.39C444.49 63.39 446.45 63.34 448.4 63.45C451.89 63.65 454.5 65.41 454.64 68.96C454.8 73.06 451.88 74.95 448.12 75C437.51 75.13 426.91 75.05 416.3 75.05V75.1V75.09Z" fill="#40AE93"/>
<path d="M445.99 138.85C439.8 139.33 434.63 140.08 434.76 130.65C434.88 121.79 438.16 120.01 446.09 120.18C453.38 120.33 456.89 121.44 457.15 130.1C457.45 139.87 452.3 139.53 446 138.86L445.99 138.85Z" fill="#4E5382"/>
<path d="M446.06 157.51C453.92 155.99 457.53 158.6 456.94 167.1C456.32 175.93 455.31 177.04 445.18 177.38C437.94 177.63 434.93 175.35 434.82 167.44C434.69 158.6 438.07 155.87 446.07 157.5L446.06 157.51Z" fill="#4E5382"/>
<path d="M359.05 138.84C352.77 139.29 347.01 140.18 347.82 130.64C348.65 120.84 348.59 120.87 360.25 120.22C368.12 119.78 369.64 122.58 370.01 130C370.49 139.67 365.42 139.67 359.06 138.84H359.05Z" fill="#4E5382"/>
<path d="M402.97 138.83C396.54 139.2 390.64 140.34 391.36 130.67C392.12 120.54 391.61 120.71 402.6 120.27C409.72 119.99 413.62 120.67 413.62 129.77C413.62 139.07 409.45 139.91 402.96 138.83H402.97Z" fill="#4E5382"/>
<path d="M403.08 157.55C410.79 155.75 413.99 158.44 413.42 166.87C412.71 177.31 413.21 176.88 401.69 177.48C393.57 177.9 391.48 174.99 391.28 167.11C391.04 157.72 395.42 156.22 403.08 157.56V157.55Z" fill="#4E5382"/>
<path d="M205.03 175.9C205.03 163.23 205.14 150.55 204.97 137.88C204.92 133.99 206.28 132.65 210.15 132.7C222.2 132.87 234.25 132.87 246.29 132.7C250.65 132.64 252.01 134.5 251.99 138.63C251.89 163.51 251.9 188.38 251.99 213.26C252 217.17 250.7 219.02 246.57 218.97C234.52 218.84 222.47 218.85 210.42 218.97C206.44 219.01 204.88 217.57 204.95 213.43C205.15 200.92 205.02 188.4 205.03 175.88V175.9ZM212.66 140.43C210.94 143.67 212.14 147.09 212.08 150.42C211.64 159.58 211.68 168.74 212.06 177.9C212.04 188.49 212.01 199.08 211.99 209.66C211.52 212.09 213.36 211.63 214.62 211.63C223.94 211.67 233.26 211.65 242.59 211.64C243.36 211.64 244.16 211.64 244.42 210.65C244.46 199.99 244.5 189.33 244.53 178.67C245.04 168.98 245.15 159.28 244.47 149.59C244.51 147.43 244.46 145.25 244.62 143.1C244.78 141.01 244.25 140.03 241.87 140.08C232.14 140.29 222.4 140.32 212.66 140.43Z" fill="#F4F0E3"/>
<path d="M244.53 178.68C244.49 189.34 244.45 200 244.42 210.66C235.08 210.66 225.74 210.68 216.4 210.7C214.84 210.7 213.27 210.86 212 209.67C212.02 199.08 212.05 188.49 212.07 177.9C219.68 177.87 227.3 177.75 234.91 177.84C238.12 177.88 241.45 177.09 244.54 178.68H244.53Z" fill="#24264A"/>
<path d="M244.53 178.68C241.44 177.09 238.11 177.88 234.9 177.84C227.29 177.75 219.68 177.87 212.06 177.9C211.68 168.74 211.64 159.58 212.08 150.42C221.43 150.45 230.78 150.48 240.13 150.49C241.34 150.49 242.67 150.76 243.56 149.55C243.86 149.57 244.16 149.59 244.46 149.6C245.14 159.29 245.03 168.99 244.52 178.68H244.53Z" fill="#4E5382"/>
<path d="M243.57 149.56C242.67 150.77 241.35 150.5 240.14 150.5C230.79 150.5 221.44 150.46 212.09 150.43C212.15 147.09 210.94 143.68 212.67 140.43C220.16 142.04 227.74 140.85 235.28 141.12C244.63 141.46 243.57 139.53 243.58 149.55L243.57 149.56Z" fill="#24264A"/>
<path d="M243.57 149.56C243.56 139.54 244.62 141.47 235.27 141.13C227.73 140.85 220.15 142.05 212.66 140.44C222.4 140.34 232.14 140.3 241.87 140.09C244.25 140.04 244.78 141.02 244.62 143.11C244.46 145.27 244.51 147.44 244.47 149.6C244.17 149.6 243.87 149.58 243.57 149.55V149.56Z" fill="#171E2E"/>
<path d="M211.99 209.67C213.26 210.86 214.84 210.71 216.39 210.7C225.73 210.68 235.07 210.67 244.41 210.66C244.15 211.64 243.34 211.65 242.58 211.65C233.26 211.65 223.94 211.68 214.61 211.64C213.35 211.64 211.52 212.1 211.98 209.67H211.99Z" fill="#4E5382"/>
<path d="M200.82 123.77C201.26 123.68 201.41 123.85 201.28 124.28C201.08 124.16 200.92 123.99 200.82 123.77Z" fill="#171E2E"/>
<path d="M137.39 56.34C137.39 43.82 137.5 31.3 137.32 18.79C137.27 14.9 138.62 13.56 142.5 13.62C154.55 13.8 166.6 13.81 178.65 13.62C182.82 13.56 184.31 15.45 184.32 19.21C184.32 44.24 184.32 69.28 184.32 94.31C184.32 97.1 183.65 99.01 180.16 99.21C167.08 99.97 153.99 98.41 140.91 99.67C137.75 99.97 137.36 97.44 137.37 94.82C137.43 81.99 137.4 69.16 137.4 56.33L137.39 56.34ZM144.4 22.34C144.31 28.42 144.1 34.5 144.15 40.57C144.26 54.45 143.52 68.34 144.34 82.22C144.29 84.24 144.4 86.29 144.16 88.29C143.75 91.62 145.09 92.55 148.34 92.47C156.6 92.26 164.88 92.32 173.14 92.45C175.79 92.49 177.03 92.01 177.01 88.9C176.88 67.37 176.9 45.85 177.01 24.32C177.02 21.55 176.05 20.92 173.5 20.96C164.77 21.08 156.03 20.98 147.29 21.06C146.27 21.06 144.63 20.3 144.41 22.35L144.4 22.34Z" fill="#F4F0E3"/>
<path d="M144.4 22.34C144.62 20.3 146.26 21.06 147.28 21.05C156.02 20.97 164.75 21.08 173.49 20.95C176.03 20.91 177.01 21.55 177 24.31C176.89 45.84 176.88 67.36 177 88.89C177.02 91.99 175.78 92.47 173.13 92.44C164.86 92.32 156.59 92.26 148.33 92.46C145.08 92.54 143.74 91.61 144.15 88.28C144.4 86.28 144.28 84.24 144.33 82.21C153.55 82.19 162.76 82.07 171.98 82.21C175.01 82.26 176.13 81.34 176.04 78.23C175.85 71.52 175.82 64.79 176.05 58.09C176.17 54.61 174.72 53.9 171.62 53.98C164.44 54.15 157.24 53.79 150.07 54.12C145.94 54.31 144.77 53.08 144.8 48.92C144.86 40.07 145.61 31.18 144.39 22.34H144.4Z" fill="#980E29"/>
<path d="M144.4 22.34C145.62 31.18 144.86 40.06 144.81 48.92C144.78 53.09 145.95 54.32 150.08 54.12C157.25 53.79 164.45 54.15 171.63 53.98C174.73 53.91 176.18 54.62 176.06 58.09C175.82 64.8 175.86 71.52 176.05 78.23C176.14 81.34 175.02 82.26 171.99 82.21C162.78 82.07 153.56 82.19 144.34 82.21C143.53 68.33 144.26 54.45 144.15 40.56C144.1 34.48 144.31 28.4 144.4 22.33V22.34Z" fill="#DC183C"/>
<path d="M205.03 56.81C205.03 44.14 205.14 31.46 204.97 18.79C204.92 14.9 206.28 13.56 210.15 13.61C222.2 13.78 234.25 13.78 246.29 13.61C250.65 13.55 252.01 15.41 251.99 19.54C251.89 44.42 251.9 69.29 251.99 94.17C252 98.08 250.7 99.93 246.57 99.88C234.52 99.75 222.47 99.76 210.42 99.88C206.44 99.92 204.88 98.48 204.95 94.34C205.15 81.83 205.02 69.31 205.03 56.79V56.81ZM212.66 21.34C210.94 24.58 212.14 28 212.08 31.33C211.64 40.49 211.68 49.65 212.06 58.81C212.04 69.4 212.01 79.99 211.99 90.57C211.52 93 213.36 92.54 214.62 92.54C223.94 92.58 233.26 92.56 242.59 92.55C243.36 92.55 244.16 92.55 244.42 91.56C244.46 80.9 244.5 70.24 244.53 59.58C245.04 49.89 245.15 40.19 244.47 30.5C244.51 28.34 244.46 26.16 244.62 24.01C244.78 21.92 244.25 20.94 241.87 20.99C232.14 21.2 222.4 21.23 212.66 21.34Z" fill="#F4F0E3"/>
<path d="M244.53 59.59C244.49 70.25 244.45 80.91 244.42 91.57C235.08 91.57 225.74 91.59 216.4 91.61C214.84 91.61 213.27 91.77 212 90.58C212.02 79.99 212.05 69.4 212.07 58.81C219.68 58.78 227.3 58.66 234.91 58.75C238.12 58.79 241.45 58 244.54 59.59H244.53Z" fill="#24264A"/>
<path d="M244.53 59.59C241.44 58 238.11 58.79 234.9 58.75C227.29 58.66 219.68 58.78 212.06 58.81C211.68 49.65 211.64 40.49 212.08 31.33C221.43 31.36 230.78 31.39 240.13 31.4C241.34 31.4 242.67 31.67 243.56 30.46C243.86 30.48 244.16 30.5 244.46 30.51C245.14 40.2 245.03 49.9 244.52 59.59H244.53Z" fill="#4E5382"/>
<path d="M243.57 30.46C242.67 31.67 241.35 31.4 240.14 31.4C230.79 31.4 221.44 31.36 212.09 31.33C212.15 27.99 210.94 24.58 212.67 21.33C220.16 22.94 227.74 21.75 235.28 22.02C244.63 22.36 243.57 20.43 243.58 30.45L243.57 30.46Z" fill="#24264A"/>
<path d="M243.57 30.46C243.56 20.44 244.62 22.37 235.27 22.03C227.73 21.75 220.15 22.95 212.66 21.34C222.4 21.24 232.14 21.2 241.87 20.99C244.25 20.94 244.78 21.92 244.62 24.01C244.46 26.17 244.51 28.34 244.47 30.5C244.17 30.5 243.87 30.48 243.57 30.45V30.46Z" fill="#171E2E"/>
<path d="M211.99 90.58C213.26 91.77 214.84 91.62 216.39 91.61C225.73 91.59 235.07 91.58 244.41 91.57C244.15 92.55 243.34 92.56 242.58 92.56C233.26 92.56 223.94 92.59 214.61 92.55C213.35 92.55 211.52 93.01 211.98 90.58H211.99Z" fill="#4E5382"/>
<path d="M200.82 4.67998C201.26 4.58998 201.41 4.75998 201.28 5.18998C201.08 5.06998 200.92 4.89998 200.82 4.67998Z" fill="#171E2E"/>
<path d="M114.6 56.55C114.6 69.07 114.49 81.59 114.67 94.1C114.72 97.99 113.37 99.33 109.49 99.27C97.44 99.09 85.39 99.08 73.34 99.27C69.17 99.33 67.68 97.44 67.67 93.68C67.67 68.65 67.67 43.61 67.67 18.58C67.67 15.79 68.34 13.88 71.83 13.68C84.91 12.92 98 14.48 111.08 13.22C114.24 12.92 114.63 15.45 114.62 18.07C114.56 30.9 114.59 43.73 114.59 56.56L114.6 56.55ZM107.59 90.55C107.68 84.47 107.89 78.39 107.84 72.32C107.73 58.44 108.47 44.55 107.65 30.67C107.7 28.65 107.59 26.6 107.83 24.6C108.24 21.27 106.9 20.34 103.65 20.42C95.39 20.63 87.11 20.57 78.85 20.44C76.2 20.4 74.96 20.88 74.98 23.99C75.11 45.52 75.09 67.04 74.98 88.57C74.97 91.34 75.94 91.97 78.49 91.93C87.22 91.81 95.96 91.91 104.7 91.83C105.72 91.83 107.36 92.59 107.58 90.54L107.59 90.55Z" fill="#F4F0E3"/>
<path d="M107.59 90.55C107.37 92.59 105.73 91.83 104.71 91.84C95.97 91.92 87.24 91.81 78.5 91.94C75.96 91.98 74.98 91.34 74.99 88.58C75.1 67.05 75.11 45.53 74.99 24C74.97 20.9 76.21 20.42 78.86 20.45C87.13 20.57 95.4 20.63 103.66 20.43C106.91 20.35 108.25 21.28 107.84 24.61C107.59 26.61 107.71 28.65 107.66 30.68C98.44 30.7 89.23 30.82 80.01 30.68C76.98 30.63 75.86 31.55 75.95 34.66C76.14 41.37 76.17 48.1 75.94 54.8C75.82 58.28 77.27 58.99 80.37 58.91C87.55 58.74 94.75 59.1 101.92 58.77C106.05 58.58 107.22 59.81 107.19 63.97C107.13 72.82 106.38 81.71 107.6 90.55H107.59Z" fill="#980E29"/>
<path d="M107.59 90.55C106.37 81.71 107.13 72.83 107.18 63.97C107.21 59.8 106.04 58.57 101.91 58.77C94.74 59.1 87.54 58.74 80.36 58.91C77.26 58.98 75.81 58.27 75.93 54.8C76.17 48.09 76.13 41.37 75.94 34.66C75.85 31.55 76.97 30.63 80 30.68C89.21 30.82 98.43 30.7 107.65 30.68C108.46 44.56 107.73 58.44 107.84 72.33C107.89 78.41 107.68 84.49 107.59 90.56V90.55Z" fill="#DC183C"/>
<path d="M46.97 56.08C46.97 68.75 46.86 81.43 47.03 94.1C47.08 97.99 45.72 99.33 41.85 99.28C29.8 99.11 17.75 99.11 5.71 99.28C1.34 99.33 -0.0199968 97.47 3.15194e-06 93.34C0.100003 68.46 0.0900032 43.59 3.15194e-06 18.71C-0.00999685 14.8 1.29 12.95 5.42 13C17.47 13.13 29.52 13.12 41.57 13C45.55 12.96 47.11 14.4 47.04 18.54C46.84 31.05 46.97 43.57 46.96 56.09L46.97 56.08ZM39.34 91.55C41.06 88.31 39.86 84.89 39.92 81.56C40.36 72.4 40.32 63.24 39.94 54.08C39.96 43.49 39.99 32.9 40.01 22.32C40.48 19.89 38.64 20.35 37.38 20.35C28.06 20.31 18.74 20.33 9.41 20.34C8.64 20.34 7.84 20.34 7.58 21.33C7.54 31.99 7.5 42.65 7.47 53.31C6.96 63 6.85 72.7 7.53 82.39C7.49 84.55 7.54 86.73 7.38 88.88C7.22 90.97 7.75 91.95 10.13 91.9C19.86 91.69 29.6 91.66 39.34 91.55Z" fill="#F4F0E3"/>
<path d="M7.46001 53.3C7.50001 42.64 7.54001 31.98 7.57001 21.32C16.91 21.32 26.25 21.3 35.59 21.28C37.15 21.28 38.72 21.12 39.99 22.31C39.97 32.9 39.94 43.49 39.92 54.08C32.31 54.11 24.69 54.23 17.08 54.14C13.87 54.1 10.54 54.89 7.45001 53.3H7.46001Z" fill="#24264A"/>
<path d="M7.46 53.3C10.55 54.89 13.88 54.1 17.09 54.14C24.7 54.23 32.31 54.11 39.93 54.08C40.31 63.24 40.35 72.4 39.91 81.56C30.56 81.53 21.21 81.5 11.86 81.49C10.65 81.49 9.32001 81.22 8.43001 82.43C8.13001 82.41 7.83001 82.39 7.53001 82.38C6.85001 72.69 6.96 62.99 7.47 53.3H7.46Z" fill="#4E5382"/>
<path d="M8.42002 82.43C9.32002 81.22 10.64 81.49 11.85 81.49C21.2 81.49 30.55 81.53 39.9 81.56C39.84 84.9 41.05 88.31 39.32 91.56C31.83 89.95 24.25 91.14 16.71 90.87C7.36002 90.53 8.42002 92.46 8.41002 82.44L8.42002 82.43Z" fill="#24264A"/>
<path d="M8.41999 82.43C8.42999 92.45 7.36999 90.52 16.72 90.86C24.26 91.14 31.84 89.94 39.33 91.55C29.59 91.65 19.85 91.69 10.12 91.9C7.73999 91.95 7.20999 90.97 7.36999 88.88C7.52999 86.72 7.47999 84.55 7.51999 82.39C7.81999 82.39 8.11999 82.41 8.41999 82.44V82.43Z" fill="#171E2E"/>
<path d="M40 22.31C38.73 21.12 37.15 21.27 35.6 21.28C26.26 21.3 16.92 21.31 7.58002 21.32C7.84002 20.34 8.65002 20.33 9.41002 20.33C18.73 20.33 28.05 20.3 37.38 20.34C38.64 20.34 40.47 19.88 40.01 22.31H40Z" fill="#4E5382"/>
<path d="M51.18 108.21C50.74 108.3 50.59 108.13 50.72 107.7C50.92 107.82 51.08 107.99 51.18 108.21Z" fill="#171E2E"/>
<path d="M114.6 175.64C114.6 188.16 114.49 200.68 114.67 213.19C114.72 217.08 113.37 218.42 109.49 218.36C97.44 218.18 85.39 218.17 73.34 218.36C69.17 218.42 67.68 216.53 67.67 212.77C67.67 187.74 67.67 162.7 67.67 137.67C67.67 134.88 68.34 132.97 71.83 132.77C84.91 132.01 98 133.57 111.08 132.31C114.24 132.01 114.63 134.54 114.62 137.16C114.56 149.99 114.59 162.82 114.59 175.65L114.6 175.64ZM107.59 209.64C107.68 203.56 107.89 197.48 107.84 191.41C107.73 177.53 108.47 163.64 107.65 149.76C107.7 147.74 107.59 145.69 107.83 143.69C108.24 140.36 106.9 139.43 103.65 139.51C95.39 139.72 87.11 139.66 78.85 139.53C76.2 139.49 74.96 139.97 74.98 143.08C75.11 164.61 75.09 186.13 74.98 207.66C74.97 210.43 75.94 211.06 78.49 211.02C87.22 210.9 95.96 211 104.7 210.92C105.72 210.92 107.36 211.68 107.58 209.63L107.59 209.64Z" fill="#F4F0E3"/>
<path d="M107.59 209.64C107.37 211.68 105.73 210.92 104.71 210.93C95.97 211.01 87.24 210.9 78.5 211.03C75.96 211.07 74.98 210.43 74.99 207.67C75.1 186.14 75.11 164.62 74.99 143.09C74.97 139.99 76.21 139.51 78.86 139.54C87.13 139.66 95.4 139.72 103.66 139.52C106.91 139.44 108.25 140.37 107.84 143.7C107.59 145.7 107.71 147.74 107.66 149.77C98.44 149.79 89.23 149.91 80.01 149.77C76.98 149.72 75.86 150.64 75.95 153.75C76.14 160.46 76.17 167.19 75.94 173.89C75.82 177.37 77.27 178.08 80.37 178C87.55 177.83 94.75 178.19 101.92 177.86C106.05 177.67 107.22 178.9 107.19 183.06C107.13 191.91 106.38 200.8 107.6 209.64H107.59Z" fill="#980E29"/>
<path d="M107.59 209.64C106.37 200.8 107.13 191.92 107.18 183.06C107.21 178.89 106.04 177.66 101.91 177.86C94.74 178.19 87.54 177.83 80.36 178C77.26 178.07 75.81 177.36 75.93 173.89C76.17 167.18 76.13 160.46 75.94 153.75C75.85 150.64 76.97 149.72 80 149.77C89.21 149.91 98.43 149.79 107.65 149.77C108.46 163.65 107.73 177.53 107.84 191.42C107.89 197.5 107.68 203.58 107.59 209.65V209.64Z" fill="#DC183C"/>
<path d="M46.97 175.17C46.97 187.84 46.86 200.52 47.03 213.19C47.08 217.08 45.72 218.42 41.85 218.37C29.8 218.2 17.75 218.2 5.71 218.37C1.34 218.42 -0.0199968 216.57 3.15194e-06 212.43C0.100003 187.55 0.0900032 162.68 3.15194e-06 137.8C-0.00999685 133.89 1.29 132.04 5.42 132.09C17.47 132.22 29.52 132.21 41.57 132.09C45.55 132.05 47.11 133.49 47.04 137.63C46.84 150.14 46.97 162.66 46.96 175.18L46.97 175.17ZM39.34 210.64C41.06 207.4 39.86 203.98 39.92 200.65C40.36 191.49 40.32 182.33 39.94 173.17C39.96 162.58 39.99 151.99 40.01 141.41C40.48 138.98 38.64 139.44 37.38 139.44C28.06 139.4 18.74 139.42 9.41 139.43C8.64 139.43 7.84 139.43 7.58 140.42C7.54 151.08 7.5 161.74 7.47 172.4C6.96 182.09 6.85 191.79 7.53 201.48C7.49 203.64 7.54 205.82 7.38 207.97C7.22 210.06 7.75 211.04 10.13 210.99C19.86 210.78 29.6 210.75 39.34 210.64Z" fill="#F4F0E3"/>
<path d="M7.46001 172.39C7.50001 161.73 7.54001 151.07 7.57001 140.41C16.91 140.41 26.25 140.39 35.59 140.37C37.15 140.37 38.72 140.21 39.99 141.4C39.97 151.99 39.94 162.58 39.92 173.17C32.31 173.2 24.69 173.32 17.08 173.23C13.87 173.19 10.54 173.98 7.45001 172.39H7.46001Z" fill="#24264A"/>
<path d="M7.46 172.39C10.55 173.98 13.88 173.19 17.09 173.23C24.7 173.32 32.31 173.2 39.93 173.17C40.31 182.33 40.35 191.49 39.91 200.65C30.56 200.62 21.21 200.59 11.86 200.58C10.65 200.58 9.32001 200.31 8.43001 201.52C8.13001 201.5 7.83001 201.48 7.53001 201.47C6.85001 191.78 6.96 182.08 7.47 172.39H7.46Z" fill="#4E5382"/>
<path d="M8.42002 201.52C9.32002 200.31 10.64 200.58 11.85 200.58C21.2 200.58 30.55 200.62 39.9 200.65C39.84 203.99 41.05 207.4 39.32 210.65C31.83 209.04 24.25 210.23 16.71 209.96C7.36002 209.62 8.42002 211.55 8.41002 201.53L8.42002 201.52Z" fill="#24264A"/>
<path d="M8.41999 201.52C8.42999 211.54 7.36999 209.61 16.72 209.95C24.26 210.23 31.84 209.03 39.33 210.64C29.59 210.74 19.85 210.78 10.12 210.99C7.73999 211.04 7.20999 210.06 7.36999 207.97C7.52999 205.81 7.47999 203.64 7.51999 201.48C7.81999 201.48 8.11999 201.5 8.41999 201.53V201.52Z" fill="#171E2E"/>
<path d="M40 141.41C38.73 140.22 37.15 140.37 35.6 140.38C26.26 140.4 16.92 140.41 7.58002 140.42C7.84002 139.44 8.65002 139.43 9.41002 139.43C18.73 139.43 28.05 139.4 37.38 139.44C38.64 139.44 40.47 138.98 40.01 141.41H40Z" fill="#4E5382"/>
<path d="M51.18 227.3C50.74 227.39 50.59 227.22 50.72 226.79C50.92 226.91 51.08 227.08 51.18 227.3Z" fill="#171E2E"/>
<path d="M670.99 56.08C670.99 68.6 670.88 81.12 671.06 93.63C671.11 97.52 669.76 98.86 665.88 98.8C653.83 98.62 641.78 98.61 629.73 98.8C625.56 98.86 624.07 96.97 624.06 93.21C624.06 68.18 624.06 43.14 624.06 18.11C624.06 15.32 624.73 13.41 628.22 13.21C641.3 12.45 654.39 14.01 667.47 12.75C670.63 12.45 671.02 14.98 671.01 17.6C670.95 30.43 670.98 43.26 670.98 56.09L670.99 56.08ZM663.98 90.08C664.07 84 664.28 77.92 664.23 71.85C664.12 57.97 664.86 44.08 664.04 30.2C664.09 28.18 663.98 26.13 664.22 24.13C664.63 20.8 663.29 19.87 660.04 19.95C651.78 20.16 643.5 20.1 635.24 19.97C632.59 19.93 631.35 20.41 631.37 23.52C631.5 45.05 631.48 66.57 631.37 88.1C631.36 90.87 632.33 91.5 634.88 91.46C643.61 91.34 652.35 91.44 661.09 91.36C662.11 91.36 663.75 92.12 663.97 90.07L663.98 90.08Z" fill="#F4F0E3"/>
<path d="M663.98 90.08C663.76 92.12 662.12 91.36 661.1 91.37C652.36 91.45 643.63 91.34 634.89 91.47C632.35 91.51 631.37 90.87 631.38 88.11C631.49 66.58 631.5 45.06 631.38 23.53C631.36 20.43 632.6 19.95 635.25 19.98C643.52 20.1 651.79 20.16 660.05 19.96C663.3 19.88 664.64 20.81 664.23 24.14C663.98 26.14 664.1 28.18 664.05 30.21C654.83 30.23 645.62 30.35 636.4 30.21C633.37 30.16 632.25 31.08 632.34 34.19C632.53 40.9 632.56 47.63 632.33 54.33C632.21 57.81 633.66 58.52 636.76 58.44C643.94 58.27 651.14 58.63 658.31 58.3C662.44 58.11 663.61 59.34 663.58 63.5C663.52 72.35 662.77 81.24 663.99 90.08H663.98Z" fill="#980E29"/>
<path d="M663.98 90.08C662.76 81.24 663.52 72.36 663.57 63.5C663.6 59.33 662.43 58.1 658.3 58.3C651.13 58.63 643.93 58.27 636.75 58.44C633.65 58.51 632.2 57.8 632.32 54.33C632.56 47.62 632.52 40.9 632.33 34.19C632.24 31.08 633.36 30.16 636.39 30.21C645.6 30.35 654.82 30.23 664.04 30.21C664.85 44.09 664.12 57.97 664.23 71.86C664.28 77.94 664.07 84.02 663.98 90.09V90.08Z" fill="#DC183C"/>
<path d="M603.35 55.61C603.35 68.28 603.24 80.96 603.41 93.63C603.46 97.52 602.1 98.86 598.23 98.81C586.18 98.64 574.13 98.64 562.09 98.81C557.73 98.87 556.37 97.01 556.39 92.88C556.49 68 556.48 43.13 556.39 18.25C556.38 14.34 557.68 12.49 561.81 12.54C573.86 12.67 585.91 12.66 597.96 12.54C601.94 12.5 603.5 13.94 603.43 18.08C603.23 30.59 603.36 43.11 603.35 55.63V55.61ZM595.72 91.08C597.44 87.84 596.24 84.42 596.3 81.09C596.74 71.93 596.7 62.77 596.32 53.61C596.34 43.02 596.37 32.43 596.39 21.85C596.86 19.42 595.02 19.88 593.76 19.88C584.44 19.84 575.12 19.86 565.79 19.87C565.02 19.87 564.22 19.87 563.96 20.86C563.92 31.52 563.88 42.18 563.85 52.84C563.34 62.53 563.23 72.23 563.91 81.92C563.87 84.08 563.92 86.26 563.76 88.41C563.6 90.5 564.13 91.48 566.51 91.43C576.24 91.22 585.98 91.19 595.72 91.08Z" fill="#F4F0E3"/>
<path d="M563.85 52.83C563.89 42.17 563.93 31.51 563.96 20.85C573.3 20.85 582.64 20.83 591.98 20.81C593.54 20.81 595.11 20.65 596.38 21.84C596.36 32.43 596.33 43.02 596.31 53.61C588.7 53.64 581.08 53.76 573.47 53.67C570.26 53.63 566.93 54.42 563.84 52.83H563.85Z" fill="#24264A"/>
<path d="M563.85 52.83C566.94 54.42 570.27 53.63 573.48 53.67C581.09 53.76 588.7 53.64 596.32 53.61C596.7 62.77 596.74 71.93 596.3 81.09C586.95 81.06 577.6 81.03 568.25 81.02C567.04 81.02 565.71 80.75 564.82 81.96C564.52 81.94 564.22 81.92 563.92 81.91C563.24 72.22 563.35 62.52 563.86 52.83H563.85Z" fill="#4E5382"/>
<path d="M564.81 81.96C565.71 80.75 567.03 81.02 568.24 81.02C577.59 81.02 586.94 81.06 596.29 81.09C596.23 84.43 597.44 87.84 595.71 91.09C588.22 89.48 580.64 90.67 573.1 90.4C563.75 90.06 564.81 91.99 564.8 81.97L564.81 81.96Z" fill="#24264A"/>
<path d="M564.81 81.96C564.82 91.98 563.76 90.05 573.11 90.39C580.65 90.67 588.23 89.47 595.72 91.08C585.98 91.18 576.24 91.22 566.51 91.43C564.13 91.48 563.6 90.5 563.76 88.41C563.92 86.25 563.87 84.08 563.91 81.92C564.21 81.92 564.51 81.94 564.81 81.97V81.96Z" fill="#171E2E"/>
<path d="M596.39 21.84C595.12 20.65 593.54 20.8 591.99 20.81C582.65 20.83 573.31 20.84 563.97 20.85C564.23 19.87 565.04 19.86 565.8 19.86C575.12 19.86 584.44 19.83 593.77 19.87C595.03 19.87 596.86 19.41 596.4 21.84H596.39Z" fill="#4E5382"/>
<path d="M607.56 107.74C607.12 107.83 606.97 107.66 607.1 107.23C607.3 107.35 607.46 107.52 607.56 107.74Z" fill="#171E2E"/>
<path d="M670.99 175.17C670.99 187.69 670.88 200.21 671.06 212.72C671.11 216.61 669.76 217.95 665.88 217.89C653.83 217.71 641.78 217.7 629.73 217.89C625.56 217.95 624.07 216.06 624.06 212.3C624.06 187.27 624.06 162.23 624.06 137.2C624.06 134.41 624.73 132.5 628.22 132.3C641.3 131.54 654.39 133.1 667.47 131.84C670.63 131.54 671.02 134.07 671.01 136.69C670.95 149.52 670.98 162.35 670.98 175.18L670.99 175.17ZM663.98 209.17C664.07 203.09 664.28 197.01 664.23 190.94C664.12 177.06 664.86 163.17 664.04 149.29C664.09 147.27 663.98 145.22 664.22 143.22C664.63 139.89 663.29 138.96 660.04 139.04C651.78 139.25 643.5 139.19 635.24 139.06C632.59 139.02 631.35 139.5 631.37 142.61C631.5 164.14 631.48 185.66 631.37 207.19C631.36 209.96 632.33 210.59 634.88 210.55C643.61 210.43 652.35 210.53 661.09 210.45C662.11 210.45 663.75 211.21 663.97 209.16L663.98 209.17Z" fill="#F4F0E3"/>
<path d="M663.98 209.17C663.76 211.21 662.12 210.45 661.1 210.46C652.36 210.54 643.63 210.43 634.89 210.56C632.35 210.6 631.37 209.96 631.38 207.2C631.49 185.67 631.5 164.15 631.38 142.62C631.36 139.52 632.6 139.04 635.25 139.07C643.52 139.19 651.79 139.25 660.05 139.05C663.3 138.97 664.64 139.9 664.23 143.23C663.98 145.23 664.1 147.27 664.05 149.3C654.83 149.32 645.62 149.44 636.4 149.3C633.37 149.25 632.25 150.17 632.34 153.28C632.53 159.99 632.56 166.72 632.33 173.42C632.21 176.9 633.66 177.61 636.76 177.53C643.94 177.36 651.14 177.72 658.31 177.39C662.44 177.2 663.61 178.43 663.58 182.59C663.52 191.44 662.77 200.33 663.99 209.17H663.98Z" fill="#980E29"/>
<path d="M663.98 209.17C662.76 200.33 663.52 191.45 663.57 182.59C663.6 178.42 662.43 177.19 658.3 177.39C651.13 177.72 643.93 177.36 636.75 177.53C633.65 177.6 632.2 176.89 632.32 173.42C632.56 166.71 632.52 159.99 632.33 153.28C632.24 150.17 633.36 149.25 636.39 149.3C645.6 149.44 654.82 149.32 664.04 149.3C664.85 163.18 664.12 177.06 664.23 190.95C664.28 197.03 664.07 203.11 663.98 209.18V209.17Z" fill="#DC183C"/>
<path d="M603.35 174.7C603.35 187.37 603.24 200.05 603.41 212.72C603.46 216.61 602.1 217.95 598.23 217.9C586.18 217.73 574.13 217.73 562.09 217.9C557.73 217.96 556.37 216.1 556.39 211.97C556.49 187.09 556.48 162.22 556.39 137.34C556.38 133.43 557.68 131.58 561.81 131.63C573.86 131.76 585.91 131.75 597.96 131.63C601.94 131.59 603.5 133.03 603.43 137.17C603.23 149.68 603.36 162.2 603.35 174.72V174.7ZM595.72 210.17C597.44 206.93 596.24 203.51 596.3 200.18C596.74 191.02 596.7 181.86 596.32 172.7C596.34 162.11 596.37 151.52 596.39 140.94C596.86 138.51 595.02 138.97 593.76 138.97C584.44 138.93 575.12 138.95 565.79 138.96C565.02 138.96 564.22 138.96 563.96 139.95C563.92 150.61 563.88 161.27 563.85 171.93C563.34 181.62 563.23 191.32 563.91 201.01C563.87 203.17 563.92 205.35 563.76 207.5C563.6 209.59 564.13 210.57 566.51 210.52C576.24 210.31 585.98 210.28 595.72 210.17Z" fill="#F4F0E3"/>
<path d="M563.85 171.92C563.89 161.26 563.93 150.6 563.96 139.94C573.3 139.94 582.64 139.92 591.98 139.9C593.54 139.9 595.11 139.74 596.38 140.93C596.36 151.52 596.33 162.11 596.31 172.7C588.7 172.73 581.08 172.85 573.47 172.76C570.26 172.72 566.93 173.51 563.84 171.92H563.85Z" fill="#24264A"/>
<path d="M563.85 171.92C566.94 173.51 570.27 172.72 573.48 172.76C581.09 172.85 588.7 172.73 596.32 172.7C596.7 181.86 596.74 191.02 596.3 200.18C586.95 200.15 577.6 200.12 568.25 200.11C567.04 200.11 565.71 199.84 564.82 201.05C564.52 201.03 564.22 201.01 563.92 201C563.24 191.31 563.35 181.61 563.86 171.92H563.85Z" fill="#4E5382"/>
<path d="M564.81 201.05C565.71 199.84 567.03 200.11 568.24 200.11C577.59 200.11 586.94 200.15 596.29 200.18C596.23 203.52 597.44 206.93 595.71 210.18C588.22 208.57 580.64 209.76 573.1 209.49C563.75 209.15 564.81 211.08 564.8 201.06L564.81 201.05Z" fill="#24264A"/>
<path d="M564.81 201.05C564.82 211.07 563.76 209.14 573.11 209.48C580.65 209.76 588.23 208.56 595.72 210.17C585.98 210.27 576.24 210.31 566.51 210.52C564.13 210.57 563.6 209.59 563.76 207.5C563.92 205.34 563.87 203.17 563.91 201.01C564.21 201.01 564.51 201.03 564.81 201.06V201.05Z" fill="#171E2E"/>
<path d="M596.39 140.94C595.12 139.75 593.54 139.9 591.99 139.91C582.65 139.93 573.31 139.94 563.97 139.95C564.23 138.97 565.04 138.96 565.8 138.96C575.12 138.96 584.44 138.93 593.77 138.97C595.03 138.97 596.86 138.51 596.4 140.94H596.39Z" fill="#4E5382"/>
<path d="M607.56 226.83C607.12 226.92 606.97 226.75 607.1 226.32C607.3 226.44 607.46 226.61 607.56 226.83Z" fill="#171E2E"/>
<path d="M693.78 174.96C693.78 162.44 693.89 149.92 693.71 137.41C693.66 133.52 695.01 132.18 698.89 132.24C710.94 132.42 722.99 132.43 735.04 132.24C739.21 132.18 740.7 134.07 740.71 137.83C740.71 162.86 740.71 187.9 740.71 212.93C740.71 215.72 740.04 217.63 736.55 217.83C723.47 218.59 710.38 217.03 697.3 218.29C694.14 218.59 693.75 216.06 693.76 213.44C693.82 200.61 693.79 187.78 693.79 174.95L693.78 174.96ZM700.79 140.96C700.7 147.04 700.49 153.12 700.54 159.19C700.65 173.07 699.91 186.96 700.73 200.84C700.68 202.86 700.79 204.91 700.55 206.91C700.14 210.24 701.48 211.17 704.73 211.09C712.99 210.88 721.27 210.94 729.53 211.07C732.18 211.11 733.42 210.63 733.4 207.52C733.27 185.99 733.29 164.47 733.4 142.94C733.41 140.17 732.44 139.54 729.89 139.58C721.16 139.7 712.42 139.6 703.68 139.68C702.66 139.68 701.02 138.92 700.8 140.97L700.79 140.96Z" fill="#F4F0E3"/>
<path d="M700.79 140.96C701.01 138.92 702.65 139.68 703.67 139.67C712.41 139.59 721.14 139.7 729.88 139.57C732.42 139.53 733.4 140.17 733.39 142.93C733.28 164.46 733.27 185.98 733.39 207.51C733.41 210.61 732.17 211.09 729.52 211.06C721.25 210.94 712.98 210.88 704.72 211.08C701.47 211.16 700.13 210.23 700.54 206.9C700.79 204.9 700.67 202.86 700.72 200.83C709.94 200.81 719.15 200.69 728.37 200.83C731.4 200.88 732.52 199.96 732.43 196.85C732.24 190.14 732.21 183.41 732.44 176.71C732.56 173.23 731.11 172.52 728.01 172.6C720.83 172.77 713.63 172.41 706.46 172.74C702.33 172.93 701.16 171.7 701.19 167.54C701.25 158.69 702 149.8 700.78 140.96H700.79Z" fill="#980E29"/>
<path d="M700.79 140.96C702.01 149.8 701.25 158.68 701.2 167.54C701.17 171.71 702.34 172.94 706.47 172.74C713.64 172.41 720.84 172.77 728.02 172.6C731.12 172.53 732.57 173.24 732.45 176.71C732.21 183.42 732.25 190.14 732.44 196.85C732.53 199.96 731.41 200.88 728.38 200.83C719.17 200.69 709.95 200.81 700.73 200.83C699.92 186.95 700.65 173.07 700.54 159.18C700.49 153.1 700.7 147.02 700.79 140.95V140.96Z" fill="#DC183C"/>
<path d="M761.41 175.43C761.41 162.76 761.52 150.08 761.35 137.41C761.3 133.52 762.66 132.18 766.53 132.23C778.58 132.4 790.63 132.4 802.67 132.23C807.03 132.17 808.39 134.03 808.37 138.16C808.27 163.04 808.28 187.91 808.37 212.79C808.38 216.7 807.08 218.55 802.95 218.5C790.9 218.37 778.85 218.38 766.8 218.5C762.82 218.54 761.26 217.1 761.33 212.96C761.53 200.45 761.4 187.93 761.41 175.41V175.43ZM769.04 139.96C767.32 143.2 768.52 146.62 768.46 149.95C768.02 159.11 768.06 168.27 768.44 177.43C768.42 188.02 768.39 198.61 768.37 209.19C767.9 211.62 769.74 211.16 771 211.16C780.32 211.2 789.64 211.18 798.97 211.17C799.74 211.17 800.54 211.17 800.8 210.18C800.84 199.52 800.88 188.86 800.91 178.2C801.42 168.51 801.53 158.81 800.85 149.12C800.89 146.96 800.84 144.78 801 142.63C801.16 140.54 800.63 139.56 798.25 139.61C788.52 139.82 778.78 139.85 769.04 139.96Z" fill="#F4F0E3"/>
<path d="M800.92 178.21C800.88 188.87 800.84 199.53 800.81 210.19C791.47 210.19 782.13 210.21 772.79 210.23C771.23 210.23 769.66 210.39 768.39 209.2C768.41 198.61 768.44 188.02 768.46 177.43C776.07 177.4 783.69 177.28 791.3 177.37C794.51 177.41 797.84 176.62 800.93 178.21H800.92Z" fill="#24264A"/>
<path d="M800.92 178.21C797.83 176.62 794.5 177.41 791.29 177.37C783.68 177.28 776.07 177.4 768.45 177.43C768.07 168.27 768.03 159.11 768.47 149.95C777.82 149.98 787.17 150.01 796.52 150.02C797.73 150.02 799.06 150.29 799.95 149.08C800.25 149.1 800.55 149.12 800.85 149.13C801.53 158.82 801.42 168.52 800.91 178.21H800.92Z" fill="#4E5382"/>
<path d="M799.95 149.09C799.05 150.3 797.73 150.03 796.52 150.03C787.17 150.03 777.82 149.99 768.47 149.96C768.53 146.62 767.32 143.21 769.05 139.96C776.54 141.57 784.12 140.38 791.66 140.65C801.01 140.99 799.95 139.06 799.96 149.08L799.95 149.09Z" fill="#24264A"/>
<path d="M799.95 149.09C799.94 139.07 801 141 791.65 140.66C784.11 140.38 776.53 141.58 769.04 139.97C778.78 139.87 788.52 139.83 798.25 139.62C800.63 139.57 801.16 140.55 801 142.64C800.84 144.8 800.89 146.97 800.85 149.13C800.55 149.13 800.25 149.11 799.95 149.08V149.09Z" fill="#171E2E"/>
<path d="M768.37 209.2C769.64 210.39 771.22 210.24 772.77 210.23C782.11 210.21 791.45 210.2 800.79 210.19C800.53 211.17 799.72 211.18 798.96 211.18C789.64 211.18 780.32 211.21 770.99 211.17C769.73 211.17 767.9 211.63 768.36 209.2H768.37Z" fill="#4E5382"/>
<path d="M757.2 123.3C757.64 123.21 757.79 123.38 757.66 123.81C757.46 123.69 757.3 123.52 757.2 123.3Z" fill="#171E2E"/>
<path d="M693.78 55.87C693.78 43.35 693.89 30.83 693.71 18.32C693.66 14.43 695.01 13.09 698.89 13.15C710.94 13.33 722.99 13.34 735.04 13.15C739.21 13.09 740.7 14.98 740.71 18.74C740.71 43.77 740.71 68.81 740.71 93.84C740.71 96.63 740.04 98.54 736.55 98.74C723.47 99.5 710.38 97.94 697.3 99.2C694.14 99.5 693.75 96.97 693.76 94.35C693.82 81.52 693.79 68.69 693.79 55.86L693.78 55.87ZM700.79 21.87C700.7 27.95 700.49 34.03 700.54 40.1C700.65 53.98 699.91 67.87 700.73 81.75C700.68 83.77 700.79 85.82 700.55 87.82C700.14 91.15 701.48 92.08 704.73 92C712.99 91.79 721.27 91.85 729.53 91.98C732.18 92.02 733.42 91.54 733.4 88.43C733.27 66.9 733.29 45.38 733.4 23.85C733.41 21.08 732.44 20.45 729.89 20.49C721.16 20.61 712.42 20.51 703.68 20.59C702.66 20.59 701.02 19.83 700.8 21.88L700.79 21.87Z" fill="#F4F0E3"/>
<path d="M700.79 21.87C701.01 19.83 702.65 20.59 703.67 20.58C712.41 20.5 721.14 20.61 729.88 20.48C732.42 20.44 733.4 21.08 733.39 23.84C733.28 45.37 733.27 66.89 733.39 88.42C733.41 91.52 732.17 92 729.52 91.97C721.25 91.85 712.98 91.79 704.72 91.99C701.47 92.07 700.13 91.14 700.54 87.81C700.79 85.81 700.67 83.77 700.72 81.74C709.94 81.72 719.15 81.6 728.37 81.74C731.4 81.79 732.52 80.87 732.43 77.76C732.24 71.05 732.21 64.32 732.44 57.62C732.56 54.14 731.11 53.43 728.01 53.51C720.83 53.68 713.63 53.32 706.46 53.65C702.33 53.84 701.16 52.61 701.19 48.45C701.25 39.6 702 30.71 700.78 21.87H700.79Z" fill="#980E29"/>
<path d="M700.79 21.87C702.01 30.71 701.25 39.59 701.2 48.45C701.17 52.62 702.34 53.85 706.47 53.65C713.64 53.32 720.84 53.68 728.02 53.51C731.12 53.44 732.57 54.15 732.45 57.62C732.21 64.33 732.25 71.05 732.44 77.76C732.53 80.87 731.41 81.79 728.38 81.74C719.17 81.6 709.95 81.72 700.73 81.74C699.92 67.86 700.65 53.98 700.54 40.09C700.49 34.01 700.7 27.93 700.79 21.86V21.87Z" fill="#DC183C"/>
<path d="M761.41 56.34C761.41 43.67 761.52 30.99 761.35 18.32C761.3 14.43 762.66 13.09 766.53 13.14C778.58 13.31 790.63 13.31 802.67 13.14C807.03 13.08 808.39 14.94 808.37 19.07C808.27 43.95 808.28 68.82 808.37 93.7C808.38 97.61 807.08 99.46 802.95 99.41C790.9 99.28 778.85 99.29 766.8 99.41C762.82 99.45 761.26 98.01 761.33 93.87C761.53 81.36 761.4 68.84 761.41 56.32V56.34ZM769.04 20.87C767.32 24.11 768.52 27.53 768.46 30.86C768.02 40.02 768.06 49.18 768.44 58.34C768.42 68.93 768.39 79.52 768.37 90.1C767.9 92.53 769.74 92.07 771 92.07C780.32 92.11 789.64 92.09 798.97 92.08C799.74 92.08 800.54 92.08 800.8 91.09C800.84 80.43 800.88 69.77 800.91 59.11C801.42 49.42 801.53 39.72 800.85 30.03C800.89 27.87 800.84 25.69 801 23.54C801.16 21.45 800.63 20.47 798.25 20.52C788.52 20.73 778.78 20.76 769.04 20.87Z" fill="#F4F0E3"/>
<path d="M800.92 59.12C800.88 69.78 800.84 80.44 800.81 91.1C791.47 91.1 782.13 91.12 772.79 91.14C771.23 91.14 769.66 91.3 768.39 90.11C768.41 79.52 768.44 68.93 768.46 58.34C776.07 58.31 783.69 58.19 791.3 58.28C794.51 58.32 797.84 57.53 800.93 59.12H800.92Z" fill="#24264A"/>
<path d="M800.92 59.12C797.83 57.53 794.5 58.32 791.29 58.28C783.68 58.19 776.07 58.31 768.45 58.34C768.07 49.18 768.03 40.02 768.47 30.86C777.82 30.89 787.17 30.92 796.52 30.93C797.73 30.93 799.06 31.2 799.95 29.99C800.25 30.01 800.55 30.03 800.85 30.04C801.53 39.73 801.42 49.43 800.91 59.12H800.92Z" fill="#4E5382"/>
<path d="M799.95 29.99C799.05 31.2 797.73 30.93 796.52 30.93C787.17 30.93 777.82 30.89 768.47 30.86C768.53 27.52 767.32 24.11 769.05 20.86C776.54 22.47 784.12 21.28 791.66 21.55C801.01 21.89 799.95 19.96 799.96 29.98L799.95 29.99Z" fill="#24264A"/>
<path d="M799.95 29.99C799.94 19.97 801 21.9 791.65 21.56C784.11 21.28 776.53 22.48 769.04 20.87C778.78 20.77 788.52 20.73 798.25 20.52C800.63 20.47 801.16 21.45 801 23.54C800.84 25.7 800.89 27.87 800.85 30.03C800.55 30.03 800.25 30.01 799.95 29.98V29.99Z" fill="#171E2E"/>
<path d="M768.37 90.11C769.64 91.3 771.22 91.15 772.77 91.14C782.11 91.12 791.45 91.11 800.79 91.1C800.53 92.08 799.72 92.09 798.96 92.09C789.64 92.09 780.32 92.12 770.99 92.08C769.73 92.08 767.9 92.54 768.36 90.11H768.37Z" fill="#4E5382"/>
<path d="M757.2 4.21001C757.64 4.12001 757.79 4.29001 757.66 4.72001C757.46 4.60001 757.3 4.43001 757.2 4.21001Z" fill="#171E2E"/>
</g>
<defs>
<clipPath id="clip0_58_875">
<rect width="808.38" height="229.09" fill="white"/>
</clipPath>
</defs>
</svg>
