<?xml version="1.0" encoding="utf-8"?>
<!-- Generator: Adobe Illustrator 27.9.0, SVG Export Plug-In . SVG Version: 6.00 Build 0)  -->
<svg version="1.1" id="Calque_2_00000057109128609430727200000012842387212223792515_"
	 xmlns="http://www.w3.org/2000/svg" xmlns:xlink="http://www.w3.org/1999/xlink" x="0px" y="0px" viewBox="0 0 792.5 992"
	 style="enable-background:new 0 0 792.5 992;" xml:space="preserve">
<style type="text/css">
	.st0{fill:#40AE93;}
</style>
<g id="Calque_1-2">
	<g>
		<path class="st0" d="M667.4,449.7c-18.7,0.6-36.9,1.3-55.5,1.9c23.6,49.3,28.9,100.2,15.1,152.8c-7.8,29.8-21.8,56.4-41.5,80.6
			c-18.9-17.8-37.8-35.5-56.6-53.2c22.8-31.2,32-65.8,26.5-103.9c-4.5-31.5-18.7-58.3-41.7-80.2c-16.6-15.9-36.1-26.9-58.3-33
			c-22.3-6.1-44.7-6.6-67.2-1.6c-22.5,5-42.4,15.2-59.9,30.1c-18.9-17.8-37.7-35.4-56.7-53.3c2.4-2.1,4.5-4.1,6.7-6
			c27.8-23.6,59.5-39.4,95.2-47.1c1.2-0.3,2.5-1,3.3-1.9c35.6-39.4,71.2-78.9,106.8-118.3c0.4-0.5,0.8-1,1.4-1.6
			c-0.8-0.5-1.5-0.9-2.3-1.3c-18.6-9.5-37.2-18.9-55.8-28.5c-1.6-0.9-2.6-0.6-3.9,0.6c-27.8,24.5-55.6,49-83.6,73.3
			c-16,14-39.3,15-56.2,2.7c-24.3-17.6-25.2-53.1-1.8-72c35.6-28.8,71.2-57.5,106.8-86.3c3.2-2.6,6.4-5.2,9.6-7.8
			c19.3-15.3,45.1-16.8,65.9-3.7c48.9,31.1,97.8,62.2,146.7,93.3c12.3,7.9,24.7,15.8,37.1,23.6c19.9,12.6,23.7,37.4,8.3,55.4
			c-28.4,33.2-56.8,66.4-85.3,99.6c-0.5,0.6-1,1.2-1.8,2.2c1.4,0,2.3,0,3.3,0c43.6-1.3,87.2-2.6,130.8-3.8
			c7.3-0.2,14.5-0.8,21.7,1.1c21.2,5.5,35.7,25.3,34,47.2c-1.5,18.7-3.3,37.4-5,56.1c-2.2,23.6-4.3,47.1-6.5,70.7
			s-4.2,47.2-6.5,70.7c-0.6,6.1-1.1,12.4-3,18.2c-6.5,20.5-27,33.4-48.2,30.9c-21.5-2.5-38.4-19.3-40.2-40.7
			c-0.5-6.8,0.4-13.7,1.2-20.5c2.8-25.3,5.8-50.6,8.8-76c2.6-22.4,5.2-44.8,7.9-67.2C667.2,452,667.2,451,667.4,449.7L667.4,449.7z"
			/>
		<path class="st0" d="M598,97.2C598,43.9,641.5,0,694.4,0c54.9,0,98.2,43.2,98.1,97.9c0,53.1-43.9,96.7-97.3,96.6
			C641.5,194.5,598,151,598,97.2L598,97.2z"/>
	</g>
</g>
<g id="Calque_2-2">
	<g id="aO0V5p">
		<g>
			<path class="st0" d="M576.7,695c-39.8,44.3-46.9,37-99.4,0c-14.1,48.3-28.2,94.8-41.3,141.6c-16.4,58.5-47.9,68.8-92.8,28.9
				c-78.7-69.9-157.2-140-235.4-210.5c-47.2-42.5-41.5-73.2,17.3-97.8c42.2-17.6,84.3-35.2,126.4-53c2-0.8,3.1-3.7,4.6-5.6
				c-39-51.7-33.4-53.3,9.1-100.9L576.7,695L576.7,695z M388.1,843.1c16.6-59.8,32.5-112.9,45.5-166.8c2.4-9.9-3.8-26-11.5-33.5
				c-32.7-31.8-67.2-61.8-101.9-91.4c-7.5-6.4-21-13.8-28.1-11.2c-54.9,20.3-108.9,43.1-167.8,66.9
				C214,687.4,298.9,763.3,388.1,843.1L388.1,843.1z"/>
			<path class="st0" d="M98.6,767.6c-19.6,22-37.8,45.7-59.8,65.2c-2.8,2.5-6.9,3.5-11.7,3.8c-15.2,1-29-12.9-26.9-27.7
				c0.4-2.6,1.1-4.9,2.6-6.6c39.5-47.2,80.4-93.1,122.8-137.6l33.6,33.5C139.4,722.8,119.1,744.6,98.6,767.6L98.6,767.6z"/>
			<path class="st0" d="M273.9,913c-19.6,22-37.8,45.7-59.8,65.2c-2.8,2.5-6.9,3.5-11.7,3.8c-15.2,1-29-12.9-26.9-27.7
				c0.4-2.6,1.1-4.9,2.6-6.6c39.4-47.2,80.4-93.1,122.8-137.6l33.6,33.5C314.7,868.2,294.4,890.1,273.9,913L273.9,913z"/>
			<path class="st0" d="M147.7,878.6c-31.1,34.9-60.9,71.5-94.3,103.7c-4.2,4.1-9.7,6.6-15.8,8.4c-19.4,5.8-32.8-8.6-25.8-28.9
				c1.2-3.6,2.9-6.8,5.2-9.5c63.4-73.9,128.3-146.7,194.6-218l32.6,34.6C212.1,807.4,180.2,842.2,147.7,878.6L147.7,878.6z"/>
		</g>
	</g>
</g>
</svg>
