<?xml version="1.0" encoding="utf-8"?>
<!-- Generator: Adobe Illustrator 27.9.0, SVG Export Plug-In . SVG Version: 6.00 Build 0)  -->
<svg version="1.1" id="Calque_2_00000129888735841491485810000009951717225725861768_"
	 xmlns="http://www.w3.org/2000/svg" xmlns:xlink="http://www.w3.org/1999/xlink" x="0px" y="0px" viewBox="0 0 369.5 384"
	 style="enable-background:new 0 0 369.5 384;" xml:space="preserve">
<style type="text/css">
	.st0{fill:#40AE93;}
</style>
<g id="Calque_1-2">
	<path class="st0" d="M4,384c-3-1.6-4-4-3.9-7.4c0.4-14.1,0-28.3,1-42.3c1.1-14.8,6.9-28.2,15-40.7c1.3-1.9,2.1-4.5,2.1-6.8
		c0.1-29.5,0.1-59,0.1-88.5c0-2.5-0.7-3.9-3-5.2c-8.4-4.9-12.9-12.4-13-22.2c-0.1-15-0.1-30,0-45c0.1-10,4.9-17.3,13.3-22.5
		c1.2-0.8,2.5-2.4,2.6-3.8c2.1-23,19.2-39.1,42.2-39.4c3.1,0,4.9-1.1,6.8-3.4c5.6-6.4,11.5-12.5,17.4-18.6c3.6-3.7,6.8-3.9,9.4-1.1
		c2.5,2.6,1.9,6-1.8,9.3c-16.3,14.6-28.5,32-36.6,52.3c-25.1,62.8-0.6,135.3,57.5,170c79.9,47.9,183.2,5.3,206.1-85
		c19.7-78-31.3-156.7-110.7-170.5c-34.1-5.9-66.1,0.3-95.8,18c-0.8,0.5-1.5,1-2.3,1.3c-3,1.4-6,0.7-7.6-1.9c-1.7-2.7-1.1-6.1,2-7.8
		c8-4.3,16-8.8,24.3-12.4c13.5-5.7,27.8-9,42.4-10.1c0.9-0.1,1.7-0.4,2.5-0.6c7,0,14,0,21,0c0.8,0.2,1.7,0.5,2.5,0.6
		c43,4.2,77.9,23.4,104.9,56.9c1.6,2,3.1,2.7,5.6,2.7c23-0.2,40.9,16.2,42.7,39.1c0.2,2.1,0.9,3.2,2.8,4.3
		c8.5,4.9,13.2,12.4,13.3,22.4c0.1,15,0.1,30,0,45c-0.1,9.9-4.8,17.4-13.4,22.3c-2.1,1.2-2.6,2.4-2.6,4.7c0.1,29.7,0,59.5,0.1,89.2
		c0,2,0.7,4.2,1.8,5.8c8.4,12.7,14.3,26.5,15.4,41.7c1,13.9,0.6,28,1,41.9c0.1,3.4-1,5.8-3.9,7.4L4,384L4,384z M290.9,372.6
		c2-14.1-3.7-20.9-17.6-20.8c-44,0.4-88,0.2-132,0.1c-1.5,0-3,0-4.5-0.1c-2.9-0.4-4.5-2.1-4.7-5c-0.2-3,1.2-5.1,4.2-5.8
		c1.4-0.3,3-0.3,4.5-0.3c25.5,0,51,0,76.5,0c19.9,0,39.8,0,59.6,0c13.8,0,24,8.9,25.5,22c0.4,3.2,0,6.4,0,9.8h55.8
		c0-9.4,0.1-18.6,0-27.8c-0.2-16.8-5.3-32.2-14.8-46c-8-11.6-18.2-20.7-30.8-27.1c-1.1,1-2.1,1.8-3,2.6
		c-13.1,11.9-27.4,22.1-43.1,30.2c-37.9,19.6-77.6,26-119.5,16.4c-33.3-7.6-62.1-23.8-87.2-46.6c-2.2-2-3.8-2.3-6.4-0.7
		c-18,10.9-30.6,26.1-37.5,46c-6,17.1-4.1,34.8-4.2,52.4c0,0.2,0.3,0.4,0.4,0.5H67c0-2.4,0-4.5,0-6.6c0.1-14.3,10.1-24.7,24.3-25.1
		c7.5-0.2,15-0.1,22.5,0c4.2,0,6.6,2.1,6.7,5.5c0.1,3.5-2.4,5.7-6.8,5.7c-6.5,0.1-13,0.3-19.5,0c-11.8-0.6-18.3,7.4-15.4,20.7
		L290.9,372.6L290.9,372.6z M187.2,314.1c4.4-0.4,11.8-0.7,19.1-1.7c30.9-4.4,58.3-17,82.9-35.9c6.9-5.3,13.3-11.3,19.7-17.3
		c3.9-3.7,3.5-9.8-0.3-13c-3.5-3-6.7-2.2-10.7,2.1c-40.4,43.9-89.9,60.2-148.2,47.4c-31.6-6.9-57.7-23.8-78.8-48.3
		c-2-2.3-4.1-3.1-6.9-2.3c-6.5,1.8-8.3,10.1-2.9,15.1c6.2,5.8,12.5,11.5,19.2,16.7C110.9,300.4,145.4,313.5,187.2,314.1L187.2,314.1
		z M38.5,111.6c-3.4,0-7.3-0.2-11.1,0c-7.7,0.4-13.7,6.3-13.8,14.1c-0.2,15.2-0.1,30.4,0,45.7c0.1,6.1,4,11.7,9.9,13.1
		c4.8,1.1,9.9,0.9,14.2,1.2c-1-12.9-2.9-25.1-2.8-37.2C35.1,136.2,37.2,124.1,38.5,111.6z M329.9,111.9c6.3,24.4,6.4,48.8,0.8,73.4
		c4.5,0,8.2,0.2,12,0c7-0.4,13.1-6.4,13.2-13.4c0.2-15.6,0.2-31.2,0-46.8c-0.1-6.2-5-12.1-11-13C340,111.3,335.1,111.9,329.9,111.9z
		 M29.9,196.9v79.8c6.4-4.7,12.6-9.3,18.8-13.9c-4.4-13.7-1.5-20.9,11.7-28.7c-0.6-0.9-1.2-1.9-1.7-2.8c-4.4-8.4-8.8-16.8-13.1-25.2
		c-1.5-3-2-7.5-4.4-9c-2.5-1.6-6.8-0.4-10.3-0.4C30.6,196.6,30.4,196.7,29.9,196.9L29.9,196.9z M339.7,276.6v-79.8h-11.4
		c-6.2,12.7-12.2,24.9-18.3,37.3c12.4,7.2,14.7,13.3,10.6,28.7C326.9,267.3,333.2,271.8,339.7,276.6L339.7,276.6z M29.9,100.2
		c4,0,7.7,0.1,11.4-0.1c0.9,0,2.1-0.9,2.4-1.6c4.1-8.8,8-17.6,11.9-26.3C43.8,71.3,30,85.8,29.9,100.2z M339.6,100.2
		c-0.2-17.3-17-29-25.8-28c3.9,8.7,7.9,17.5,12,26.3c0.3,0.7,1.4,1.6,2.1,1.6C331.6,100.3,335.5,100.2,339.6,100.2L339.6,100.2z"/>
	<path class="st0" d="M67.7,153.8c0-12.8-0.2-25.5,0.2-38.2c0.1-3.6,1.3-7.8,3.4-10.7c15.1-21.5,36-35.6,60.7-43.7
		c46.7-15.4,91.8-11.7,134.4,13.8c12.8,7.7,23.7,17.6,32,30.1c2,2.9,3.2,6.9,3.3,10.4c0.3,25.7,0.3,51.5,0,77.2
		c0,3.6-1.4,7.7-3.5,10.7c-15.3,21.6-36.3,35.6-61.1,43.7c-47.4,15.4-92.9,11.3-135.6-15.1c-12-7.4-22.3-17-30.2-28.8
		c-2-3-3.3-7.1-3.4-10.7C67.4,179.5,67.6,166.6,67.7,153.8L67.7,153.8z M78.9,153.7c0,12.4-0.1,24.8,0.1,37.1c0.1,2.5,1,5.4,2.5,7.5
		c9.3,12.8,21.2,22.6,35.2,29.7c37.4,19.1,76.2,21.5,115.9,8.7c22.5-7.3,41.7-19.7,55.9-39.1c1.2-1.7,2-4.1,2-6.1
		c0.1-24.9,0.1-49.7,0-74.6c0-2.3-0.9-4.9-2.3-6.8c-7.4-10.4-16.7-18.9-27.6-25.5C222.7,61.7,182.3,58,140.4,70.2
		C117,77,96.9,89.4,81.8,109.1c-2,2.6-3,5.2-2.9,8.6C79,129.7,78.9,141.7,78.9,153.7L78.9,153.7z"/>
	<path class="st0" d="M188.7,84c20.9,0.4,44.8,4.9,66.3,18c4.3,2.6,8.4,5.9,12.3,9.1c3.4,2.7,3.8,6.1,1.5,8.8
		c-2.2,2.5-5.5,2.5-8.6-0.2c-17-14.8-37.4-21.1-59.3-23.5c-23.2-2.6-45.9-0.1-67.6,8.8c-8.9,3.6-16.9,8.5-24.1,14.8
		c-3.5,3.1-7.7,2.4-9.4-1.3c-1.4-3-0.2-5.2,2.1-7.3c10.8-9.7,23.5-16,37.2-20.3C153.9,86.1,169.2,84,188.7,84z"/>
</g>
</svg>
