<svg width="113" height="199" viewBox="0 0 113 199" fill="none" xmlns="http://www.w3.org/2000/svg">
    <g clip-path="url(#clip0_60_1058)">
    <path d="M97.06 4.5H14.99C9.19653 4.5 4.5 9.19653 4.5 14.99V183.27C4.5 189.063 9.19653 193.76 14.99 193.76H97.06C102.853 193.76 107.55 189.063 107.55 183.27V14.99C107.55 9.19653 102.853 4.5 97.06 4.5Z" stroke="#B7B3A7" stroke-width="9" stroke-miterlimit="10"/>
    <path d="M31.57 21.5601H14.91V183.24H31.57V21.5601Z" stroke="#B7B3A7" stroke-width="3" stroke-miterlimit="10"/>
    <path d="M41.41 20.0699H33.04V23.0499H41.41V20.0699Z" fill="#B3B3B3"/>
    <path d="M41.41 39.89H33.04V42.87H41.41V39.89Z" fill="#B3B3B3"/>
    <path d="M41.41 59.71H33.04V62.69H41.41V59.71Z" fill="#B3B3B3"/>
    <path d="M41.41 78.92H33.04V81.9H41.41V78.92Z" fill="#B3B3B3"/>
    <path d="M41.41 99.86H33.04V102.84H41.41V99.86Z" fill="#B3B3B3"/>
    <path d="M41.41 120.67H33.04V123.65H41.41V120.67Z" fill="#B3B3B3"/>
    <path d="M41.41 140.99H33.04V143.97H41.41V140.99Z" fill="#B3B3B3"/>
    <path d="M41.41 160.45H33.04V163.43H41.41V160.45Z" fill="#B3B3B3"/>
    <path d="M41.41 181.74H33.04V184.72H41.41V181.74Z" fill="#B3B3B3"/>
    <path d="M59.9916 17.8028V26.53H58.9348V18.9107H58.8836L56.753 20.3255V19.2516L58.9348 17.8028H59.9916ZM65.3481 26.6493C64.7061 26.6493 64.1592 26.4746 63.7075 26.1252C63.2558 25.7729 62.9106 25.263 62.672 24.5954C62.4334 23.9249 62.314 23.1153 62.314 22.1664C62.314 21.2232 62.4334 20.4178 62.672 19.7502C62.9135 19.0797 63.2601 18.5684 63.7118 18.2161C64.1663 17.861 64.7118 17.6834 65.3481 17.6834C65.9845 17.6834 66.5285 17.861 66.9802 18.2161C67.4348 18.5684 67.7814 19.0797 68.02 19.7502C68.2615 20.4178 68.3822 21.2232 68.3822 22.1664C68.3822 23.1153 68.2629 23.9249 68.0243 24.5954C67.7856 25.263 67.4405 25.7729 66.9888 26.1252C66.537 26.4746 65.9902 26.6493 65.3481 26.6493ZM65.3481 25.7118C65.9845 25.7118 66.4788 25.405 66.8311 24.7914C67.1834 24.1778 67.3595 23.3028 67.3595 22.1664C67.3595 21.4107 67.2785 20.7672 67.1166 20.236C66.9575 19.7047 66.7274 19.2999 66.4263 19.0215C66.128 18.7431 65.7686 18.6039 65.3481 18.6039C64.7174 18.6039 64.2245 18.915 63.8694 19.5371C63.5143 20.1564 63.3368 21.0329 63.3368 22.1664C63.3368 22.9221 63.4163 23.5641 63.5754 24.0925C63.7345 24.6209 63.9632 25.0229 64.2615 25.2985C64.5626 25.5741 64.9248 25.7118 65.3481 25.7118ZM74.4504 24.8937V24.4334C74.4504 24.1153 74.5157 23.8241 74.6464 23.5599C74.7799 23.2928 74.9731 23.0797 75.226 22.9207C75.4817 22.7587 75.7913 22.6778 76.1549 22.6778C76.5243 22.6778 76.8339 22.7587 77.0839 22.9207C77.3339 23.0797 77.5228 23.2928 77.6507 23.5599C77.7785 23.8241 77.8424 24.1153 77.8424 24.4334V24.8937C77.8424 25.2118 77.7771 25.5045 77.6464 25.7715C77.5186 26.0357 77.3282 26.2488 77.0754 26.4107C76.8254 26.5698 76.5186 26.6493 76.1549 26.6493C75.7856 26.6493 75.4746 26.5698 75.2217 26.4107C74.9689 26.2488 74.7771 26.0357 74.6464 25.7715C74.5157 25.5045 74.4504 25.2118 74.4504 24.8937ZM75.3197 24.4334V24.8937C75.3197 25.1579 75.3822 25.3951 75.5072 25.6053C75.6322 25.8127 75.8481 25.9164 76.1549 25.9164C76.4532 25.9164 76.6635 25.8127 76.7856 25.6053C76.9106 25.3951 76.9731 25.1579 76.9731 24.8937V24.4334C76.9731 24.1692 76.9135 23.9334 76.7942 23.7261C76.6748 23.5158 76.4618 23.4107 76.1549 23.4107C75.8567 23.4107 75.6422 23.5158 75.5115 23.7261C75.3836 23.9334 75.3197 24.1692 75.3197 24.4334ZM70.1038 19.8993V19.4391C70.1038 19.1209 70.1692 18.8297 70.2998 18.5655C70.4334 18.2985 70.6265 18.0854 70.8794 17.9263C71.1351 17.7644 71.4447 17.6834 71.8084 17.6834C72.1777 17.6834 72.4873 17.7644 72.7373 17.9263C72.9873 18.0854 73.1763 18.2985 73.3041 18.5655C73.4319 18.8297 73.4959 19.1209 73.4959 19.4391V19.8993C73.4959 20.2175 73.4305 20.5101 73.2998 20.7772C73.172 21.0414 72.9817 21.2545 72.7288 21.4164C72.4788 21.5755 72.172 21.655 71.8084 21.655C71.439 21.655 71.128 21.5755 70.8751 21.4164C70.6223 21.2545 70.4305 21.0414 70.2998 20.7772C70.1692 20.5101 70.1038 20.2175 70.1038 19.8993ZM70.9731 19.4391V19.8993C70.9731 20.1636 71.0356 20.4008 71.1606 20.611C71.2856 20.8184 71.5015 20.9221 71.8084 20.9221C72.1067 20.9221 72.3169 20.8184 72.439 20.611C72.564 20.4008 72.6265 20.1636 72.6265 19.8993V19.4391C72.6265 19.1749 72.5669 18.9391 72.4476 18.7317C72.3282 18.5215 72.1152 18.4164 71.8084 18.4164C71.5101 18.4164 71.2956 18.5215 71.1649 18.7317C71.037 18.9391 70.9731 19.1749 70.9731 19.4391ZM70.4277 26.53L76.4277 17.8028H77.3993L71.3993 26.53H70.4277Z" fill="#FF8F8F"/>
    <path d="M58.1461 64.96L62.0495 57.2384V57.1702H57.5495V56.2327H63.1405V57.2213L59.2541 64.96H58.1461ZM64.7459 63.7668L64.6777 64.227C64.6294 64.5509 64.5556 64.8975 64.4562 65.2668C64.3596 65.6361 64.2587 65.9841 64.1536 66.3108C64.0485 66.6375 63.9618 66.8975 63.8937 67.0906H63.1266C63.1635 66.9088 63.2118 66.6688 63.2715 66.3705C63.3312 66.0722 63.3908 65.7384 63.4505 65.3691C63.513 65.0026 63.5641 64.6276 63.6039 64.2441L63.655 63.7668H64.7459ZM69.1437 65.0793C68.6437 65.0793 68.1934 64.9798 67.7928 64.781C67.3922 64.5821 67.0712 64.3094 66.8297 63.9628C66.5883 63.6162 66.4562 63.2213 66.4334 62.7781H67.4562C67.4959 63.173 67.6749 63.4997 67.9931 63.7583C68.3141 64.0139 68.6976 64.1418 69.1437 64.1418C69.5016 64.1418 69.8198 64.058 70.0982 63.8904C70.3794 63.7227 70.5996 63.4926 70.7587 63.2C70.9206 62.9046 71.0016 62.5708 71.0016 62.1986C71.0016 61.8179 70.9178 61.4784 70.7502 61.1801C70.5854 60.879 70.3581 60.6418 70.0684 60.4685C69.7786 60.2952 69.4476 60.2071 69.0755 60.2043C68.8084 60.2014 68.5343 60.2426 68.253 60.3279C67.9718 60.4102 67.7402 60.5168 67.5584 60.6475L66.5698 60.5281L67.0982 56.2327H71.6323V57.1702H67.9846L67.6777 59.7441H67.7289C67.9079 59.602 68.1323 59.4841 68.4022 59.3904C68.6721 59.2966 68.9533 59.2497 69.2459 59.2497C69.78 59.2497 70.2559 59.3776 70.6735 59.6333C71.0939 59.8861 71.4235 60.2327 71.6621 60.673C71.9036 61.1134 72.0243 61.6162 72.0243 62.1816C72.0243 62.7384 71.8993 63.2355 71.6493 63.673C71.4022 64.1077 71.0613 64.4514 70.6266 64.7043C70.1919 64.9543 69.6976 65.0793 69.1437 65.0793ZM78.166 63.3236V62.8634C78.166 62.5452 78.2314 62.254 78.362 61.9898C78.4956 61.7227 78.6888 61.5097 78.9416 61.3506C79.1973 61.1887 79.5069 61.1077 79.8706 61.1077C80.2399 61.1077 80.5495 61.1887 80.7995 61.3506C81.0495 61.5097 81.2385 61.7227 81.3663 61.9898C81.4941 62.254 81.5581 62.5452 81.5581 62.8634V63.3236C81.5581 63.6418 81.4927 63.9344 81.362 64.2014C81.2342 64.4656 81.0439 64.6787 80.791 64.8406C80.541 64.9997 80.2342 65.0793 79.8706 65.0793C79.5013 65.0793 79.1902 64.9997 78.9373 64.8406C78.6845 64.6787 78.4927 64.4656 78.362 64.2014C78.2314 63.9344 78.166 63.6418 78.166 63.3236ZM79.0353 62.8634V63.3236C79.0353 63.5878 79.0978 63.825 79.2228 64.0352C79.3478 64.2426 79.5638 64.3463 79.8706 64.3463C80.1689 64.3463 80.3791 64.2426 80.5013 64.0352C80.6263 63.825 80.6888 63.5878 80.6888 63.3236V62.8634C80.6888 62.5992 80.6291 62.3634 80.5098 62.156C80.3905 61.9458 80.1774 61.8406 79.8706 61.8406C79.5723 61.8406 79.3578 61.9458 79.2271 62.156C79.0993 62.3634 79.0353 62.5992 79.0353 62.8634ZM73.8194 58.3293V57.8691C73.8194 57.5509 73.8848 57.2597 74.0155 56.9955C74.149 56.7284 74.3422 56.5154 74.595 56.3563C74.8507 56.1943 75.1603 56.1134 75.524 56.1134C75.8933 56.1134 76.203 56.1943 76.453 56.3563C76.703 56.5154 76.8919 56.7284 77.0197 56.9955C77.1476 57.2597 77.2115 57.5509 77.2115 57.8691V58.3293C77.2115 58.6475 77.1461 58.9401 77.0155 59.2071C76.8876 59.4713 76.6973 59.6844 76.4444 59.8463C76.1944 60.0054 75.8876 60.085 75.524 60.085C75.1547 60.085 74.8436 60.0054 74.5907 59.8463C74.3379 59.6844 74.1461 59.4713 74.0155 59.2071C73.8848 58.9401 73.8194 58.6475 73.8194 58.3293ZM74.6888 57.8691V58.3293C74.6888 58.5935 74.7513 58.8307 74.8763 59.0409C75.0013 59.2483 75.2172 59.352 75.524 59.352C75.8223 59.352 76.0325 59.2483 76.1547 59.0409C76.2797 58.8307 76.3422 58.5935 76.3422 58.3293V57.8691C76.3422 57.6048 76.2825 57.3691 76.1632 57.1617C76.0439 56.9514 75.8308 56.8463 75.524 56.8463C75.2257 56.8463 75.0112 56.9514 74.8805 57.1617C74.7527 57.3691 74.6888 57.6048 74.6888 57.8691ZM74.1433 64.96L80.1433 56.2327H81.1149L75.1149 64.96H74.1433Z" fill="#FFA1A1"/>
    <path d="M60.6107 106.969C60.1107 106.969 59.6604 106.87 59.2598 106.671C58.8593 106.472 58.5382 106.199 58.2968 105.853C58.0553 105.506 57.9232 105.111 57.9005 104.668H58.9232C58.963 105.063 59.1419 105.39 59.4601 105.648C59.7811 105.904 60.1647 106.032 60.6107 106.032C60.9686 106.032 61.2868 105.948 61.5652 105.78C61.8465 105.613 62.0666 105.383 62.2257 105.09C62.3877 104.795 62.4686 104.461 62.4686 104.089C62.4686 103.708 62.3848 103.368 62.2172 103.07C62.0524 102.769 61.8252 102.532 61.5354 102.358C61.2456 102.185 60.9147 102.097 60.5425 102.094C60.2755 102.091 60.0013 102.133 59.7201 102.218C59.4388 102.3 59.2073 102.407 59.0255 102.537L58.0368 102.418L58.5652 98.1227H63.0993V99.0602H59.4516L59.1448 101.634H59.1959C59.3749 101.492 59.5993 101.374 59.8692 101.28C60.1391 101.187 60.4203 101.14 60.713 101.14C61.247 101.14 61.7229 101.268 62.1405 101.523C62.561 101.776 62.8905 102.123 63.1291 102.563C63.3706 103.003 63.4914 103.506 63.4914 104.072C63.4914 104.628 63.3664 105.126 63.1164 105.563C62.8692 105.998 62.5283 106.341 62.0936 106.594C61.659 106.844 61.1647 106.969 60.6107 106.969ZM69.633 105.214V104.753C69.633 104.435 69.6984 104.144 69.8291 103.88C69.9626 103.613 70.1558 103.4 70.4086 103.241C70.6643 103.079 70.974 102.998 71.3376 102.998C71.7069 102.998 72.0166 103.079 72.2666 103.241C72.5166 103.4 72.7055 103.613 72.8333 103.88C72.9612 104.144 73.0251 104.435 73.0251 104.753V105.214C73.0251 105.532 72.9598 105.824 72.8291 106.091C72.7012 106.356 72.5109 106.569 72.258 106.731C72.008 106.89 71.7012 106.969 71.3376 106.969C70.9683 106.969 70.6572 106.89 70.4044 106.731C70.1515 106.569 69.9598 106.356 69.8291 106.091C69.6984 105.824 69.633 105.532 69.633 105.214ZM70.5024 104.753V105.214C70.5024 105.478 70.5649 105.715 70.6899 105.925C70.8149 106.133 71.0308 106.236 71.3376 106.236C71.6359 106.236 71.8461 106.133 71.9683 105.925C72.0933 105.715 72.1558 105.478 72.1558 105.214V104.753C72.1558 104.489 72.0961 104.253 71.9768 104.046C71.8575 103.836 71.6444 103.731 71.3376 103.731C71.0393 103.731 70.8248 103.836 70.6941 104.046C70.5663 104.253 70.5024 104.489 70.5024 104.753ZM65.2865 100.219V99.7591C65.2865 99.4409 65.3518 99.1497 65.4825 98.8855C65.616 98.6184 65.8092 98.4054 66.062 98.2463C66.3177 98.0844 66.6274 98.0034 66.991 98.0034C67.3603 98.0034 67.67 98.0844 67.92 98.2463C68.17 98.4054 68.3589 98.6184 68.4867 98.8855C68.6146 99.1497 68.6785 99.4409 68.6785 99.7591V100.219C68.6785 100.537 68.6132 100.83 68.4825 101.097C68.3546 101.361 68.1643 101.574 67.9115 101.736C67.6615 101.895 67.3546 101.975 66.991 101.975C66.6217 101.975 66.3106 101.895 66.0578 101.736C65.8049 101.574 65.6132 101.361 65.4825 101.097C65.3518 100.83 65.2865 100.537 65.2865 100.219ZM66.1558 99.7591V100.219C66.1558 100.483 66.2183 100.721 66.3433 100.931C66.4683 101.138 66.6842 101.242 66.991 101.242C67.2893 101.242 67.4995 101.138 67.6217 100.931C67.7467 100.721 67.8092 100.483 67.8092 100.219V99.7591C67.8092 99.4949 67.7495 99.2591 67.6302 99.0517C67.5109 98.8415 67.2978 98.7363 66.991 98.7363C66.6927 98.7363 66.4782 98.8415 66.3475 99.0517C66.2197 99.2591 66.1558 99.4949 66.1558 99.7591ZM65.6103 106.85L71.6103 98.1227H72.5819L66.5819 106.85H65.6103Z" fill="#FFB8B8"/>
    <path d="M58.8334 147.31V146.543L61.7141 143.39C62.0522 143.02 62.3306 142.699 62.5493 142.427C62.7681 142.151 62.93 141.892 63.0351 141.651C63.1431 141.407 63.197 141.151 63.197 140.884C63.197 140.577 63.1232 140.311 62.9754 140.087C62.8306 139.863 62.6317 139.689 62.3789 139.567C62.126 139.445 61.8419 139.384 61.5266 139.384C61.1914 139.384 60.8987 139.454 60.6487 139.593C60.4016 139.729 60.2098 139.921 60.0735 140.168C59.9399 140.415 59.8732 140.705 59.8732 141.037H58.8675C58.8675 140.526 58.9854 140.077 59.2212 139.691C59.457 139.304 59.778 139.003 60.1843 138.787C60.5933 138.571 61.0522 138.463 61.5607 138.463C62.072 138.463 62.5252 138.571 62.92 138.787C63.3149 139.003 63.6246 139.294 63.849 139.661C64.0735 140.027 64.1857 140.435 64.1857 140.884C64.1857 141.205 64.1274 141.519 64.011 141.826C63.8973 142.13 63.6985 142.469 63.4144 142.844C63.1331 143.216 62.7425 143.671 62.2425 144.208L60.2823 146.304V146.373H64.3391V147.31H58.8334ZM67.6161 146.117L67.5479 146.577C67.4996 146.901 67.4257 147.248 67.3263 147.617C67.2297 147.986 67.1289 148.334 67.0237 148.661C66.9186 148.988 66.832 149.248 66.7638 149.441H65.9968C66.0337 149.259 66.082 149.019 66.1416 148.721C66.2013 148.422 66.261 148.088 66.3206 147.719C66.3831 147.353 66.4343 146.978 66.474 146.594L66.5252 146.117H67.6161ZM72.0138 147.429C71.5138 147.429 71.0635 147.33 70.6629 147.131C70.2624 146.932 69.9414 146.659 69.6999 146.313C69.4584 145.966 69.3263 145.571 69.3036 145.128H70.3263C70.3661 145.523 70.545 145.85 70.8632 146.108C71.1843 146.364 71.5678 146.492 72.0138 146.492C72.3718 146.492 72.6899 146.408 72.9683 146.24C73.2496 146.073 73.4698 145.843 73.6289 145.55C73.7908 145.255 73.8718 144.921 73.8718 144.549C73.8718 144.168 73.7879 143.829 73.6203 143.53C73.4556 143.229 73.2283 142.992 72.9385 142.819C72.6487 142.645 72.3178 142.557 71.9456 142.554C71.6786 142.552 71.4044 142.593 71.1232 142.678C70.8419 142.76 70.6104 142.867 70.4286 142.998L69.4399 142.878L69.9683 138.583H74.5024V139.52H70.8547L70.5479 142.094H70.599C70.778 141.952 71.0024 141.834 71.2723 141.74C71.5422 141.647 71.8235 141.6 72.1161 141.6C72.6502 141.6 73.126 141.728 73.5436 141.983C73.9641 142.236 74.2936 142.583 74.5323 143.023C74.7737 143.463 74.8945 143.966 74.8945 144.532C74.8945 145.088 74.7695 145.586 74.5195 146.023C74.2723 146.458 73.9314 146.802 73.4968 147.054C73.0621 147.304 72.5678 147.429 72.0138 147.429ZM81.0362 145.674V145.213C81.0362 144.895 81.1015 144.604 81.2322 144.34C81.3657 144.073 81.5589 143.86 81.8117 143.701C82.0674 143.539 82.3771 143.458 82.7407 143.458C83.11 143.458 83.4197 143.539 83.6697 143.701C83.9197 143.86 84.1086 144.073 84.2365 144.34C84.3643 144.604 84.4282 144.895 84.4282 145.213V145.674C84.4282 145.992 84.3629 146.284 84.2322 146.552C84.1044 146.816 83.914 147.029 83.6612 147.191C83.4112 147.35 83.1044 147.429 82.7407 147.429C82.3714 147.429 82.0603 147.35 81.8075 147.191C81.5546 147.029 81.3629 146.816 81.2322 146.552C81.1015 146.284 81.0362 145.992 81.0362 145.674ZM81.9055 145.213V145.674C81.9055 145.938 81.968 146.175 82.093 146.385C82.218 146.593 82.4339 146.696 82.7407 146.696C83.039 146.696 83.2492 146.593 83.3714 146.385C83.4964 146.175 83.5589 145.938 83.5589 145.674V145.213C83.5589 144.949 83.4992 144.713 83.3799 144.506C83.2606 144.296 83.0475 144.191 82.7407 144.191C82.4424 144.191 82.2279 144.296 82.0973 144.506C81.9694 144.713 81.9055 144.949 81.9055 145.213ZM76.6896 140.679V140.219C76.6896 139.901 76.7549 139.61 76.8856 139.346C77.0191 139.079 77.2123 138.865 77.4651 138.706C77.7208 138.544 78.0305 138.463 78.3941 138.463C78.7634 138.463 79.0731 138.544 79.3231 138.706C79.5731 138.865 79.762 139.079 79.8899 139.346C80.0177 139.61 80.0816 139.901 80.0816 140.219V140.679C80.0816 140.998 80.0163 141.29 79.8856 141.557C79.7578 141.821 79.5674 142.034 79.3146 142.196C79.0646 142.356 78.7578 142.435 78.3941 142.435C78.0248 142.435 77.7137 142.356 77.4609 142.196C77.208 142.034 77.0163 141.821 76.8856 141.557C76.7549 141.29 76.6896 140.998 76.6896 140.679ZM77.5589 140.219V140.679C77.5589 140.944 77.6214 141.181 77.7464 141.391C77.8714 141.598 78.0873 141.702 78.3941 141.702C78.6924 141.702 78.9026 141.598 79.0248 141.391C79.1498 141.181 79.2123 140.944 79.2123 140.679V140.219C79.2123 139.955 79.1526 139.719 79.0333 139.512C78.914 139.302 78.7009 139.196 78.3941 139.196C78.0958 139.196 77.8813 139.302 77.7507 139.512C77.6228 139.719 77.5589 139.955 77.5589 140.219ZM77.0134 147.31L83.0134 138.583H83.985L77.985 147.31H77.0134Z" fill="#FFD9D9"/>
    <path d="M61.68 187.359C61.0379 187.359 60.4911 187.185 60.0394 186.835C59.5877 186.483 59.2425 185.973 59.0039 185.305C58.7652 184.635 58.6459 183.825 58.6459 182.876C58.6459 181.933 58.7652 181.128 59.0039 180.46C59.2453 179.79 59.5919 179.278 60.0436 178.926C60.4982 178.571 61.0436 178.393 61.68 178.393C62.3164 178.393 62.8604 178.571 63.3121 178.926C63.7666 179.278 64.1132 179.79 64.3519 180.46C64.5933 181.128 64.7141 181.933 64.7141 182.876C64.7141 183.825 64.5948 184.635 64.3561 185.305C64.1175 185.973 63.7723 186.483 63.3206 186.835C62.8689 187.185 62.322 187.359 61.68 187.359ZM61.68 186.422C62.3164 186.422 62.8107 186.115 63.1629 185.501C63.5152 184.888 63.6914 184.013 63.6914 182.876C63.6914 182.121 63.6104 181.477 63.4485 180.946C63.2894 180.415 63.0593 180.01 62.7581 179.731C62.4598 179.453 62.1004 179.314 61.68 179.314C61.0493 179.314 60.5564 179.625 60.2013 180.247C59.8462 180.866 59.6686 181.743 59.6686 182.876C59.6686 183.632 59.7482 184.274 59.9073 184.802C60.0664 185.331 60.295 185.733 60.5933 186.008C60.8945 186.284 61.2567 186.422 61.68 186.422ZM70.7823 185.604V185.143C70.7823 184.825 70.8476 184.534 70.9783 184.27C71.1118 184.003 71.305 183.79 71.5578 183.631C71.8135 183.469 72.1232 183.388 72.4868 183.388C72.8561 183.388 73.1658 183.469 73.4158 183.631C73.6658 183.79 73.8547 184.003 73.9825 184.27C74.1104 184.534 74.1743 184.825 74.1743 185.143V185.604C74.1743 185.922 74.109 186.214 73.9783 186.481C73.8504 186.746 73.6601 186.959 73.4073 187.121C73.1573 187.28 72.8504 187.359 72.4868 187.359C72.1175 187.359 71.8064 187.28 71.5536 187.121C71.3007 186.959 71.109 186.746 70.9783 186.481C70.8476 186.214 70.7823 185.922 70.7823 185.604ZM71.6516 185.143V185.604C71.6516 185.868 71.7141 186.105 71.8391 186.315C71.9641 186.523 72.18 186.626 72.4868 186.626C72.7851 186.626 72.9953 186.523 73.1175 186.315C73.2425 186.105 73.305 185.868 73.305 185.604V185.143C73.305 184.879 73.2453 184.643 73.126 184.436C73.0067 184.226 72.7936 184.121 72.4868 184.121C72.1885 184.121 71.974 184.226 71.8433 184.436C71.7155 184.643 71.6516 184.879 71.6516 185.143ZM66.4357 180.609V180.149C66.4357 179.831 66.501 179.54 66.6317 179.276C66.7652 179.008 66.9584 178.795 67.2112 178.636C67.4669 178.474 67.7766 178.393 68.1402 178.393C68.5095 178.393 68.8192 178.474 69.0692 178.636C69.3192 178.795 69.5081 179.008 69.636 179.276C69.7638 179.54 69.8277 179.831 69.8277 180.149V180.609C69.8277 180.927 69.7624 181.22 69.6317 181.487C69.5039 181.751 69.3135 181.964 69.0607 182.126C68.8107 182.285 68.5039 182.365 68.1402 182.365C67.7709 182.365 67.4598 182.285 67.207 182.126C66.9541 181.964 66.7624 181.751 66.6317 181.487C66.501 181.22 66.4357 180.927 66.4357 180.609ZM67.305 180.149V180.609C67.305 180.874 67.3675 181.111 67.4925 181.321C67.6175 181.528 67.8334 181.632 68.1402 181.632C68.4385 181.632 68.6487 181.528 68.7709 181.321C68.8959 181.111 68.9584 180.874 68.9584 180.609V180.149C68.9584 179.885 68.8987 179.649 68.7794 179.442C68.6601 179.231 68.447 179.126 68.1402 179.126C67.8419 179.126 67.6274 179.231 67.4968 179.442C67.3689 179.649 67.305 179.885 67.305 180.149ZM66.7595 187.24L72.7595 178.513H73.7311L67.7311 187.24H66.7595Z" fill="white"/>
    <path d="M23.24 182.19V23.5" stroke="#40AE93" stroke-width="8" stroke-miterlimit="10"/>
    </g>
    <defs>
    <clipPath id="clip0_60_1058">
    <rect width="112.05" height="198.26" fill="white"/>
    </clipPath>
    </defs>
</svg>
