<?xml version="1.0" encoding="utf-8"?>
<!-- Generator: Adobe Illustrator 27.9.0, SVG Export Plug-In . SVG Version: 6.00 Build 0)  -->
<svg version="1.1" id="Calque_2_00000124154179904550069410000005208341339692977810_"
	 xmlns="http://www.w3.org/2000/svg" xmlns:xlink="http://www.w3.org/1999/xlink" x="0px" y="0px" viewBox="0 0 690.5 982"
	 style="enable-background:new 0 0 690.5 982;" xml:space="preserve">
<style type="text/css">
	.st0{fill:#40AE93;}
</style>
<g id="Calque_1-2">
	<g>
		<path class="st0" d="M345.3,982c-8.7-11.5-17.1-22.2-25.2-33.2C249,853.4,181.9,755.5,121.6,653C87.6,595,55.9,535.9,31,473.3
			C18,440.8,7,407.6,2.1,372.7c-3.8-27-2.1-53.9,2.1-80.6C25.6,158.3,121.8,49.9,251.5,13C417.2-34,593.7,49.7,662,207.7
			c20.9,48.3,31,98.8,28,151.4c-1.7,30.2-10.3,59-20.3,87.4c-21.5,61.2-50.8,118.8-82.7,175.1C516.7,745.8,435.9,863,349.6,976.5
			C348.4,978.1,347.1,979.6,345.3,982L345.3,982z M346.3,617.3c145.5,0.1,263.6-117.6,263.9-263c0.3-145.5-117.7-263.8-263.4-264
			c-145-0.2-263.2,117.6-263.6,262.8C82.8,498.8,200.7,617.2,346.3,617.3L346.3,617.3z"/>
		<path class="st0" d="M394.3,407.8c0,38,0,76,0,114c0,12.3-3.9,16.2-16.1,16.2c-2.7,0-5.3,0-8,0c-10,0-14.6-4.6-14.6-14.8
			c-0.1-23.7-0.1-47.3-0.1-71c0-13.8,0-27.7-0.1-41.5c0-1.7,0.1-3.4-0.3-5c-0.8-3.5-3-5.6-6.6-5.6c-3.6,0-6,2-6.6,5.6
			c-0.4,2.3-0.4,4.6-0.4,7c0.1,36.3,0.3,72.6,0.4,109c0,12.1-4.2,16.3-16.1,16.3c-3.2,0-6.3,0-9.5,0c-8-0.1-12.7-4.3-13.5-12.3
			c-0.2-2.2-0.1-4.3-0.1-6.5c0-75.3,0-150.6,0-225.9c0-3.6,1.2-8.8-4.5-8.8c-5.5,0-4.7,5-4.7,8.7c0,26,0,52,0,78
			c0,5.4-1.1,10.3-5.4,13.9c-4.7,4-10.1,5-15.9,2.6c-6-2.4-9.5-7.1-9.5-13.5c-0.2-28.3-1.5-56.7,0.4-84.9
			c1.6-24.3,16.8-41.1,39.6-48.6c30.2-10,61-9.5,91.5-0.2c22.3,6.8,41.2,30.5,40.5,55.5c-0.8,25.6-0.2,51.3-0.2,77
			c0,5.9-2,10.8-7.4,13.8c-5.4,2.9-10.9,3.1-16.1-0.2c-5.4-3.4-7.4-8.6-7.4-14.9c0.1-26.2,0-52.3,0-78.5c0-3.7,0.9-8.7-4.8-8.6
			c-5.2,0.1-4.5,4.8-4.5,8.5C394.3,331.1,394.3,369.4,394.3,407.8L394.3,407.8L394.3,407.8z"/>
		<path class="st0" d="M348.6,155.2c19.2,0,34.6,15.4,34.6,34.6c0,19.2-15.4,34.5-34.7,34.5c-19.2,0-34.7-15.6-34.6-34.6
			C314,170.5,329.4,155.2,348.6,155.2L348.6,155.2z"/>
	</g>
</g>
</svg>
