<?xml version="1.0" encoding="utf-8"?>
<!-- Generator: Adobe Illustrator 27.9.0, SVG Export Plug-In . SVG Version: 6.00 Build 0)  -->
<svg version="1.1" id="Calque_1" xmlns="http://www.w3.org/2000/svg" xmlns:xlink="http://www.w3.org/1999/xlink" x="0px" y="0px"
	 viewBox="0 0 252.9 489" style="enable-background:new 0 0 252.9 489;" xml:space="preserve">
<style type="text/css">
	.st0{fill:#40AE93;}
</style>
<path class="st0" d="M175.9,7c7,2,13.9,4.1,20.7,6.5c14.1,4.8,22.5,15.3,24,30.6c1.5,15.5-4.4,27.4-17.4,36.1
	c-2.6,1.7-4.6,5.1-5.6,8.1c-4.7,14.6-8.9,29.3-13.6,45c5.7,0,14.1-0.1,22.5,0c14.7,0.2,20.9,6,22.6,20.5c0.4,3.2,2.2,6.7,4.4,9.1
	c12.8,14.5,19.4,31.1,19.4,50.5c-0.1,23.2,0,46.4,0,69.6c0,33.9-13.1,49.7-48,56.4V489H48V339c-17.4-1.4-29.8-8.1-38.2-19.4
	C3.3,310.9,0,300.2,0,289.3v-79.7c0-5.9,1-11.8,3-17.4c4.2-11.6,9.6-22.4,18.8-31.4c1.5-1.5,1.9-4.4,2.1-6.8
	c1.3-14.4,7.8-20.5,22.4-20.7c8.4-0.1,16.8,0,22.4,0c-4.5-15.7-8.6-30.5-13.2-45c-0.9-3-3.1-6.3-5.7-8c-13.4-9-19.3-21.2-17.5-37.2
	c1.7-14.8,10.1-24.9,23.8-29.6c7-2.4,14.1-4.6,21.2-6.6C109.6-2.4,143.7-2.3,175.9,7L175.9,7z M189.4,323.6H63.8v116.9h55.6v-85.1
	h15.1v85h54.9V323.6L189.4,323.6z M237.2,259.9c0-18.9,1.8-36.5-0.6-53.5c-1.6-11.1-7.8-22.6-14.9-31.5c-3.1-3.8-13.7-1.4-20.8-2.3
	c-10.6-1.4-15.1,9.2-23.7,11.8c-0.7,0.2-0.8,3.9-0.5,5.9c0.8,4.6,1.8,9.3,3.4,13.7c2.4,6.8,1.5,12-3.7,17.6
	c-13.6,14.6-25.5,30.8-39.8,44.6c-12.8,12.4-10.2,26.2-9.4,40.7h62.6V197.2h15.8v62.7c4.6,0,7.8,0,11,0
	C223,259.9,229.5,259.9,237.2,259.9L237.2,259.9z M77.5,184.8c-4.3-2.3-8.8-4-12.4-6.8c-15.9-12-34.6-8.2-43.3,9.4
	c-2.1,4.2-4.4,8.8-4.5,13.2C16.7,220,17,239.5,17,259.2h31v-62.1h15.5v109.7h46.7v-16.5h-38v-14.9h38c4.5-14.2,1.4-25.9-9.3-35
	c-2.8-2.4-5.4-5-8.4-6.9c-17.4-10.5-26.2-23.8-15.9-44.2C77.2,188.2,77.2,186.6,77.5,184.8L77.5,184.8z M180.4,93.6
	c-12-1.8-23.4-4.2-34.8-5c-12.4-0.9-25.4-2.3-37.4,0.2c-12.1,2.4-23.4,6.2-35.6,1C72,117.6,98,141.4,127.2,141
	C156.3,140.5,181.8,116.4,180.4,93.6L180.4,93.6z M196.8,65.1c12.7-14.4,11-29.5-3.4-35.6c-15.4-6.5-32-11.8-48.5-14.2
	c-29.1-4.2-57.8-0.2-84.4,13.4c-15,7.7-17.5,22.9-3.7,36.2c-6.2-18.1,5-18.9,15.9-21.1c36.4-7.4,72.6-7.1,108.9,0.2
	C192.1,46,201.4,47.8,196.8,65.1z M181.7,61.2c-20.9-9-84.4-10.3-105.9-2.3c-7,2.6-5.6,6.7-2.3,10.8c6.1,7.6,13.7,8.9,23.3,6.5
	c12.1-2.9,24.7-5.1,37.1-5.3c8-0.2,16,3.7,24.1,5.7C171,79.9,180.7,73.6,181.7,61.2L181.7,61.2z M172.2,168.5
	c-1.1-3.6-1.2-6.9-2.9-8.9c-1.5-1.8-4.8-3.2-7.2-3.1c-2.3,0.1-6.1,2-6.5,3.8c-7.1,27.1-13.7,54.2-20.8,82.9
	c20.7-18,38.2-35.3,23.2-64c-0.4-0.8-0.1-2-0.1-3.2C162.4,173.7,166.9,171.3,172.2,168.5z M118.2,457.8H64.1V473h54.2V457.8z
	 M96,176.4c-1.9,7.8-3.3,14.9-5.5,21.7c-2.3,7.5-2.7,13.5,5.4,18.2c5.8,3.4,10.7,8.3,17.7,14c-5.6-24.4-10.5-46.2-15.9-67.9
	c-0.6-2.5-4.4-5.7-6.9-5.8c-2.6-0.1-5.7,2.7-7.8,5.1c-1.4,1.6-1.3,4.5-1.9,6.9C86.2,171.3,90.7,173.6,96,176.4L96,176.4z
	 M189.3,457.8h-54v15.2h54V457.8z M112.8,156.9c4.2,18.3,8.1,35.7,12.1,53.2c0.7,0.1,1.3,0.2,2,0.2c4.4-17.6,8.8-35.2,13.3-53.4
	L112.8,156.9L112.8,156.9z M47.2,276.2h-31v14.1h31V276.2z M237.1,276.3h-31v14.3h31V276.3z M206.2,307.3v16
	c11.1-1.7,20-4.8,25.5-16H206.2z M22.3,307.5c-0.5,1.2-1,2.4-1.5,3.5c8.2,4.6,16.4,9.1,26.3,14.6v-18.2H22.3z M182.9,149
	c0.8,2.7,1.1,5.8,1.7,5.8c9,0.6,18,0.8,27,0.8c0.6,0,1.9-3.1,1.6-3.4c-1.4-1.4-3.2-3.1-4.9-3.1C200,148.9,191.8,149,182.9,149
	L182.9,149z M69.2,151H37.5C48.4,160.6,66.5,159,69.2,151z"/>
<path class="st0" d="M143.1,290.2v-13.9h37.7v13.9H143.1z"/>
</svg>
