<?xml version="1.0" encoding="UTF-8"?>
<svg id="Calque_2" data-name="Calque 2" xmlns="http://www.w3.org/2000/svg" viewBox="0 0 266.36 151.61">
  <defs>
    <style>
      .cls-1 {
        fill: #4b92bb;
      }

      .cls-1, .cls-2, .cls-3, .cls-4, .cls-5, .cls-6, .cls-7, .cls-8, .cls-9, .cls-10, .cls-11, .cls-12 {
        stroke-width: 0px;
      }

      .cls-2 {
        fill: #5da7c9;
      }

      .cls-3 {
        fill: #2c405b;
      }

      .cls-4 {
        fill: #2c527a;
      }

      .cls-5 {
        fill: #286292;
      }

      .cls-6 {
        fill: #273143;
      }

      .cls-7 {
        fill: #09090a;
      }

      .cls-8 {
        fill: #d5dce7;
      }

      .cls-9 {
        fill: #858990;
      }

      .cls-10 {
        fill: #c2c3c9;
      }

      .cls-11 {
        fill: #b4d0e5;
      }

      .cls-12 {
        fill: #e7ecf3;
      }
    </style>
  </defs>
  <g id="Calque_7" data-name="Calque 7">
    <g>
      <path class="cls-5" d="m260.16,21.14c-.24.37-.68.98-.98.66-1.58-1.7-3.44-.51-5.16-.64-.04,1.82-.55,3.78,2.34,4.08,1.2.13.73,1.32.3,1.95-.87,1.27-1.72,2.67-2.91,3.57-1.37,1.04-2.56,2.24-3.68,3.46-2.44,2.65-5.28,4.89-8.02,7.11-1.93,1.56-3.97,3.75-6.96,3.83-.93.02-1.83.59-2.54,1.26-2.67,2.54-5.93,4.11-9.46,4.6-1.86.26-3.31.02-3.38,2.41-.01.4-.58.6-.88.44-2.2-1.09-4.33.48-6.55.13-1.77-.28-2.67,1.88-4.45,2.06-3.62.36-6.55,2.46-9.77,3.86-2.28.98-4.12,2.01-5.87,3.8-1.33,1.35-2.76,3.59-5.48,2.65-.83-.28-1.46.41-2.17.84-1.21.74-2.32,1.89-3.99,1.5-.18-.04-.55.06-.59.19-.85,2.42-3.23,2.58-5.12,3.39-1.43.61-2.94,1.01-4.19,2.01-3.22,2.57-7.84,2.72-10.59,6.1-.31.38-.68.54-1.14.55-2.49.03-4.39,1.41-6.33,2.73-.48.33-1.02.62-1.57.79-3.32,1.02-5.69,3.47-8.33,5.49-.57.43-1.04.77-1.73.75-.91-.03-1.59.24-1.82,1.23-.18.78-.86.93-1.5,1.12-.87.26-1.7.55-1.6,1.75.04.46-.36,1.14-.66,1.01-2.58-1.09-3.36,1.74-5.17,2.39-2.08.74-4.13.8-6.22,1.07-.61.08-1.14.04-1.72-.07-1.15-.21-2.1,0-2.14,1.46-.04,1.46-1.09,1.91-2.23,1.95-1.43.05-2.53.57-3.53,1.56-1.16,1.16-2.62.82-3.96.47-1.2-.31-2.18-.22-2.99.76-.66.8-1.63,1.1-2.56,1.18-3.32.27-6.23,1.46-9.19,2.97-1.13.58-3.16,2.77-5,.46-.07-.09-.66.02-.75.18-.61,1.13-1.81,1.01-2.72,1.48-1.43.74-2.88,1.41-4.33,2.11-2.84,1.38-5.29,3.52-8.34,4.57-2.44.84-6.35-.22-7.94-2.28-.54-.7-.91-.9-1.8-.62-5.52,1.68-10.44,4.51-15.22,7.66-1.17.77-2.48,1.32-3.61,2.13-1.09.78-1.37,1.34.21,2.33,4.23,2.62,8.98,2.7,13.63,3.37,1.13.29,2.2-.11,3.24-.4,4.97-1.39,10.09-2.27,14.91-4.23.96-.39,2.16-.14,3.19-.58.35-1.33,1.77-1.51,2.59-1.63,4.48-.65,8.81-2.05,12.81-3.87,2.84-1.29,6.44-.91,8.67-3.88.75-1,2.74-.68,4.14-1.06,5.57-1.51,10.77-3.97,16.15-5.9,2.51-.9,4.95-2.2,7.64-2.77,1.91-.41,3.94-.94,5.51-2.02,2.74-1.87,6.01-2.17,8.96-3.36,3.63-1.47,7.72-2.12,11.59-3.13,3.91-1.02,7.89-.09,11.82-1.42,2.64-.89,5.1-2.65,8.01-2.61,2.04.03,3.49-1.09,5.03-2.07,2.1-1.34,4.83-1.19,6.74-2.95.32-.3.78-.44,1.08-.75,2.44-2.5,5.39-4.03,8.61-5.38,2.48-1.04,4.76-2.86,6.74-4.73,2.65-2.51,5.76-4.29,8.87-5.99,3.12-1.71,5.65-4.1,8.42-6.23,6.38-4.92,12.45-10.17,18.38-15.62,4.06-3.73,8.05-7.55,11.55-11.74,2.8-3.35,6.1-6.48,7.71-10.74.27-.72.56-1.87,1.53-1.51.79.29.66,1.49.79,2.33.01.07-.01.16-.05.21-2.64,3.84-3.73,8.55-6.77,12.16-.08.1-.27.11-.4.17-.73.57-.88,1.5-1.36,2.22-.76,1.68-1.13,3.63-3.15,4.4,0,.12-.02.24-.04.36-.03.58-.05,1.16-.08,1.73.3-.15.61-.3.91-.45,1.03-1.27,1.59-2.86,2.82-3.99.59-.84,1.17-1.69,1.76-2.53,3.06-4.35,5.48-9.05,7.78-13.83.16-.75.32-1.51.49-2.26,0,0-.05-12.04-2.73-15.34-1.24,1.02-3.48,9.6-3.48,9.6Z"/>
      <path class="cls-8" d="m30.07,87.59c.03-.14.01-.26-.07-.38,2.18-5.34,5.69-9.58,10.65-12.53,2.25-1.34,4.37-2.72,5.48-5.22,1.35.15,2.28-.49,3.33-1.31,2.54-1.96,4.68-4.71,7.85-5.54,4.25-1.11,7.2-4.1,10.59-6.43,1.68-1.15,1.42-2.06-.26-3.21-5.71-3.89-11-8.34-16.56-12.44-2.1-1.55-3.88-3.61-6.53-4.34-1.73-.97-3.68-1.08-5.57-1.43-.3-.47-.47-1.06-1.06-1.3,2.33-2.16,2.95-2.27,5.37-.78,7.7,4.76,15.36,9.59,23.1,14.28,3.64,2.2,7.02,4.89,11.18,6.17-2.3,2.57-3.98-.35-6.13-1,1.52,3.1,1.53,3.11-1.44,4.91-.75.45-1.4,1.01-2.19,1.43-4.24,2.27-8.32,4.87-12.63,7.01-2.82,1.4-4.68,4.02-7.51,5.3-.48.22-.68.54-.61,1.04.08.55.5.65.96.71,1.24.17,2.3-.3,3.37-.85.98-.51,1.66-1.37,2.66-1.92,3.59-1.98,7.67-2.96,11.11-5.1,2.43-1.51,5.12-2.37,7.56-3.89,3.88-2.42,8.27-3.99,12.64-5.36,4.52-1.42,8.27-4.44,12.79-5.75,1.64-.48,3.06-.94,3.86-2.6.31-.64,1.15-.52,1.76-.73,2.08-.71,4.62-.31,6.08-2.6.54-.84.93.2,1.38.42,0,.15.02.3.02.45-.55.89-1.07,1.8-1.12,3.13,1.33-.92,1.12-2.06,1.14-3.12.14-.15.29-.31.44-.46,0,0,0,.01,0,.01.51-.33.45-.84.45-1.34h0c.43-.26.48-.55.03-.85.7-2.26,2.16-4.12,3.42-6.05,1.64-2.53,1.79-2.43-.71-2.83-.07-.01-.13-.06-.2-.09.78-.53,1.56-1.06,2.34-1.6,8.9-5.02,17.81-10.04,26.71-15.06,5.65-2.98,11.23-6.29,17.44-7.81,4.45-1.09,8.49-3.38,13.05-4.02.23.11.38.05.47-.19,0,0,0,0,0,0,.83.1,1.6-.15,2.39-.33,3.59-.82,7.2-1.53,10.88-1.86.44.27.88.55,1.32.82,0,0,0,0,0,0-1.64-.29-1.1,1.35-1.75,2.16-.33-.88-.6-1.52-1.66-1.15-1.43.5-2.99.58-4.38,1.29-.86.43-1.82.73-2.46-.42.08-.12.17-.23.24-.36.01-.03-.06-.15-.1-.15-1.73-.15-3.05.82-4.43,1.62-.18.11-.15.16.73.34.1,1.34.27,2.5-1.8,1.42-.92-.48-2.64-1.31-3,.96-1.54.77-2.83,1.8-3.89,3.36q1.62-.16,4.27-2.1c.51.97-.96,2.25.33,3.01.99.58,2.11.17,2.85-.57,1.61-1.64,2.85-.91,4.09.41-1.76,1.33-2.32,2.08-3.16,4.3,3.35.46,3.65-2.72,5.24-4.34.85-.19,1.17-.63.5-1.33-.4-.42-.46-.87-.45-1.38.59.03,1.17.06,1.76.08,0,.27-.01.54-.02.81-.03.06-.06.13-.09.19.04-.06.07-.11.11-.17,3.04-.73,6.08-1.49,9.14-2.17.49-.11,1.36-.72,1.52.49-.31.53-.62,1.06-.93,1.59-.97,1.51-1.94,3.02-2.91,4.53-.04.04-.11.1-.1.13.03.1.09.19.13.28.05.29.09.58.14.87-.13,0-.27,0-.4.05-.12-.05-.25-.08-.38-.09-.13-.2-.26-.41-.4-.61-.1.07-.2.14-.3.2.15.19.3.38.46.56-.33,1.04-.76,2.06-.75,3.18,0,.6.04,1.26.66,1.48.56.19.84-.44,1.22-.74.2.03.41.05.61.08-.14.57.22.75.68.86-.14.24-.23.64-.42.69-3.93,1.15-8.18.67-12.03,2.31-.12.05-.3,0-.43-.05-.99-.45-1.35,0-1.79.91-.68,1.38-3.88,1.24-4.73-.1,2.92.38,3.19.18,4.33-3.49.15-.49.77-1.11.07-1.56-.51-.32-1.13.01-1.67.23-.74.29-1.07.9-1.37,1.59-.46,1.04-.47,2.27-1.35,3.13-1.25-.55-2.57.26-3.94-.47-2.01-1.07-4.29-.86-6.46-.12.29-1.27-.5-1.12-1.25-.91-1.45.39-1.6,1.75-2.03,2.87-.23.59-.64,1.45-.41,1.8.48.69,1.31.16,1.98-.04,0,.29.09.62-.01.88-.94,2.3-4.45,4.18-6.89,3.59-1.88-.45-3.42,1-5.26.74-.61-.08-.57.71-.64,1.22-.24,1.51-1.44,2.36-2.65,2.1-1.62-.34-2.75.34-4.13.73-1.62.46-2.27,2.03-3.81,2.47-2.9.82-5.72,1.93-8.75,2.25-.54.06-1.14.14-1.31.66-.65,2.02-2.36,2.79-4.08,3.4-4.13,1.46-6.23,6.5-11.26,6.34-.15,0-.31.29-.46.45-1.17,1.32-3.08,2.14-4.33,1.65-1.89-.73-2.59.81-3.61,1.29-.83.4-1.56.86-2.51.83-.85-.02-1.57.29-2.29.71-2.56,1.48-5.1,2.83-8.29,2.18-1.11-.23-2.38.36-3.16,1.31-1.64,2-4.01,2.62-6.25,2.8-3.41.27-5.37,2.73-7.82,4.4-.86.59-1.57,1.43-2.64,1.78-5.14,1.67-10.38,3.11-15.38,5.14-1.99.81-3.5,2.84-5.91,3.04-.06,0-.12.09-.16.15-1.25,2.4-4,2.82-5.87,4.43-2.32,1.98-5.44,2.53-8.02,4.02-1.15.66-2.14,1.18-3.44,1.08-.02-.16-.04-.32-.06-.48ZM123.1,31.66c-.16.14-.32.28-.48.42-.16.19-.48.38-.17.64.3.26.43-.13.61-.28.11-.16.23-.32.34-.49.13-.16.29-.34.03-.5-.05-.03-.22.13-.33.21Zm-2,3.33c.2-.21.4-.42.6-.63.37-.33.96-.81.53-1.18-.54-.47-.72.29-.95.67-.17.29-.35.59-.52.88-.16.17-.22.35.03.47.06.03.21-.13.31-.2Zm8.07-4.32c1.35-.7,1.72-2.15,2.52-3.27.07-.09.15-.18.22-.27-.15,0-.3.02-.45.02-1.4.63-1.87,2.02-2.6,3.19-.07.11-.22.27-.19.32.14.24.33.12.49,0Zm26.01-16.1c1.53-.34,2.48-1.4,3.29-2.63-1.48.42-2.78,1.07-3.27,2.68-.08-.05-.17-.1-.25-.14-.03.05-.05.1-.08.15.1-.02.21-.04.31-.06Zm-7.36,12.7c-2.59.04-2.72,1.9-3.26,3.33-.18.48-.79,1.2-.1,1.56.71.37,1.51-.07,1.83-.79.56-1.25.97-2.56,1.53-4.1Zm17.89-11.8c-2.62-.29-3.07,1.72-4.28,2.73-.5.42-.66.81-.33,1.27.33.48.81.07,1.19-.04,1.87-.56,1.94-2.59,3.42-3.96Zm-17.58,6.99c2.24-.12,3.54-1.47,4.04-3.95-2.3.34-2.54,2.79-4.04,3.95Zm-11.85,8.62c-2.59.98-2.4,3.14-3.12,5,2.04-.68,2.05-.71,3.12-5Zm-17.35,9.03c-2.09.74-2.9,2.56-2.25,4.47,1.52-1.01,1.39-2.78,2.25-4.47Zm5.37.66c2.08-1.54,2.13-3.35,2.87-5.35-2.17,1.3-2.2,3.12-2.87,5.35Zm16.9-18.49c-1.85.58-2.73,2.02-3.6,4.04,2.46-.63,2.64-2.68,3.6-4.04Z"/>
      <path class="cls-10" d="m44.56,36.2c2.65.73,4.43,2.79,6.53,4.34,5.55,4.1,10.85,8.54,16.56,12.44,1.68,1.15,1.94,2.05.26,3.21-3.4,2.33-6.35,5.32-10.59,6.43-3.17.83-5.31,3.57-7.85,5.54-1.06.82-1.99,1.46-3.33,1.31-.02-.15-.04-.3-.07-.45.89-1.58.54-3.08-.19-4.63-3.36-7.15-6.66-14.33-9.98-21.49.83.17,1.3-.3,1.88-.83,2.21-2.01,4.52-3.91,6.79-5.86Z"/>
      <path class="cls-8" d="m251.76,5.5c.59.06,1.17.12,1.76.18,2.36,1.17,4.84,2.07,7.05,3.54-.55.77-1.76.2-2.29,1.19.49.38,1.06.73,1.52,1.19,1.38,1.34,1.83,4.14.58,4.72-1.72.79-3.14,2.24-5.32,2.21-2.7-.04-5.43-.49-8.12.28-5.58,1.59-10.97,3.74-16.47,5.58-5.08,1.7-9.86,4.21-15.08,5.52,3.76-2.59,8.11-3.96,12.29-5.62,3.93-1.57,7.91-3.05,12-4.22,3.56-1.02,6.81-3.4,10.72-2.85,2.85.4,5.39.49,8.04-1.17,1.31-.82,1.41-1.48,1.13-2.54-.35-1.32-1.19-2.06-2.69-2.17-1.13-.09-1.36-.66-.82-1.23.69-.72.38-2.04-.65-2.16-2.43-.29-4.97-.81-7.05,1.16-1.48,1.41-3.05,2.16-5.11,1.21-.76-.35-1.47.16-1.89.78-.49.71-.04,1.24.6,1.62.46.27.92.59.81,1.19-.13.68-.84.42-1.24.65-1.83,1.07-4.52.25-5.74,2.62-1.17.49-2.62.22-3.55,1.35-1.04.23-2.08.47-3.11.7-.08-.46-.36-1.07-.74-.95-2.16.71-4.49-1.09-6.6.5-.33.25-1.14.3-1.47.07-2.55-1.8-6.29-.58-8.44-3.33,1.25-.76,2.44-1.66,3.77-2.25,1.48-.65,1.81-1.5,1.05-2.87.8-.6.9,1.43,1.79.47.02.16.04.33.06.49-.03.3-.05.6-.08.9-.46.54-.87,1.59.22,1.22,2.42-.82,5.63-.23,6.93-3.37.69-.43.11-.87,0-1.3,1.35-.9,1.34-3.17-.03-4.47-.15-.12-.29-.25-.44-.37.63-.3,1.45-.54.46-1.39-.05-.16-.1-.31-.14-.47.08-.27-.08-.38-.3-.44.15-.49.43-.96.98-.84.65.15.29.81.41,1.23-.03.06-.09.13-.08.18.03.12.09.24.14.36.09.18.17.36.26.54.13.47.89.17.93.75-.6-.07-.98.07-.78.79.37,1.03-.36,3.08,2.06,2.23.34.65.91.55,1.48.44.29-.06.58-.11.87-.17-.59.91-1.59.92-2.5,1.14-.59.14-1.24.27-.72,1.13-.05.42-.24.93.18,1.2.61.4,4.63-1.11,5.2-1.89h-.01c.92,0,1.81.25,2.78.12,1.4-.19,1.5-.87,1.22-1.95.17-.12.35-.23.52-.35.19,2.31,1.7,1.38,2.91,1.19,1.52-.57,2.95-1.37,4.65-1.39.36,0,1.28.55,1.27-.56.68,0,1.46.1,1.2-1.02.15-.15.31-.3.46-.45.48,1.95,1.88,1.4,3.16,1.15Z"/>
      <path class="cls-8" d="m192.37,1.63c.28-.04.55-.07.83-.11.24.38.37.26.44-.1,2.06-.45,4.24.16,6.24-.73,2.24-.12,4.47-.27,6.71-.33.59-.02,1.31-.37,1.79.34-.38.46-1.64-.44-1.43.92-.61.69-.5,1.54-.18,2.22.19.41.75-.05,1.11-.24-.75,1.68-2.2,3.38.44,4.81.47.25.07.71-.42.89-.61.23-.61.73-.43,1.26.08.57.15,1.14.23,1.71-.21,0-.43,0-.64,0-.32-.6-.89-.35-1.37-.4-.14-.04-.29-.05-.44-.03.14-.29.28-.58.42-.87,1.25-.16.18-.95.38-1.4.12-.38.58-.67.29-1.15.21-.98-.26-1.79-.47-2.73q-1.63,1.04-2.91.09c.46-.63,1.46-.21,1.88-.95,1.23-.28.72-1.45,1.1-2.17-.97-1.08-2.38-1.13-3.1-.22-.92,1.15-2.04,1.2-3.19,1.51-1.81-.92-3.65-1.66-5.75-.99-1.15.37-1.78,0-1.54-1.33Z"/>
      <path class="cls-4" d="m35.32,42.03c-1.53.08-2.33-.7-2.53-2.17,1.34-.98,2.68-1.96,4.01-2.95.54.94,1.17,1.11,2.17.52.8-.46,1.72-.98,2.96-.56-2.2,1.99-3.91,4.21-6.62,5.15Z"/>
      <path class="cls-9" d="m229.09,6.9c-2.41.85-1.69-1.2-2.06-2.23,2.21.47,4.36.65,6.37-1.22-2.02.07-3.77.81-5.59.43-.04-.58-.8-.28-.93-.75.16-.08.32-.16.49-.25.53.08.95-.13,1.35-.44.73.15,1.47.29,2.2.44,1.48.04,2.97.09,4.45.13,0,.16-.01.31-.02.47-.94.78-2.74,1.18-1.28,2.99-.9.15-1.64.92-2.64.71-.29.06-.58.11-.88.17-.2-.27-.4-.54-.59-.82-.03-.11-.07-.21-.1-.32-.1.1-.21.2-.31.3,0,0,.02,0,.02,0-.31,0-.5.13-.47.47l-.03-.06Z"/>
      <path class="cls-9" d="m35.32,42.03c2.71-.94,4.42-3.16,6.62-5.15-1.25-.42-2.17.09-2.96.56-1,.58-1.63.42-2.17-.52.73-.72,1.45-1.44,2.18-2.16,1.89.35,3.84.46,5.57,1.43-2.27,1.94-4.57,3.85-6.79,5.86-.58.53-1.05.99-1.88.83-.44-.12-.48-.5-.57-.85Z"/>
      <path class="cls-10" d="m235.35,3.47c0-.16.01-.31.02-.47.53-.12,1.48.27,1.15-.93.88-.76.62.45.99.57.02.25.04.51.06.76.14.82-.08,1.77.89,2.25,0,.17,0,.33,0,.5-.01.13-.02.25-.02.38-.11.03-.23.04-.35.04-.17.12-.35.23-.52.35-1.33.61-2.67,1.22-4,1.83,0,0,.01,0,.01,0-1.87-.39-3.52.95-5.38.69-.52-.86.13-.99.72-1.13.91-.22,1.9-.23,2.5-1.14,1,.21,1.74-.56,2.64-.71.58-.09,1.16-.2,1.75-.28.71-.1,1.49-.01,1.26-1.21-.2-1.03-.33-1.94-1.73-1.5Z"/>
      <path class="cls-10" d="m38.98,34.76c-.73.72-1.45,1.44-2.18,2.16-1.34.98-2.68,1.96-4.01,2.95-.79-1.12-.42-2.1.46-2.91.99-.92,2.06-1.76,3.09-2.64.52-.28,1.05-.56,1.57-.85.59.24.76.82,1.06,1.3Z"/>
      <path class="cls-8" d="m215.65.6c.22-.09.43-.18.65-.28.12.81-.45,2.2,1.35,1.61-.03.18-.05.35-.08.53-2.29.56-.67,1.74-.43,2.7.39.2.46.56.48.94-.73.94-.65,1.89-.07,2.86-.04.29.03.7-.14.84-.41.34-.61-.03-.73-.39-.22-.66-.43-1.33-.66-2.03-.67.35-1.29.68-1.91,1-.49-2.1-2.04.28-2.77-.71,1.16-1.33,3.29-.72,4.48-2.08-.3-.78.82-2.08-.87-2.35.02-.21.04-.43.05-.64.13-.02.25-.05.38-.09.32-.02.41-.19.33-.49,0-.24.01-.49.02-.73-.03-.23-.06-.45-.08-.68Z"/>
      <path class="cls-9" d="m215.65.6c.03.23.06.45.08.68-1.92-.37-3.39,1.12-5.19,1.26l-.07-.08c.26-.49.5-.92-.42-.87-1.03.06-2.06.65-3.1.02-.21-1.37,1.05-.47,1.43-.92,1.7-.62,3.46-.59,5.16-.17.74.18,1.4.12,2.11.08Z"/>
      <path class="cls-6" d="m238.47,5.67c-.97-.49-.76-1.44-.89-2.25,1.83-.09,3.66-.19,5.49-.28.6-.15,1.19-.23,1.58.42-.59.65-1.63.05-2.2.77,0,0,.03-.02.03-.02-.48.09-1.11-.29-1.36.47l.03-.02c-.51-.04-1.13-.38-1.34.46l.04-.02c-.37-.23-.66-.08-.93.18-.14.1-.29.19-.43.29Z"/>
      <path class="cls-3" d="m230.97,2.5c-.06-.91-1.18-.72-1.52-1.38,1.75-.42,5.37.12,6.36.92-1.63-.09-3.24.09-4.83.46Z"/>
      <path class="cls-3" d="m218.97.75c.91-.93,2.02-.33,3.05-.4-.5.58,1.68,1.12.03,1.73,0,0,.02.02.02.02-.53-.78-1.05-.57-1.58,0-.29.31-.64.45-1.07.38,0-.41-.01-.82-.02-1.22.39-.61-.19-.41-.42-.5Z"/>
      <path class="cls-9" d="m243.06,3.13c-1.83.09-3.66.19-5.49.28-.02-.25-.04-.51-.06-.76,1.9-.43,3.72.09,5.55.48Z"/>
      <path class="cls-6" d="m230.97,2.5c1.59-.37,3.2-.55,4.83-.46.24,0,.48.02.72.03.33,1.2-.62.8-1.15.93-1.48-.04-2.97-.09-4.45-.13,0-.13.01-.25.05-.37Z"/>
      <path class="cls-9" d="m222.05,2.07c1.65-.6-.53-1.14-.03-1.73,1.09-.02,2.25-.2,2.65,1.25-.62,0-.92.28-.86.91h0c-.16.02-.32.03-.48.05-.34.18-.68.37-1.01.55,0,0-.03-.1-.03-.1-.08-.31-.16-.63-.24-.94Z"/>
      <path class="cls-9" d="m242.44,4.32c.57-.72,1.6-.12,2.2-.77,1.33-.21,2.56.3,3.84.47.06.1.1.21.11.32-.15.15-.31.3-.46.45-1.82-1.13-3.8-.23-5.69-.47Z"/>
      <path class="cls-6" d="m248.6,4.35c-.02-.12-.05-.22-.11-.32,1.21.23,2.73-.23,3.28,1.47-1.29.25-2.68.8-3.16-1.15Z"/>
      <path class="cls-6" d="m217.65,1.94c-1.8.59-1.22-.8-1.35-1.61,1.34-.98,1.55.5,2.2,1.01-.29.2-.57.4-.86.6Z"/>
      <path class="cls-6" d="m228.71,2.43c-.4.3-.83.52-1.35.44.15-.59-.38-1.54.33-1.74.79-.23,1.01.59,1.02,1.3Z"/>
      <path class="cls-9" d="m217.65,1.94c.29-.2.57-.4.86-.6.15-.04.3-.09.46-.14.15.02.29.04.44.05,0,.41.01.82.02,1.22-.62,0-1.23-.01-1.85-.02.03-.18.05-.35.08-.53Z"/>
      <path class="cls-3" d="m222.32,3.11c.34-.18.68-.37,1.01-.55.19.26.36.32.48-.05,0,0,0,0,0,0,.3,0,.61,0,.91.01.14.01.27.04.4.08-.07.38-.14.76-.21,1.14-.34.07-.69.19-.83-.3-.43-.05-.87-.09-1.3-.14-.15-.06-.3-.13-.45-.19Z"/>
      <path class="cls-6" d="m224.9,3.75c.07-.38.14-.76.21-1.14.17-.02.34-.04.51-.06.99.84.17,1.08-.46,1.39-.06-.09-.15-.16-.26-.19Z"/>
      <path class="cls-6" d="m224.71,2.52c-.3,0-.61,0-.91-.01-.06-.63.25-.92.86-.91.02.31.03.62.05.92Z"/>
      <path class="cls-6" d="m219.4,1.25c-.15-.02-.29-.04-.44-.05,0-.15,0-.3.01-.45.23.09.81-.11.42.5Z"/>
      <path class="cls-6" d="m225.18,1.64c.23.06.38.17.3.44-.1-.15-.2-.29-.3-.44Z"/>
      <path class="cls-9" d="m226.61,2.57c-.05-.12-.11-.23-.14-.36-.01-.05.05-.12.08-.18.05.12.11.24.14.36.01.05-.06.12-.09.17Z"/>
      <path class="cls-6" d="m174.66,4.35c-.09.24-.24.3-.47.19.16-.06.31-.13.47-.19Z"/>
      <path class="cls-2" d="m229.61,72.58s-.3.34-.45.51c-3.27,3.43-7.23,5.99-11.05,8.72-9.37,6.72-19.33,12.39-30.26,16.22-.34.12-.63.36-.95.55-5.53,1.42-11.05,2.84-16.58,4.27-14.58,3.76-29.16,7.52-43.74,11.29-1.14.29-2.26.64-3.39.97-1.29.02-2.46.49-3.65.9-.35.13-.78.32-.66.73.72,2.39.22,4.82.29,7.23-.3.49-.77.44-1.24.39.03-1.5,1.24-2.79.83-4.37q-.87-3.39-4.27-2.52c-3,.76-6,1.5-8.99,2.26-.72.18-1.43.39-2.18.05.87-.38,1.66-.74,2.46-1.08,3.84-1.6,7.55-3.56,11.68-4.39,1.23-.25,2.38-.6,3.54-1.11,4.87-2.11,9.96-3.69,14.95-5.49,5.32-1.92,10.96-2.98,16.48-4.33,4.61-1.13,9.21-2.3,13.93-3,3.54-.52,7.2-.86,10.49-2.3,2.96-1.29,6.12-2.14,8.91-3.85,2.14-1.31,4.63-1.81,6.87-2.94,4.59-2.31,9.07-4.86,13.62-7.24,2.77-1.45,5.52-3.31,8.04-5.22,1.9-1.44,4.06-2.52,5.91-4.18,2.78-2.49,5.64-5.08,8.9-7.09,1.28-.79,2.29-2.04,3.46-3,1.86-1.53,2.63-4.09,4.63-5.24,2.91-1.68,4.83-4.34,7.23-6.49,3.63-3.25,6.57-7.26,9.87-10.9.75-.82,1.61-1.93,2.95-.73-.73.57-.88,1.5-1.36,2.22-.27-.08-2.99,6.57-3.27,6.5-8.22,9.59-16.25,18.5-23,22.64Z"/>
      <path class="cls-1" d="m232.71,69.92c.68-2.11,1.53-3.99,4-4.67.72-.2.76-2.07,2.21-1.07-1.47,2.56-3.72,4.29-6.22,5.74Z"/>
      <path class="cls-1" d="m229.61,72.58c.36-1.67,1.56-2.36,3.1-2.66-.6,1.4-1.58,2.34-3.1,2.66Z"/>
      <path class="cls-1" d="m238.92,64.16c.03-.93.69-.94,1.36-.91-.18.28-.36.56-.53.83-.28.03-.55.05-.83.08Z"/>
      <path class="cls-1" d="m229.17,73.09c.15-.18.3-.35.44-.53-.15.18-.3.35-.44.53Z"/>
      <path class="cls-9" d="m12.89,138.17c.81-.5,1.58-1.03,2.13-1.82,4.3-3.98,8.6-7.96,12.91-11.93.91-.55,1.71-1.19,1.9-2.32.96.11,1.81-.1,2.74-.45,5.67-2.1,11.39-4.08,17.09-6.1-.18,1.19-1.3,1.51-2.07,2.09-9.2,6.88-18.42,13.73-27.68,20.54-3.25,2.39-6.31,5.15-10.35,6.22-1.66.44-3.21,1.07-4.65,1.98-.16-.16-.31-.32-.47-.48.48-.44.95-.89,1.43-1.33,2.61-1.83,4.88-4.03,7.02-6.38Z"/>
      <path class="cls-3" d="m29.42,136.3c-2.34,1.08-4.49,2.48-6.59,3.95-1.68.93-3.36,1.87-5.03,2.8-.16-.2-.32-.4-.48-.6,2.71-1.88,5.05-4.23,7.82-6.07,1.26-.83,2.92-1.27,3.75-2.55,1.26-1.96,3.38-2.86,5.11-4.06,1.58-1.1,3.26-2.19,4.84-3.35,3.39-2.47,6.67-5.09,9.99-7.65,1.07-.82,2.84-.37,3.51-1.92,1.36.54,1.12,1.13.08,1.8-2.15,1.4-4.19,2.98-6.3,4.4-2.4,1.62-4.62,3.55-7.35,4.74-.98.43-3.11,1.35-1.22,3.27-2.71,1.74-5.41,3.49-8.12,5.23Z"/>
      <path class="cls-4" d="m17.31,142.45c.16.2.32.4.48.6-2.89,1.85-4.94,4.65-7.62,6.75-.92.72-1.87,1.25-3.09,1.04-1.68-1.59.12-2.15.89-3.01.84-.06,1.43-.58,2.12-1.02,2.36-1.52,4.65-3.19,7.22-4.36Z"/>
      <path class="cls-3" d="m7.97,147.83c-.77.86-2.57,1.42-.89,3.01-1.22.23-2.45.47-3.67.69-1.61.3-2.74-.23-3.19-1.89,1.59-.28,2.79-1.84,4.6-1.35.47.53.87.32,1.21-.14.55-.77,1.18-.98,1.95-.32Z"/>
      <path class="cls-4" d="m4.81,148.29c-1.81-.48-3.02,1.08-4.6,1.35-.62-1.58.18-2.48,1.54-3,.87-.33,1.79-.51,2.69-.76.16.16.31.32.47.48-.03.64-.06,1.29-.09,1.93Z"/>
      <path class="cls-4" d="m108.97,125.82c-.95.24-1.14-.68-1.68-1.08.03-.13,0-.25-.09-.35-.02-.27-.03-.53-.05-.8,1.8-.23,1.85.96,1.82,2.23Z"/>
      <path class="cls-11" d="m106.52,127.29c-.05.03-.11.08-.16.08-.05,0-.09-.07-.13-.11.1,0,.19.02.29.03Z"/>
      <path class="cls-3" d="m30.54,116.44c.15-2.98-1.89-5.27-2.55-8-.03-.15-.07-.29-.1-.44.08-.01.16,0,.24,0,.39-.11,1.06.03.94-.62-.28-1.56,1.05-1.82,1.83-1.77,1.78.12,3.58-.45,5.37.43.99.49,2.51.59,3.42-.1,1.59-1.2,3.49-1.53,5.21-2.33.7-.33,1.28-.73,1.72-1.32,1.56-2.06,3.29-2.52,5.57-1.53.7.3,1.45.23,2.08-.31.89-.77,1.96-1.4,2.64-2.33,1.28-1.75,2.69-1.48,4.22-.6,1.81,1.04.45,2.09-.05,3.13-1.11,2.37-.44,4.82,1.87,7.13,1.75,1.74,1.82-.89,2.83-1.05.07-.01.14-.03.22-.04,3.97-.5,6.76-3.6,10.5-4.74,2.28-.69,3.85-3.24,6.7-2.91.27.03.64-.33.87-.59,1.54-1.76,3.39-2.42,5.78-2.49,3.33-.11,7.08.32,8.99-3.59.08-.17.43-.21.52-.39.88-1.67,3.51-1.43,3.98-3.12.65-2.33.93-4.86.78-7.26-.08-1.25-.02-1.87,1.01-2.46,1.32-.75,2.51-1.54.79-3.15-.82-.77-.24-1.39.59-1.59.7-.17,1.47-.08,2.2-.07.44,0,.92.04,1.08.57.18.6-.1.91-.66,1.18-1.77.83-1.29,2.4-.4,3.21,1.05.95,1.21,1.88,1.21,3.09,0,.48-.35,1.24.59,1.37.08-.15.21-.27.21-.4.03-1.33.08-2.65.06-3.98-.02-1.49-.03-2.8,1.47-3.86.78-.55,1.72-1.35,2.03-2.52.63-2.4,1.87-2.87,4.15-1.64-3.77,1.8-3.79,1.82-1.31,4.28.78.77,1.7.82,2.46-.1,1.19-1.43,2.12-3.17,4.4-3.06.46.02.91-.4.88-.85-.2-3.58,3.43-2.78,5.09-4.19,1.05-.89,3.27-1.5,5.29-.32.91.53,2.73.66,3.94-.43,2.01-1.81,4.09-3.33,7.07-3.01,1.82.2,3.69-.01,5.53.05,1.16.04,1.93-.13,2.18-1.52.18-1.01.81-1.89,2.05-2.04,5.33-.63,9.62-4.11,14.69-5.45.54-.14.89-.66.69-1.22-.43-1.15-.17-2.35-.42-3.49-.21-.96-.68-1.99-1.88-1.78-1.95.35-3.98.16-5.86.88-3.5,1.34-7.2,1.87-10.85,2.56.25-1.06,1.27-.85,1.94-1.04,1.01-.29.91-.88.78-1.6.29-.29.57-.58.86-.87,2.27-.13,4.41-.89,6.61-1.36,3.11-.67,5.97-2.35,9.28-2.19,1.78,1.49,3.58-.13,5.11-.41,3.84-.71,7.72-1.5,11.51-2.64,5.52-1.65,11.15-2.97,16.73-4.43,1.01-.15,2.03-.48,3.03-.42,1.35.09-.05.52.01.8-.65.11-1.32.15-1.95.33-5.1,1.44-10.18,2.99-15.3,4.34-5.74,1.52-11.25,3.93-17.29,4.29-1.55.09-1.58,1.14-.61,2.15,3.01,3.13,6.94,3.9,10.92,3.3,3.28-.49,6.48-1.76,9.61-2.97,4.93-1.9,9.77-4.06,14.67-6.07.74-.3,1.66-.26,2.3-.67,4.2-2.71,9.19-3.23,13.73-5.01,1.19-.47,2.24.24,2.86,1.18.54.81-.06,1.56-.8,2.03-2.08,1.33-4.37,2.33-6.52,3.52-2.35,1.3-4.6,2.92-7.19,3.8-1.03.35-1.26,1.6-2.44,1.77-3.05.46-5.71,1.84-8.1,3.76-.48.39-1,.52-1.57.71-2.18.71-4.57.95-6.26,2.78-.72.78-1.71,1.09-2.63,1.56-2.33,1.21-4.51,2.71-6.9,3.78-4.18,1.89-8.37,3.75-12.37,6-.06.03-.15.02-.22,0-1.01-.07-1.56.62-2.33,1.1-1.34.84-2.8,2.12-4.65,1.73-1.03-.22-1.54.28-1.99.98-.36.57-.74,1.07-1.35,1.42-2.99,1.74-6.31,2.75-9.42,4.27-6.27,3.06-12.31,6.61-18.83,9.17-2.88,1.13-6.04,1.54-8.57,3.67-2.27,1.92-5.32,2.55-8.07,3.21-3.17.77-5.64,2.54-8.42,3.88-1.95.94-3.02,3.31-5.44,3.35-1.86.03-3.4.78-4.95,1.66-.96.54-1.91,1.15-3.1,1.04-2.2-.21-4.07.88-6.07,1.5-3.89,1.2-7.42,3.63-11.62,3.72-1.66.03-3,1.53-4.66.89-1.33-.51-2.44-.09-3.62.34-4.58,1.69-9.24,3.22-13.43,5.82-.92.57-1.69.71-1.68-.78.05-.15.09-.3.14-.45,1.7-1.38,3.16-2.89,3.03-5.32-.03-.6-.27-1.64-.62-1.46-1.49.79-3.53-.62-4.36.45-1.24,1.61-2.87,1.86-4.45,2.45-5.6,2.1-10.98,4.9-17.03,5.66l-.18.04Z"/>
      <path class="cls-6" d="m152.41,51.65c3.66-.69,7.35-1.22,10.85-2.56,1.88-.72,3.91-.53,5.86-.88,1.2-.21,1.67.82,1.88,1.78.25,1.14,0,2.35.42,3.49.2.55-.15,1.07-.69,1.22-5.07,1.35-9.36,4.82-14.69,5.45-1.24.15-1.87,1.02-2.05,2.04-.25,1.39-1.02,1.56-2.18,1.52-1.84-.06-3.71.15-5.53-.05-2.98-.32-5.06,1.2-7.07,3.01-1.21,1.09-3.02.97-3.94.43-2.02-1.18-4.24-.57-5.29.32-1.66,1.4-5.28.6-5.09,4.19.03.45-.42.87-.88.85-2.28-.11-3.21,1.64-4.4,3.06-.76.91-1.68.87-2.46.1-2.48-2.46-2.46-2.49,1.31-4.28-2.28-1.23-3.52-.76-4.15,1.64-.31,1.17-1.25,1.97-2.03,2.52-1.5,1.06-1.5,2.37-1.47,3.86.02,1.33-.02,2.65-.06,3.98,0,.13-.13.25-.21.4-.94-.13-.59-.89-.59-1.37,0-1.2-.16-2.14-1.21-3.09-.89-.8-1.37-2.37.4-3.21.56-.27.84-.58.66-1.18-.16-.53-.63-.57-1.08-.57-.74,0-1.5-.09-2.2.07-.82.2-1.41.82-.59,1.59,1.71,1.61.53,2.4-.79,3.15-1.03.59-1.09,1.2-1.01,2.46.16,2.4-.13,4.93-.78,7.26-.47,1.69-3.1,1.45-3.98,3.12-.09.17-.44.21-.52.39-1.91,3.91-5.66,3.48-8.99,3.59-2.38.08-4.24.73-5.78,2.49-.23.26-.6.63-.87.59-2.84-.33-4.42,2.22-6.7,2.91-3.74,1.14-6.53,4.24-10.5,4.74-.07,0-.14.03-.22.04-1.01.16-1.08,2.79-2.83,1.05-2.32-2.31-2.99-4.76-1.87-7.13.49-1.04,1.85-2.09.05-3.13-1.53-.88-2.94-1.15-4.22.6-.68.92-1.75,1.56-2.64,2.33-.63.54-1.38.62-2.08.31-2.28-.99-4.02-.52-5.57,1.53-.44.59-1.02.99-1.72,1.32-1.72.8-3.62,1.14-5.21,2.33-.92.69-2.43.59-3.42.1-1.79-.88-3.6-.32-5.37-.43-.79-.05-2.11.21-1.83,1.77.12.65-.55.52-.94.62-.38-1.77-.75-3.55-1.13-5.32.4-.21.5-.58.52-.99.65.25,1.13-.18,1.65-.42,7.47-3.43,14.94-6.88,22.41-10.3,22.13-10.14,44.3-20.2,66.39-30.42,14.19-6.57,28.64-12.49,43.31-17.89,4.55-1.68,8.99-3.7,13.75-4.76.24.21.48.42.72.63l-.12.07c-1.71.38-1.98,2.08-2.89,3.19-2.76.96-5.53,1.92-8.29,2.88-1.58.47-3.16.94-4.75,1.41,2.07.53,3.86-.25,5.65-.99,2.35-.61,4.7-1.22,7.05-1.83.14.3.29.6.43.9h0c-.29.14-.58.26-.88.39l-.09.04c-3.3-.15-6.17,1.53-9.27,2.19-2.2.47-4.34,1.23-6.61,1.36,0,0-.02-.03-.02-.03.04-.1.09-.2.15-.29.42-.15,1.35.12,1.1-.57-.21-.57-.96.09-1.47.21-.47.31-1.2.06-1.52.71l.03-.02c-.38,0-.83-.13-.91.47l.03-.02c-.52-.05-1.07-.21-1.34.46-.36.02-.79-.22-1.03.28.34.04.67.07,1.01.11-1.04,1.41-2.71,1.53-4.19,1.72-.69.09.29-.45.22-.78.2-.06.4-.12.6-.17-.04-.06-.12-.17-.13-.16-.17.09-.33.2-.5.31-.83-.05-1.65.11-2.3.61-2.37,1.85-5.16,2.84-7.91,3.92-.75.29-1.65.3-2.52,1.38,3.31-.79,6.33-1.18,9.06-2.27,2.64-1.05,5.27-1.88,8.04-2.37Zm-2.35-1.9c-.05-.06-.1-.15-.13-.14-.12.02-.23.07-.34.12.04.05.09.14.13.14.12-.02.23-.07.34-.11Z"/>
      <path class="cls-3" d="m27.52,101.71c-.02.41-.12.78-.52.99-.5-.12-.36-.58-.47-.9.03-1.16.07-2.32.1-3.48.12-.02.24-.05.35-.09.19,0,.37.02.56.03,0,1.15-.01,2.31-.02,3.46Z"/>
      <path class="cls-8" d="m27.89,108.01c.03.15.07.29.1.44-.08-.09-.17-.18-.23-.29-.01-.02.08-.1.13-.15Z"/>
      <path class="cls-10" d="m27.52,101.71c0-1.15.01-2.31.02-3.46.1-.16.2-.31.3-.47,1.52.03,1.96-.82,1.62-2.14-.25-.96-.34-1.89.05-2.81.66-1.54.68-3.15.61-4.77,1.3.1,2.29-.42,3.44-1.08,2.58-1.49,5.7-2.03,8.02-4.02,1.87-1.6,4.62-2.03,5.87-4.43.03-.06.1-.14.16-.15,2.41-.2,3.92-2.23,5.91-3.04,5-2.03,10.23-3.47,15.38-5.14,1.07-.35,1.78-1.19,2.64-1.78,2.45-1.67,4.41-4.13,7.82-4.4,2.24-.18,4.62-.8,6.25-2.8.78-.95,2.06-1.53,3.16-1.31,3.19.65,5.73-.7,8.29-2.18.72-.42,1.43-.73,2.29-.71.94.03,1.67-.43,2.51-.83,1.02-.49,1.72-2.02,3.61-1.29,1.25.49,3.16-.33,4.33-1.65.14-.16.31-.46.46-.45,5.03.16,7.13-4.88,11.26-6.34,1.72-.61,3.43-1.38,4.08-3.4.17-.52.76-.61,1.31-.66,3.03-.32,5.85-1.43,8.75-2.25,1.54-.44,2.19-2.01,3.81-2.47,1.39-.39,2.52-1.07,4.13-.73,1.21.26,2.41-.59,2.65-2.1.08-.51.04-1.3.64-1.22,1.84.26,3.38-1.19,5.26-.74,2.45.59,5.95-1.3,6.89-3.59.1-.25.01-.58.01-.88.96-1.06.96-2.56,1.7-3.72,2.17-.74,4.45-.95,6.46.12,1.37.73,2.69-.08,3.94.47,0,0,0,.09,0,.09.85,1.34,4.05,1.48,4.73.1.44-.9.81-1.35,1.79-.91.13.06.31.1.43.05,3.85-1.65,8.1-1.16,12.03-2.31.19-.06.28-.46.42-.69,1.92-.27,3.35-1.87,5.34-1.95q2.71.06,2.1-3.05c-.03-1.12-1.06-.9-1.67-1.25,2.16-1.9.47-3.97.45-6.03-1.08.32-1.24,1.49-2.22,1.62-.13-.1-.27-.21-.4-.31,0,.1,0,.2-.01.3-.27-.31-.49-.14-.7.07-.55.27-1.09.33-1.56-.17.31-.53.62-1.06.93-1.59.35-.18.71-.37,1.06-.55.89.26,1.64-.38,2.48-.41.27.37.67.39,1.08.39.11.02.22.04.34.06-.15,1.24.09,2.45.25,3.67.15,1.1.72.02,1.01.27.09.55,1.02.15.98.85-1.51.19-1.8,1.07-1.34,2.38.04.43.11.87.13,1.3.07,1.83,1.09,2.07,2.38,1.22.9-.6,1.86-.59,2.78-.88,1.49-.47,3.91.14,3.84-2.65,1.03-.2.11,1.75,1.1,1.15,1-.6,2.08-.01,2.97-.6,2.15,2.76,5.89,1.53,8.44,3.33.33.23,1.13.18,1.47-.07,2.11-1.58,4.44.21,6.6-.5.37-.12.66.49.74.95-4.74,1.55-9.49,3.11-14.23,4.66,4.31.45,8.05-1.5,12.04-2.26-.01.51.03,1.03-.6,1.28-2.98,1.19-5.94,2.47-8.95,3.58-2.34.86-4.75,1.5-7.3,1.4-.96-.04-1.97,1.45-2.89-.65.12,2.62-1.24,4.08-3.74,4.58-.07-1.09,1.71-.94,1.44-2.26-.81-.06-1.62-.11-2.46-.17.68-1.53,2.87-.55,3.27-2.29-.58-.29-1.1-.17-1.58,0-8.58,3.02-17.17,6.02-25.73,9.09-1.18.42-2.61.47-3.37,1.74-4.76,1.07-9.2,3.09-13.75,4.76-14.67,5.4-29.12,11.32-43.31,17.89-22.09,10.23-44.26,20.29-66.39,30.42-7.48,3.42-14.94,6.87-22.41,10.3-.52.24-1,.67-1.65.42Z"/>
      <path class="cls-11" d="m30.13,88.06c.07,1.63.05,3.23-.61,4.77-.39.91-.3,1.85-.05,2.81.34,1.32-.1,2.17-1.62,2.14-.05-3.57.72-6.96,2.22-10.2.02.16.04.32.06.48Z"/>
      <path class="cls-4" d="m54.01,115.07c0,1.49.76,1.35,1.68.78,4.19-2.6,8.85-4.13,13.43-5.82,1.18-.43,2.3-.85,3.62-.34,1.66.64,3-.86,4.66-.89,4.2-.08,7.73-2.52,11.62-3.72,2-.62,3.87-1.71,6.07-1.5,1.19.11,2.14-.5,3.1-1.04,1.54-.88,3.09-1.63,4.95-1.66,2.41-.03,3.48-2.41,5.44-3.35,2.78-1.34,5.25-3.11,8.42-3.88,2.75-.66,5.8-1.29,8.07-3.21,2.53-2.13,5.69-2.54,8.57-3.67,6.52-2.56,12.56-6.11,18.83-9.17,3.1-1.51,6.42-2.53,9.42-4.27.61-.35.98-.85,1.35-1.42.45-.7.97-1.2,1.99-.98,1.84.39,3.31-.9,4.65-1.73.77-.48,1.31-1.17,2.33-1.1.07,0,.16.02.22,0,4-2.26,8.19-4.12,12.37-6,2.38-1.07,4.57-2.58,6.9-3.78.91-.47,1.91-.78,2.63-1.56,1.69-1.83,4.08-2.07,6.26-2.78.57-.18,1.09-.32,1.57-.71,2.38-1.92,5.05-3.31,8.1-3.76,1.18-.18,1.41-1.43,2.44-1.77,2.59-.87,4.84-2.49,7.19-3.8,2.15-1.19,4.44-2.19,6.52-3.52.74-.47,1.34-1.21.8-2.03-.62-.94-1.67-1.65-2.86-1.18-4.53,1.78-9.52,2.29-13.73,5.01-.64.42-1.57.37-2.3.67-4.89,2.01-9.73,4.17-14.67,6.07-3.13,1.21-6.33,2.47-9.61,2.97-3.98.6-7.91-.17-10.92-3.3-.97-1.01-.93-2.05.61-2.15,6.04-.36,11.55-2.77,17.29-4.29,5.13-1.36,10.2-2.9,15.3-4.34.63-.18,1.3-.22,1.95-.33.85.4,1.66.96,2.55,1.18,1.43.35,2.95.58,4.06-.83.52-.65.91-1.36-.31-1.61-1.67-.34-1.15-1.05-.47-1.94.24-.31.22-.82.33-1.24-.01-.12,0-.23.05-.34,1.24-.15,2.49-.13,3.73-.24,4.43-.38,8.53-2.08,12.82-3.04,3.62-.81,7.33-1.26,10.88-2.49,1.57-.55,3.06-1.48,4.64-1.69,1.99-.26,3.16-1.22,4.07-2.81,1.37.19,1.94-1.77,3.42-1.27-.04,1.82-.55,3.78,2.33,4.08,1.2.13.73,1.32.3,1.95-.87,1.27-1.72,2.67-2.91,3.57-1.37,1.04-2.56,2.24-3.68,3.46-2.44,2.65-5.28,4.89-8.02,7.11-1.93,1.56-3.97,3.75-6.96,3.83-.93.02-1.83.59-2.54,1.26-2.67,2.54-5.93,4.11-9.46,4.6-1.86.26-3.31.02-3.38,2.41-.01.4-.58.6-.88.44-2.2-1.09-4.33.48-6.55.13-1.77-.28-2.67,1.88-4.45,2.06-3.62.36-6.55,2.46-9.77,3.86-2.28.98-4.12,2.01-5.87,3.8-1.33,1.35-2.76,3.59-5.48,2.65-.83-.28-1.46.41-2.17.84-1.21.74-2.32,1.89-3.99,1.5-.18-.04-.55.06-.59.19-.85,2.42-3.23,2.58-5.12,3.39-1.43.61-2.94,1.01-4.19,2.01-3.22,2.57-7.84,2.72-10.59,6.1-.31.38-.68.54-1.14.55-2.49.03-4.39,1.41-6.33,2.73-.48.33-1.02.62-1.57.79-3.32,1.02-5.69,3.47-8.33,5.49-.57.43-1.04.77-1.73.75-.91-.03-1.59.24-1.82,1.23-.18.78-.86.93-1.5,1.12-.87.26-1.7.55-1.6,1.75.04.46-.36,1.14-.66,1.01-2.58-1.09-3.36,1.74-5.17,2.39-2.08.74-4.13.8-6.22,1.07-.61.08-1.14.04-1.72-.07-1.15-.21-2.1,0-2.14,1.46-.04,1.46-1.09,1.91-2.23,1.95-1.43.05-2.53.57-3.53,1.56-1.16,1.16-2.62.82-3.96.47-1.2-.31-2.18-.22-2.99.76-.66.8-1.63,1.1-2.56,1.18-3.32.27-6.23,1.46-9.19,2.97-1.13.58-3.16,2.77-5,.46-.07-.09-.66.02-.75.18-.61,1.13-1.81,1.01-2.72,1.48-1.43.74-2.88,1.41-4.33,2.11-2.84,1.38-5.29,3.52-8.34,4.57-2.44.84-6.35-.22-7.94-2.28-.54-.7-.91-.9-1.8-.62-5.52,1.68-10.44,4.51-15.22,7.66-1.17.77-2.48,1.32-3.61,2.13-1.09.78-1.37,1.34.21,2.33,4.23,2.62,8.98,2.7,13.63,3.37-2.46.58-4.99-.33-7.45.36-.51-.7-1.33-.19-2.01-.57-3.97-2.2-8-3.93-12,0-.19.19-.53.23-.79.34-1.89-1.92.24-2.84,1.22-3.27,2.73-1.19,4.95-3.13,7.35-4.74,2.12-1.42,4.16-3,6.3-4.4,1.03-.68,1.27-1.26-.08-1.8,0-.26,0-.52,0-.78.16-.3.33-.59.49-.89.09-.18.17-.37.26-.55.19.01.39.02.58.03l-.03-.02c.13.15.26.29.39.44Z"/>
      <path class="cls-1" d="m106.12,122.63c-3.81-2.53-7.59-1.38-11.55-.24-4.43,1.28-8.87,2.63-13.45,3.34.35-1.33,1.77-1.51,2.59-1.63,4.48-.65,8.81-2.05,12.81-3.87,2.84-1.29,6.44-.91,8.67-3.88.75-1,2.74-.68,4.14-1.06,5.57-1.51,10.77-3.97,16.15-5.9,2.51-.9,4.95-2.2,7.64-2.77,1.91-.41,3.94-.94,5.51-2.02,2.74-1.87,6.01-2.17,8.96-3.36,3.63-1.47,7.72-2.12,11.59-3.13,3.91-1.02,7.89-.09,11.82-1.42,2.64-.89,5.1-2.65,8.01-2.61,2.04.03,3.49-1.09,5.03-2.07,2.1-1.34,4.83-1.19,6.74-2.95.32-.3.78-.44,1.08-.75,2.44-2.5,5.39-4.03,8.61-5.38,2.48-1.04,4.76-2.86,6.74-4.73,2.65-2.51,5.76-4.29,8.87-5.99,3.12-1.71,5.65-4.1,8.42-6.23,6.38-4.92,12.45-10.17,18.38-15.62,4.06-3.73,8.05-7.55,11.55-11.74,2.8-3.35,6.1-6.48,7.71-10.74.27-.72.56-1.87,1.53-1.51.79.29.66,1.49.79,2.33.01.07-.01.16-.05.21-2.64,3.84-3.73,8.55-6.77,12.16-.08.1-.27.11-.4.17-1.33-1.2-2.2-.09-2.95.73-3.29,3.63-6.24,7.64-9.87,10.9-2.39,2.14-4.32,4.81-7.23,6.49-1.99,1.15-2.76,3.7-4.63,5.24-1.17.96-2.17,2.21-3.46,3-3.26,2.01-6.12,4.59-8.9,7.09-1.85,1.66-4.01,2.74-5.91,4.18-2.52,1.91-5.26,3.77-8.04,5.22-4.55,2.38-9.02,4.93-13.62,7.24-2.24,1.13-4.73,1.63-6.87,2.94-2.79,1.7-5.94,2.55-8.91,3.85-3.3,1.44-6.95,1.77-10.49,2.3-4.72.7-9.32,1.86-13.93,3-5.52,1.36-11.16,2.41-16.48,4.33-4.99,1.8-10.08,3.38-14.95,5.49-1.17.51-2.31.86-3.54,1.11-4.13.83-7.84,2.79-11.68,4.39-.8.33-1.6.7-2.46,1.08.75.34,1.46.14,2.18-.05,3-.76,6-1.5,8.99-2.26q3.39-.86,4.27,2.52c-3.81,1.01-7.64,1.87-11.53,2.5-.37.05-.75.1-1.12.16Z"/>
      <path class="cls-9" d="m259.31,22.07c-1.58-1.7-3.57-.77-5.29-.9-1.48-.5-2.06,1.46-3.43,1.27-1.12-1.72-2.56-2.06-4.56-1.49-2.04.58-4.03,1.3-6.05,1.92-7.9,2.44-15.76,5.01-23.51,7.9-.91.34-2.11.5-2.01,1.94-.05.11-.07.22-.05.34-.73.24-1.59.25-2.06.98-.84,1.3-2.15,1.53-3.53,1.68-.7-.51-.27-2.3-1.94-1.72-.03-.18-.06-.36-.09-.54.99-1.25,2.69-.16,3.76-1.16.87-.26,1.82-.37,2.22-1.38h0c.75-.02,1.51,0,1.92-.82.24-.07.47-.14.71-.21,5.22-1.31,10-3.82,15.08-5.52,5.5-1.84,10.88-4,16.47-5.58,2.68-.76,5.42-.32,8.12-.28,2.18.03,3.6-1.41,5.32-2.21,1.25-.58.8-3.38-.58-4.72-.47-.45-1.03-.81-1.52-1.19.53-.99,1.74-.41,2.29-1.19,2.77.85,4.44,3.86,3.89,6.12-1.09,3.03-2.61,5.59-5.15,6.73Z"/>
      <path class="cls-1" d="m252.72,47.85c.32-1.78,1.94-2.9,2.33-4.63.27.08.55.15.82.23-.76,1.68-1.13,3.63-3.15,4.4Z"/>
      <path class="cls-12" d="m91.39,45.85c.28-.15.55-.3.83-.45,1.27-.5,2.47-1.12,3.51-2.01.31-.35.62-.7.93-1.04,1.14.29,1.96-.43,2.84-.91,5.06-2.79,10.11-5.61,15.17-8.41.07.03.13.08.2.09,2.5.4,2.35.3.71,2.83-1.26,1.93-2.72,3.79-3.42,6.05-.01.29-.02.58-.03.87,0,0,0-.01,0-.01-.51.33-.48.83-.45,1.34,0,0,0-.01,0-.01-.16,0-.31,0-.47,0-.45-.22-.84-1.27-1.38-.42-1.46,2.29-4,1.88-6.08,2.6-.61.21-1.45.08-1.76.73-.8,1.66-2.21,2.12-3.86,2.6-4.51,1.31-8.26,4.33-12.79,5.75-4.37,1.37-8.76,2.94-12.64,5.36-2.43,1.51-5.13,2.38-7.56,3.89-3.45,2.14-7.52,3.12-11.11,5.1-1,.55-1.68,1.41-2.66,1.92-1.06.56-2.12,1.02-3.37.85-.47-.06-.88-.17-.96-.71-.07-.5.13-.82.61-1.04,2.83-1.28,4.69-3.9,7.51-5.3,4.31-2.13,8.38-4.73,12.63-7.01.79-.42,1.45-.98,2.19-1.43,2.97-1.8,2.96-1.81,1.44-4.91,2.15.65,3.84,3.57,6.13,1,1.28.11,2.24-.6,3.21-1.28,3.62-1.86,7.19-3.8,10.62-6.01Z"/>
      <path class="cls-12" d="m197.45,8.71c-.41,0-.81-.02-1.08-.39.57-.53.52-1.11.09-1.84-1.01.6-1.87,1.33-2.57,2.25-.35.18-.71.37-1.06.55-.15-1.21-1.03-.6-1.52-.49-3.06.68-6.09,1.44-9.14,2.17l-.02-.02c0-.27.01-.54.02-.81,1.33-.77,2.36-1.85,3.59-3.24-2.74-.07-4.01,1.6-5.35,3.16-.01.51.05.96.45,1.38.67.71.35,1.14-.5,1.33-.69.01-1.38.03-2.07.04-1.24-1.32-2.48-2.05-4.09-.41-.73.75-1.86,1.15-2.85.57-1.3-.76.18-2.04-.33-3.01.13-.44.95-.57.62-1.15-.09-.17-.65-.08-1-.11.35-2.27,2.08-1.44,3-.96,2.06,1.08,1.89-.08,1.8-1.42.28-.05.57-.11.85-.16.18.2.39.58.53.56.57-.09.41-.63.48-1.03.57-.27,1.13-.55,1.7-.82.64,1.16,1.6.86,2.46.42,1.39-.71,2.95-.79,4.38-1.29,1.07-.37,1.33.26,1.66,1.15.65-.81.12-2.44,1.75-2.16-.1.38-.6.87-.09,1.14.89.47,1.58,0,2.33-.83-.88-.12-1.56-.22-2.25-.32-.44-.27-.88-.55-1.32-.82,1.45-.36,2.93-.57,4.43-.52-.24,1.32.39,1.7,1.54,1.33,2.1-.67,3.94.06,5.75.99-1.85,1.07-2.73,2.59-2.22,4.77Z"/>
      <path class="cls-6" d="m191.9,10.87c.47.5,1,.44,1.56.17.1.14.21.28.31.42-.13.27-.26.54-.39.81-.04.17-.09.35-.13.52.86-.32,1.44-.85,1.35-1.86l-.03.04c.98-.12,1.14-1.3,2.22-1.62.02,2.06,1.71,4.13-.45,6.03,0,0,.03-.03.03-.03-.47-.17-.74.07-.93.46l.04-.02c-.32.02-.53.17-.6.49-.62.38-1.3.69-1.83,1.16-.26.23-.83.6-.23,1.19.67.66.64,1.03-.03,1.31-.8.34-1.67.52-2.51.77.01-.56.44-1.11.08-1.69.17-.23.33-.46.5-.69.74-1.51,1.49-3.03,2.23-4.54.14-.2.39-.43.11-.66-.31-.25-.41.11-.56.28-.96,1.38-1.73,2.85-2.2,4.46-.32.37-.38.75-.06,1.15-1.5-.22-.75-1.6-1.21-2.36-.05-.29-.09-.58-.14-.87.07-.14.06-.28-.03-.41.97-1.51,1.94-3.02,2.91-4.53Z"/>
      <path class="cls-3" d="m190.27,20.73c.84-.25,1.71-.43,2.51-.77.67-.29.7-.65.03-1.31-.6-.6-.03-.96.23-1.19.54-.47,1.21-.78,1.83-1.16.41.09.76.11.6-.49,0,0-.04.02-.04.02.58.39.78.02.93-.46,0,0-.03.03-.03.03.6.35,1.64.13,1.67,1.25-1.24-.38-1.45.6-1.38,1.32.08.81-.37,1.2-.72,1.73-1.99.08-3.42,1.68-5.34,1.95-.46-.1-.81-.29-.68-.86.13,0,.26-.03.38-.06Z"/>
      <path class="cls-6" d="m171.15,25.4s0-.09,0-.09c.88-.86.89-2.09,1.35-3.13.3-.69.63-1.3,1.37-1.59.55-.22,1.16-.55,1.67-.23.71.44.08,1.07-.07,1.56-1.14,3.67-1.41,3.87-4.33,3.49Z"/>
      <path class="cls-6" d="m160.75,24.72c-.74,1.16-.74,2.66-1.7,3.72-.68.2-1.51.73-1.98.04-.24-.34.18-1.21.41-1.8.43-1.12.58-2.48,2.03-2.87.75-.2,1.54-.36,1.25.91Z"/>
      <path class="cls-3" d="m178.29,12.81c.69-.01,1.38-.03,2.07-.04-1.58,1.63-1.89,4.8-5.24,4.34.84-2.22,1.4-2.97,3.16-4.3Z"/>
      <path class="cls-6" d="m147.81,27.26c-.56,1.53-.97,2.85-1.53,4.1-.32.72-1.12,1.16-1.83.79-.69-.36-.08-1.08.1-1.56.55-1.43.67-3.29,3.26-3.33Z"/>
      <path class="cls-3" d="m165.7,15.47c-1.48,1.37-1.54,3.4-3.42,3.96-.38.11-.85.52-1.19.04-.33-.47-.17-.86.33-1.27,1.2-1,1.66-3.01,4.28-2.73Z"/>
      <path class="cls-3" d="m148.12,22.45c1.5-1.16,1.74-3.61,4.04-3.95-.49,2.47-1.8,3.83-4.04,3.95Z"/>
      <path class="cls-9" d="m180.41,10.05c1.34-1.56,2.61-3.23,5.35-3.16-1.22,1.4-2.26,2.48-3.59,3.24-.59-.03-1.17-.06-1.76-.08Z"/>
      <path class="cls-6" d="m136.26,31.07c-1.06,4.28-1.08,4.31-3.12,5,.72-1.85.53-4.02,3.12-5Z"/>
      <path class="cls-9" d="m170.64,8.69c.35.03.9-.06,1,.11.33.59-.49.71-.62,1.15q-2.66,1.94-4.27,2.1c1.06-1.56,2.36-2.59,3.89-3.36Z"/>
      <path class="cls-3" d="m118.91,40.1c-.86,1.69-.73,3.47-2.25,4.47-.65-1.91.16-3.74,2.25-4.47Z"/>
      <path class="cls-6" d="m188.38,16.65c.13.01.26.04.38.09.05,1.34-.03,2.7.51,3.98-.38.3-.67.93-1.22.74-.63-.21-.66-.88-.66-1.48,0-1.12.42-2.14.75-3.18,0,0,.17,0,.17,0l.07-.16Z"/>
      <path class="cls-6" d="m124.28,40.76c.67-2.23.7-4.05,2.87-5.35-.74,2-.79,3.81-2.87,5.35Z"/>
      <path class="cls-9" d="m141.18,22.27c-.96,1.36-1.15,3.41-3.6,4.04.88-2.02,1.75-3.46,3.6-4.04Z"/>
      <path class="cls-9" d="m176.29,6.14c-.28.05-.57.11-.85.16-.89-.18-.92-.23-.73-.34,1.38-.8,2.7-1.77,4.43-1.62.04,0,.11.12.1.15-.06.13-.16.24-.24.36-.57.27-1.13.55-1.7.82-.39.04-.77.1-1.01.47Z"/>
      <path class="cls-6" d="m155.19,14.62c.48-1.62,1.78-2.27,3.27-2.69-.81,1.23-1.76,2.29-3.29,2.63l.02.06Z"/>
      <path class="cls-10" d="m189.28,20.71c-.54-1.28-.47-2.63-.51-3.98.13-.04.26-.05.4-.05.45.76-.29,2.13,1.2,2.36,0,0-.02-.01-.02-.01.37.58-.06,1.13-.08,1.69-.13.03-.25.05-.38.06-.2-.03-.41-.05-.61-.08Z"/>
      <path class="cls-9" d="m131.69,27.39c-.8,1.12-1.17,2.57-2.52,3.27l-.31-.33c.73-1.17,1.2-2.56,2.6-3.19.07.09.15.17.23.25Z"/>
      <path class="cls-10" d="m111.26,44.64c-.02,1.06.19,2.2-1.14,3.12.06-1.34.57-2.24,1.12-3.13,0,0,.01.01.01.01Z"/>
      <path class="cls-9" d="m121.27,33.83c.23-.38.41-1.15.95-.67.43.38-.17.86-.53,1.18-.14-.17-.28-.34-.42-.51Z"/>
      <path class="cls-10" d="m188.38,16.65s-.07.16-.07.16c0,0-.17,0-.17,0-.15-.19-.3-.38-.46-.56.1-.07.2-.14.3-.2.13.2.26.41.4.61Z"/>
      <path class="cls-10" d="m111.68,44.19c-.03-.51-.06-1.02.45-1.34,0,.5.06,1.02-.45,1.34Z"/>
      <path class="cls-9" d="m121.69,34.35c-.2.21-.4.42-.6.63-.1-.11-.22-.2-.35-.27.17-.29.35-.59.52-.88.14.17.28.34.42.51Z"/>
      <path class="cls-10" d="m112.12,42.86c.01-.29.02-.58.03-.87.45.31.4.59-.03.87Z"/>
      <path class="cls-10" d="m111.22,44.18c.16,0,.31,0,.47,0-.15.15-.29.31-.43.46,0,0-.01-.01-.01-.01,0-.15-.02-.3-.02-.45Z"/>
      <path class="cls-9" d="m121.09,34.98c-.11.07-.25.23-.31.2-.25-.12-.18-.3-.03-.47.13.07.24.16.34.27Z"/>
      <path class="cls-9" d="m123.06,32.44c-.18.14-.31.53-.61.28-.3-.26.01-.45.17-.64.15.12.29.24.44.36Z"/>
      <path class="cls-9" d="m122.62,32.08c.16-.14.32-.28.48-.42.1.1.2.2.3.29-.11.16-.23.32-.34.49-.14-.12-.29-.24-.43-.36Z"/>
      <path class="cls-9" d="m123.1,31.66c.11-.07.28-.24.33-.21.27.16.11.34-.03.5-.1-.1-.2-.19-.3-.29Z"/>
      <path class="cls-9" d="m129.16,30.66c-.17.12-.35.24-.49,0-.03-.05.12-.21.19-.32.1.11.2.22.31.32Z"/>
      <path class="cls-9" d="m131.46,27.14c.15,0,.3-.02.45-.02-.07.09-.15.18-.22.27-.08-.08-.16-.16-.23-.25Z"/>
      <path class="cls-10" d="m188.98,15.4c.09.13.1.27.03.41-.05-.09-.11-.18-.13-.28,0-.03.07-.09.1-.13Z"/>
      <path class="cls-6" d="m155.17,14.56c-.1.02-.21.04-.31.06.03-.05.05-.1.08-.15.08.05.17.1.25.15,0,0-.02-.05-.02-.05Z"/>
      <path class="cls-12" d="m182.17,10.96c-.04.06-.07.11-.11.17.03-.06.06-.13.09-.19,0,0,.02.02.02.02Z"/>
      <path class="cls-12" d="m215.4,29.89c-.24.07-.47.14-.71.21-.76,0-1.71-.45-1.92.82,0,0,0,0,0,0-1.01.03-2.03.04-2.22,1.38-1.06,1-2.77-.09-3.75,1.16-.3-.06-.6-.12-.9-.18-1.26-.18-2.43-.03-3.4.9-.27.08-.55.16-.82.25-.98-.56-1.66-.09-2.28.65-.85.3-1.64.79-2.58.76-.49-.59-.78-.4-.95.24-3,.92-6,1.83-9,2.75-4.82,1.48-9.63,2.96-14.45,4.45-2.35.61-4.7,1.22-7.05,1.83-.3-.14-.6-.28-.9-.42,2.76-.96,5.53-1.92,8.29-2.88,2.14,0,2.74-1.39,2.89-3.19,0,0,.12-.07.12-.07.82-.26,1.9-1.32,2.35.14.47,1.51,1.27,1.06,2.16.78,7.77-2.45,15.55-4.83,23.19-7.68,2.51-.5,3.86-1.96,3.74-4.58.92,2.1,1.93.62,2.89.65,2.55.1,4.96-.53,7.3-1.4,3.01-1.11,5.96-2.39,8.95-3.58.63-.25.59-.77.6-1.28,2.77-.77,5.54-1.53,8.3-2.3,2.02-.13,3.9-.85,5.85-1.29.6-.07,1.33-.18,1.1-.97-.15-.52-.71-.31-1.06.05-.31,0-.61,0-.92,0-.87-.6-1.75-.6-2.63-.02-.6.02-1.2.04-1.79.07,1.23-2.36,3.91-1.55,5.74-2.62.4-.23,1.11.03,1.24-.65.11-.6-.35-.91-.81-1.19-.63-.38-1.09-.91-.6-1.62.42-.62,1.14-1.13,1.89-.78,2.06.95,3.64.2,5.11-1.21,2.07-1.98,4.61-1.45,7.05-1.16,1.03.12,1.33,1.43.65,2.16-.53.56-.3,1.14.82,1.23,1.5.11,2.34.85,2.69,2.17.28,1.07.19,1.72-1.13,2.54-2.65,1.66-5.19,1.57-8.04,1.17-3.92-.55-7.16,1.83-10.72,2.85-4.09,1.17-8.08,2.65-12,4.22-4.17,1.67-8.52,3.03-12.29,5.62Z"/>
      <path class="cls-9" d="m217.55,8.96c-.58-.97-.66-1.92.07-2.86.44,1.32,1.07.24,1.44.02,1.29-.77,2.84-1.47,4.1-1.2,1.16.24,1.75.1,2.45-.62,1.36,1.29,1.38,3.57.03,4.47-.61.03-1.19.11-1.35.85h-.01c-1.01-.07-2.04-.19-2.66.9h.02c-.37,0-.73.04-.91.44h.02c-.73.12-1.45.24-2.18.37-.02-.16-.04-.33-.06-.49.98-1.28-.21-1.46-.95-1.88Zm5.64-3.24c-.05.04-.1.08-.15.12.05.05.09.13.14.13.05,0,.1-.07.15-.11-.05-.05-.09-.09-.14-.14Z"/>
      <path class="cls-6" d="m211.88,15.48c-.9.58-1.98,0-2.97.6-.99.6-.08-1.36-1.1-1.15l.04.04c.48-.92,0-1.8-.13-2.7-.08-.57-.15-1.14-.23-1.71.73-.17,1.46-.35,2.19-.52.45.6.9,1.19,1.36,1.79-.1.24-.2.48-.3.72-.16.3-.32.6-.48.9.11.05.23.14.34.13.53-.06.35-.51.42-.81.43-.17.64-.45.43-.92l-.03.03c.84.14.71-.91,1.3-1.07.15.21.29.41.44.62-.03.29-.37.67.19.8.11.03.33-.04.35-.11.15-.44-.24-.55-.5-.72.33-.43.79-.89,1.27-.46,1.1,1,1.57-.04,2.23-.56.76,1.36.43,2.21-1.05,2.87-1.33.59-2.52,1.49-3.77,2.25Z"/>
      <path class="cls-9" d="m235.25,19.31c-2.77.77-5.54,1.53-8.3,2.3-4,.76-7.74,2.71-12.04,2.26,4.75-1.55,9.49-3.11,14.23-4.66,1.04-.23,2.07-.47,3.11-.7.79,1.04,2.17-.08,3,.81Z"/>
      <path class="cls-3" d="m216.7,10.37c-.65.52-1.12,1.56-2.23.56-.48-.43-.94.03-1.27.46l-.05.03c-.15-.21-.29-.41-.44-.62.02-.25.03-.5.05-.75l-.02.03c.5-.14.88-.33.46-.93l-.02.03c.48.22.59.01.49-.43h-.02c.49.2.54-.06.46-.44v.06c.61-.32,1.23-.65,1.9-1,.23.7.44,1.37.66,2.03.12.37.32.73.73.39.16-.14.1-.55.14-.84.74.41,1.93.59.95,1.87-.89.96-1-1.07-1.8-.47Z"/>
      <path class="cls-9" d="m225.63,10.07c-1.3,3.14-4.51,2.56-6.93,3.37-1.09.37-.67-.68-.22-1.22.9-.17,1.81-.31,2.25-1.28,0,0-.02.01-.02.01.43.1.79.06.91-.46,0,0-.02.01-.02.01,1.05.19,1.98.02,2.66-.89,0,0,.01,0,.01,0,.45.15.9.3,1.35.45Z"/>
      <path class="cls-10" d="m235.25,19.31c-.84-.88-2.21.23-3-.81.92-1.13,2.38-.86,3.55-1.35.6-.02,1.2-.04,1.79-.07.87.76,1.75.74,2.63.02.31,0,.61,0,.92,0-.01.31-.02.62-.04.92-1.95.44-3.84,1.15-5.85,1.29Z"/>
      <path class="cls-10" d="m225.6,4.3c-.69.72-1.28.86-2.45.62-1.26-.26-2.81.44-4.1,1.2-.37.22-1,1.3-1.44-.02-.01-.39-.09-.74-.48-.94.34-.91,1.42-.18,1.87-.85.75-.48,1.54,1.05,2.28-.04.79-.06,1.61-.09,1.01-1.26,0,0,.03.1.03.1.15.07.3.13.45.19.31,1.17.79.84,1.3.14.14.48.49.37.83.3.11.03.19.09.26.19.15.12.29.25.44.37Z"/>
      <path class="cls-9" d="m238.9,5.38c.27-.26.57-.42.93-.18.69.64,1.53.31,2.31.36,1.6.12,3.22-.27,4.79.25.01,1.11-.91.55-1.27.56-1.7.02-3.13.83-4.65,1.39-.41-1.35-1.75-.74-2.57-1.22,0-.13,0-.25.02-.38.14-.26.28-.52.42-.78Z"/>
      <path class="cls-7" d="m246.94,5.81c-1.57-.52-3.2-.13-4.79-.25-.78-.06-1.62.28-2.31-.36,0,0-.04.02-.04.02.54.12,1.07.19,1.34-.46,0,0-.03.02-.03.02.53.06,1.11.27,1.36-.47,0,0-.03.02-.03.02,1.89.24,3.88-.65,5.69.47.27,1.12-.51,1.01-1.2,1.02Z"/>
      <path class="cls-3" d="m227.8,3.87c1.82.39,3.57-.35,5.59-.43-2.01,1.87-4.16,1.69-6.37,1.22-.21-.72.18-.86.78-.79Z"/>
      <path class="cls-9" d="m228.22,9.44c1.86.26,3.51-1.08,5.38-.69-.56.78-4.58,2.29-5.2,1.89-.42-.27-.23-.78-.18-1.2Z"/>
      <path class="cls-9" d="m233.58,8.76c1.33-.61,2.67-1.22,4-1.83.27,1.07.17,1.76-1.22,1.95-.97.13-1.85-.12-2.78-.11Z"/>
      <path class="cls-3" d="m238.45,6.54c.82.49,2.16-.12,2.57,1.22-1.21.19-2.72,1.12-2.91-1.19.12,0,.23,0,.35-.04Z"/>
      <path class="cls-10" d="m220.73,10.94c-.44.97-1.36,1.11-2.25,1.28.03-.3.05-.6.08-.9.73-.13,1.45-.25,2.18-.38Z"/>
      <path class="cls-10" d="m225.63,10.07c-.45-.15-.9-.3-1.35-.45.16-.74.74-.82,1.35-.85.11.43.69.87,0,1.3Z"/>
      <path class="cls-10" d="m229.97,6.52c.2.27.4.55.59.82-.57.11-1.14.21-1.48-.44,0,0,.03.06.03.06.16-.16.31-.31.47-.47,0,0-.02,0-.02,0,.14,0,.28.01.41.02Z"/>
      <path class="cls-12" d="m193.64,1.42c-.07.36-.2.48-.44.1.15-.03.29-.07.44-.1Z"/>
      <path class="cls-9" d="m209.68,10.03c-.73.17-1.46.35-2.19.52-.18-.53-.18-1.03.43-1.26.49-.18.88-.64.42-.89-2.64-1.43-1.19-3.13-.44-4.81.73-.68,1.57-1.11,2.59-1.14,0,0,.07.08.07.08,1.47,1.2,2.97-.37,4.45.04-.02.21-.04.43-.05.64-.25.75-1.74.53-1.42,1.62.29,1.02,1.36-.05,1.91.5.1.1.25.15.38.23-1.19,1.36-3.32.75-4.48,2.08.73.99,2.28-1.38,2.77.71,0,0,0-.06,0-.06-.34-.04-.43.18-.46.45,0,0,.02-.01.02-.01-.17,0-.34,0-.51,0-1.26.14-2.55.22-3.48,1.27Z"/>
      <path class="cls-9" d="m197.45,8.71c-.51-2.17.36-3.7,2.22-4.77,1.15-.31,2.27-.35,3.19-1.51.72-.91,2.13-.87,3.1.22-.86.47-3.23.18-1.1,2.17-.42.74-1.42.31-1.88.95q1.29.95,2.91-.09c.21.95.68,1.76.47,2.73-1.66-.39-3.15.27-4.68.74-.18-.95-.53-1.56-1.66-1.04-.7.32-1.38.81-2.23.66-.11-.02-.22-.04-.34-.06Zm1.1-1.41c-.1-.06-.21-.11-.31-.17-.06.11-.16.22-.17.34,0,.05.19.11.29.17.06-.11.12-.22.18-.34Z"/>
      <path class="cls-7" d="m207.8,14.93c.07,2.79-2.35,2.18-3.84,2.65-.92.29-1.88.29-2.78.88-1.29.85-2.31.61-2.38-1.22-.02-.43-.08-.87-.13-1.3,1.46-.43,2.34-2.58,4.33-1.47.18.27-.04.79.51.81.06,0,.17-.08.17-.12.03-.5-.47-.44-.72-.65.23-.77.2-1.74,1.38-1.79-.14.41-.4.94.09,1.18.3.15.72-.27.71-.63-.02-.58.31-.96.55-1.4.48.05,1.05-.2,1.37.4.18.92-.05,1.96.77,2.7l-.04-.04Zm-4.75,1.42c-.18.16-.39.25-.42.39-.05.17.04.39.07.58.22-.14.45-.27.63-.44.03-.03-.15-.29-.28-.52Z"/>
      <path class="cls-3" d="m201.68,9.15c1.52-.47,3.02-1.13,4.68-.74.29.48-.17.77-.29,1.15-.64.14-1.25.31-1.66.88-1.86.48-2.92,2.08-4.39,3.12.03-.7-.89-.3-.98-.85,0,0-.04.04-.04.04.47-.16.57-.49.47-.93l-.03.04c.42.11.46-.17.49-.48l-.03.04c.53-.12.43-.55.46-.91h-.01c.42-.15,1.15,0,.88-.87l.04-.04c.37.1.48-.06.4-.4l.03-.05Z"/>
      <path class="cls-9" d="m200.02,13.56c1.46-1.04,2.53-2.63,4.39-3.12.44.15,1.02-.08,1.28.52-.14.29-.28.58-.42.87-.3.3-.61.59-.91.89-1.18.04-1.14,1.02-1.38,1.79l.03-.03c-1.99-1.11-2.86,1.04-4.33,1.47-.46-1.3-.17-2.18,1.34-2.38Z"/>
      <path class="cls-6" d="m210.48,2.46c-1.02.03-1.85.46-2.59,1.14-.36.19-.92.65-1.11.24-.32-.68-.44-1.53.18-2.22,1.03.63,2.07.04,3.1-.02.93-.06.69.38.42.87Z"/>
      <path class="cls-3" d="m204.85,4.82c-2.13-1.99.24-1.69,1.1-2.17-.38.72.14,1.88-1.1,2.17Z"/>
      <path class="cls-10" d="m207.84,14.96c-.82-.74-.59-1.78-.77-2.7.21,0,.43,0,.64,0,.12.9.61,1.77.13,2.7Z"/>
      <path class="cls-10" d="m204.35,12.72c.3-.3.61-.59.91-.89.15-.02.29-.01.44.03-.24.44-.57.82-.55,1.4.01.36-.41.78-.71.63-.49-.24-.23-.76-.09-1.18Z"/>
      <path class="cls-10" d="m205.68,10.96c-.26-.59-.84-.37-1.28-.52.41-.57,1.03-.74,1.66-.88-.2.45.87,1.24-.38,1.4Z"/>
      <path class="cls-6" d="m235.35,3.47c1.4-.44,1.52.46,1.73,1.5.24,1.2-.54,1.11-1.26,1.21-.58.08-1.17.18-1.75.28-1.46-1.8.34-2.21,1.28-2.99Z"/>
      <path class="cls-8" d="m229.58,6.49c-.16.16-.31.31-.47.47-.03-.34.16-.47.47-.47Z"/>
      <path class="cls-8" d="m229.97,6.52c-.14-.01-.27-.02-.41-.02.1-.1.21-.2.31-.3.03.11.07.21.1.32Z"/>
      <path class="cls-8" d="m238.9,5.38c-.14.26-.28.52-.42.78,0-.17,0-.33,0-.5.14-.1.29-.19.43-.29Z"/>
      <path class="cls-6" d="m222.29,3.01c.6,1.17-.22,1.2-1.01,1.26-.78-1.24-1.55-1.76-2.28.04-.44.68-1.53-.06-1.87.85-.24-.96-1.86-2.14.43-2.7.62,0,1.23.01,1.85.02.43.08.78-.06,1.07-.38.53,0,1.05,0,1.58,0,0,0-.02-.02-.02-.02.08.31.16.63.24.94Z"/>
      <path class="cls-6" d="m215,2.59c-1.48-.41-2.98,1.16-4.45-.04,1.8-.14,3.26-1.63,5.19-1.26,0,.24-.01.49-.02.73-.11.16-.22.32-.33.49-.12.04-.25.07-.38.09Z"/>
      <path class="cls-3" d="m215.82,5.58c-.13-.07-.27-.13-.38-.23-.55-.55-1.62.52-1.91-.5-.32-1.1,1.17-.87,1.42-1.62,1.69.27.56,1.57.87,2.35Z"/>
      <path class="cls-9" d="m215.38,2.5c.11-.16.22-.32.33-.49.08.29-.01.47-.33.49Z"/>
      <path class="cls-9" d="m242.47,4.3c-.25.74-.83.53-1.36.47.24-.76.88-.39,1.36-.47Z"/>
      <path class="cls-9" d="m241.14,4.76c-.28.65-.8.58-1.34.46.21-.84.83-.5,1.34-.46Z"/>
      <path class="cls-9" d="m222.07,2.1c-.53,0-1.05,0-1.58,0,.53-.57,1.05-.78,1.58,0Z"/>
      <path class="cls-6" d="m223.81,2.51c-.12.38-.29.31-.48.05.16-.02.32-.04.48-.05Z"/>
      <path class="cls-6" d="m224.07,3.45c-.52.7-.99,1.03-1.3-.14.43.05.87.1,1.3.14Z"/>
      <path class="cls-5" d="m107.24,122.48c3.89-.63,7.72-1.49,11.53-2.5.41,1.59-.8,2.87-.83,4.37-.31.15-.62.29-.94.44-.3.05-.59.1-.89.15-1.47.26-2.94.52-4.41.78-.36-.45-.66-.46-.87.13,0,0,0-.1,0-.1-.61,0-1.22,0-1.83,0,0,0-.03.06-.03.06.03-1.26-.02-2.45-1.82-2.23,0,0,.06-.02.06-.02,0-.37.02-.73.03-1.1Z"/>
      <path class="cls-5" d="m119.55,116c.23,1.51.34,3.04.72,4.51.38,1.46.03,2.54-1.09,3.45-.06-2.41.44-4.84-.29-7.23-.12-.4.31-.6.66-.73Z"/>
      <path class="cls-6" d="m52.32,116.07c0,.26,0,.52,0,.78-.67,1.55-2.44,1.1-3.51,1.92-3.33,2.56-6.61,5.18-9.99,7.65-1.58,1.15-3.26,2.25-4.84,3.35-1.72,1.2-3.85,2.1-5.11,4.06-.82,1.28-2.49,1.72-3.75,2.55-2.77,1.84-5.11,4.19-7.82,6.07-2.58,1.17-4.86,2.84-7.22,4.36-.68.44-1.28.95-2.12,1.02-.78-.66-1.4-.45-1.95.32-.34.47-.73.68-1.21.14.03-.64.06-1.29.09-1.93,1.44-.91,3-1.54,4.65-1.98,4.04-1.07,7.1-3.83,10.35-6.22,9.26-6.8,18.47-13.66,27.68-20.54.77-.58,1.89-.9,2.07-2.09,0,0-.01,0-.01,0,.52.25.99.08,1.44-.19.26,0,.52.01.78.02l.45.69Z"/>
      <path class="cls-3" d="m29.83,122.09c.37-.98.13-2.11.76-3.02.5-.3.31-1.17,1.04-1.28,0,.39-.02.79-.03,1.18.01.21.02.41.04.62.08-.17.17-.35.25-.52.3.03.61.07.91.1,2,.78,3.42-.35,4.86-1.44l-.03.02c.52.03,1.08.19,1.36-.46l-.03.02c2.27-.22,4.44-.71,6.23-2.23l-.02.02c1.06.24,2.03-.2,2.95-.56,1.16-.45,1.43.06,1.51,1.02,0,0,.01,0,.01,0-5.7,2.02-11.42,4-17.09,6.1-.93.34-1.78.56-2.74.45Z"/>
      <path class="cls-4" d="m107.24,122.48c0,.37-.02.73-.03,1.1-.36-.31-.73-.63-1.09-.94.37-.05.75-.1,1.12-.16Z"/>
      <path class="cls-4" d="m109,125.76c.61,0,1.22,0,1.83,0-.61.51-1.22.74-1.83,0Z"/>
      <path class="cls-4" d="m110.84,125.85c.21-.58.51-.57.87-.13-.29.04-.58.08-.87.13Z"/>
      <path class="cls-6" d="m31.64,117.8c-.74.11-.54.98-1.04,1.28-.03-.44-.06-.88-.1-1.32.07-.45.15-.9.22-1.35,6.05-.76,11.43-3.56,17.03-5.66,1.58-.59,3.21-.84,4.45-2.45.83-1.07,2.87.34,4.36-.45.35-.18.59.85.62,1.46.13,2.43-1.33,3.94-3.03,5.32-.18,0-.35,0-.53,0,0,0,.03.02.03.02q.49-1.83-.46-1.8c-.86-.55-1.79-.32-2.71-.26-.99-.59-1.95-.32-2.93.04-3.81,1.39-7.63,2.79-11.46,4.13-1.44.5-2.86,1.13-4.45,1.03Z"/>
      <path class="cls-4" d="m205.22,37.12c-5.58,1.46-11.2,2.77-16.73,4.43-3.79,1.13-7.67,1.93-11.51,2.64-1.53.28-3.33,1.91-5.11.41,0,0,.09-.04.09-.04.37.05.68-.03.88-.38,0,0,0,0,0,0,1.04-.34,2.08-.66,3.16-.89,3.92-.81,7.85-1.59,11.69-2.68,4.05-1.15,7.9-3.05,12.24-3.09.34,0,.74-.17.99-.39,1.24-1.09,2.74-1.27,4.29-1.31,0,.44,0,.87-.01,1.31Z"/>
      <path class="cls-4" d="m148.05,50.4c.07.33-.91.86-.22.78,1.48-.19,3.15-.31,4.19-1.72l-.02.03c.5,0,1.08.22,1.36-.45h-.02c.6,0,1.2-.01,1.8-.03.12.72.23,1.31-.78,1.6-.67.19-1.69-.02-1.94,1.04-2.77.48-5.41,1.32-8.04,2.37-2.74,1.09-5.75,1.48-9.06,2.27.86-1.07,1.77-1.08,2.52-1.38,2.75-1.08,5.53-2.07,7.91-3.92.65-.51,1.46-.66,2.3-.61l.02.03Z"/>
      <path class="cls-5" d="m205.22,37.12c0-.44,0-.87.01-1.31.29-.02.57-.05.86-.07.91.22,1.82-.44,2.73-.02,1.37-.15,2.69-.38,3.53-1.68.47-.73,1.33-.74,2.06-.98-.1.42-.09.93-.33,1.24-.68.9-1.2,1.61.47,1.94,1.22.25.83.95.31,1.61-1.11,1.41-2.63,1.18-4.06.83-.89-.22-1.7-.77-2.55-1.18-.07-.28,1.33-.71-.01-.8-.99-.07-2.02.26-3.03.42Z"/>
      <path class="cls-6" d="m155.13,49.02c-.6.01-1.2.03-1.8.04.01-.15.03-.3.04-.45,0,0-.03.02-.03.02.37-.03.83.12.91-.47,0,0-.03.02-.03.02.58-.02,1.16-.04,1.74-.06,0,0,.02.03.02.03-.29.29-.57.58-.86.87Z"/>
      <path class="cls-9" d="m53.62,114.63c.18,0,.35,0,.53,0-.04.15-.09.3-.13.45-.13-.15-.26-.29-.39-.44Z"/>
      <path class="cls-9" d="m203.46,31.8c-7.63,2.85-15.42,5.23-23.19,7.68-.89.28-1.7.72-2.16-.78-.45-1.46-1.53-.4-2.35-.14-.24-.21-.48-.42-.72-.63.76-1.27,2.19-1.32,3.37-1.74,8.56-3.07,17.15-6.08,25.73-9.09.48-.17.99-.28,1.58,0-.4,1.74-2.59.76-3.27,2.29.84.06,1.65.12,2.46.17.27,1.32-1.51,1.17-1.44,2.26Zm-17.77,4.08c-1.62.37-3.33.55-4.54,1.89,1.64-.03,3.16-.37,4.54-1.25,1.58-.34,3.12-.78,4.48-1.68,4.21-.51,8.07-2.02,11.82-3.86-.17-.57-.53-.62-.76-.54-3.74,1.2-7.58,2.08-11.09,3.94-1.58.21-3.12.54-4.44,1.5Z"/>
      <path class="cls-3" d="m206.09,35.74c-.29.02-.57.05-.86.07-1.55.04-3.05.21-4.29,1.31-.25.22-.66.39-.99.39-4.34.03-8.19,1.93-12.24,3.09-3.84,1.09-7.77,1.88-11.69,2.68-1.09.22-2.12.55-3.16.89-.15-.3-.29-.6-.43-.91,4.82-1.48,9.63-2.97,14.45-4.45,3-.92,6-1.83,9-2.75.38.16.7.08.95-.24.94.03,1.73-.46,2.58-.76.9.27,1.61-.11,2.28-.65.27-.08.55-.16.82-.25,1.22.03,2.51.31,3.4-.9.3.06.6.12.9.18.03.18.06.36.09.53-.26.58-.53,1.16-.79,1.75Z"/>
      <path class="cls-10" d="m164.46,44.68c.3.14.6.28.9.42-1.79.74-3.57,1.52-5.65.99,1.58-.47,3.16-.94,4.75-1.41Z"/>
      <path class="cls-9" d="m175.64,38.61c-.15,1.8-.75,3.19-2.89,3.19.91-1.11,1.18-2.81,2.89-3.19Z"/>
      <path class="cls-9" d="m155.75,47.47c.51-.12,1.26-.78,1.47-.2.25.69-.69.41-1.1.57-.12-.12-.25-.24-.37-.36Z"/>
      <path class="cls-9" d="m155.97,48.13c-.58.02-1.16.04-1.74.06.32-.65,1.05-.4,1.52-.71.12.12.24.24.37.36-.06.09-.11.19-.15.29Z"/>
      <path class="cls-9" d="m153.37,48.61c-.01.15-.03.3-.04.45,0,0,.02-.01.02-.01-.44,0-.89.01-1.33.02h.01c.27-.66.82-.5,1.34-.45Z"/>
      <path class="cls-9" d="m152.02,49.46c-.34-.04-.67-.07-1.01-.11.23-.49.67-.26,1.03-.28,0,0-.01-.01-.01-.01-.03.14-.04.29-.02.44,0,0,.02-.03.02-.03Z"/>
      <path class="cls-4" d="m148.03,50.38c.17-.11.33-.21.5-.31,0,0,.08.1.13.16-.2.06-.4.12-.6.17,0,0-.02-.03-.02-.03Z"/>
      <path class="cls-4" d="m150.06,49.75c-.12.04-.23.09-.34.11-.03,0-.08-.09-.13-.14.11-.04.22-.1.34-.12.03,0,.08.09.13.14Z"/>
      <path class="cls-9" d="m154.25,48.17c-.09.59-.55.43-.91.47.08-.59.53-.47.91-.47Z"/>
      <path class="cls-3" d="m172.84,44.18c-.2.35-.5.44-.88.38.29-.13.58-.26.88-.38Z"/>
      <path class="cls-3" d="m197.78,8.77c.85.16,1.53-.33,2.23-.66,1.14-.53,1.49.09,1.66,1.04,0,0-.03.05-.03.05-.48-.21-.52.01-.4.4,0,0-.04.04-.04.04-.85-.27-.69.48-.88.88,0,0,.01-.01.01-.01-.52.12-.6.46-.46.91,0,0,.03-.04.03-.04-.43-.11-.47.17-.49.48,0,0,.03-.04.03-.04-.44.17-.62.47-.47.93,0,0,.04-.04.04-.04-.28-.25-.86.83-1.01-.27-.16-1.22-.4-2.43-.25-3.67Z"/>
      <path class="cls-6" d="m195.9,19.69c.35-.52.8-.92.72-1.73-.07-.72.14-1.7,1.38-1.32q.61,3.11-2.1,3.05Z"/>
      <path class="cls-9" d="m193.89,8.73c.7-.92,1.56-1.65,2.57-2.25.43.73.49,1.31-.09,1.84-.84.03-1.59.67-2.48.41Z"/>
      <path class="cls-6" d="m193.45,11.04c.22-.21.44-.38.7-.07,0,0-.04-.03-.04-.03-.12.17-.24.35-.35.52-.1-.14-.21-.28-.31-.42Z"/>
      <path class="cls-6" d="m194.16,10.97c0-.1,0-.2.01-.3.13.1.27.21.4.31,0,0,.03-.04.03-.04-.16,0-.32,0-.48,0l.04.03Z"/>
      <path class="cls-3" d="m214.46,32.71c-.1-1.44,1.1-1.61,2.01-1.94,7.75-2.88,15.61-5.46,23.51-7.9,2.02-.62,4-1.34,6.05-1.92,2.01-.57,3.44-.23,4.56,1.49-.9,1.59-2.08,2.55-4.06,2.81-1.58.21-3.07,1.14-4.64,1.69-3.55,1.24-7.25,1.68-10.88,2.49-4.28.96-8.38,2.66-12.82,3.04-1.24.11-2.49.09-3.73.24Z"/>
      <path class="cls-8" d="m50.48,112.59c.92-.06,1.85-.3,2.71.26-.04.59-.08,1.18-.12,1.77-.09.18-.17.37-.26.55-.33-.02-.69-.14-.94.2-.26,0-.52-.01-.78-.02-.29-.8-.6-1.58-1.42-2,.27-.26.54-.51.81-.77Z"/>
      <path class="cls-9" d="m53.07,114.62c.04-.59.08-1.18.12-1.77q.95-.03.46,1.8c-.19-.01-.39-.02-.58-.03Z"/>
      <path class="cls-9" d="m51.87,115.38c.26-.34.61-.22.94-.2-.16.3-.33.59-.49.89-.15-.23-.3-.46-.45-.69Z"/>
      <path class="cls-4" d="m206.09,35.74c.26-.58.53-1.17.79-1.75,1.67-.57,1.24,1.22,1.94,1.73-.91-.41-1.82.24-2.73.02Z"/>
      <path class="cls-8" d="m210.55,32.3c.19-1.34,1.22-1.35,2.22-1.38-.4,1.01-1.36,1.13-2.22,1.38Z"/>
      <path class="cls-8" d="m212.77,30.92c.21-1.28,1.16-.83,1.92-.82-.41.81-1.18.8-1.92.82Z"/>
      <path class="cls-8" d="m189.26,2.97c.68.1,1.36.19,2.25.32-.75.83-1.45,1.29-2.33.83-.51-.27-.02-.75.09-1.14,0,0,0,0,0,0Z"/>
      <path class="cls-8" d="m176.29,6.14c.24-.36.62-.43,1.01-.47-.07.39.09.93-.48,1.03-.14.02-.35-.36-.53-.56Z"/>
      <path class="cls-9" d="m190.42,17.89c.48-1.62,1.24-3.09,2.2-4.46l.45.37c-.74,1.51-1.49,3.03-2.24,4.54-.14-.15-.28-.3-.42-.45Z"/>
      <path class="cls-10" d="m194.12,10.94c.16,0,.32,0,.48,0,.08,1.01-.5,1.54-1.35,1.86.04-.17.09-.35.13-.52.13-.27.26-.54.39-.81.12-.17.24-.35.35-.52Z"/>
      <path class="cls-10" d="m196.36,15.36c-.14.48-.35.85-.93.46.19-.39.46-.63.93-.46Z"/>
      <path class="cls-9" d="m190.34,19.04s.02,0,.02.01c-.32-.4-.26-.78.06-1.15.14.15.28.3.42.45-.16.23-.33.46-.5.69Z"/>
      <path class="cls-10" d="m195.47,15.8c.16.6-.19.59-.6.49.07-.33.29-.47.6-.49Z"/>
      <path class="cls-9" d="m192.62,13.43c.15-.17.25-.53.56-.28.29.23.03.45-.11.66-.15-.12-.3-.25-.45-.37Z"/>
      <path class="cls-9" d="m193.24,12.79c.04-.17.09-.35.13-.52-.04.17-.09.35-.13.52Z"/>
      <path class="cls-10" d="m205.89,33.28c-.89,1.21-2.18.93-3.4.9.97-.93,2.14-1.08,3.4-.9Z"/>
      <path class="cls-8" d="m240.21,17.1c-.88.73-1.76.74-2.63-.02.88-.58,1.76-.58,2.63.02Z"/>
      <path class="cls-10" d="m201.67,34.42c-.67.54-1.38.92-2.28.65.61-.73,1.3-1.2,2.28-.65Z"/>
      <path class="cls-8" d="m241.1,18.02c.01-.31.02-.61.04-.92.35-.36.91-.57,1.06-.05.23.79-.49.9-1.1.97Z"/>
      <path class="cls-10" d="m196.81,35.83c-.26.32-.57.41-.95.24.18-.64.46-.84.95-.24Z"/>
      <path class="cls-10" d="m224.26,9.63c-.68.91-1.61,1.07-2.66.89.62-1.09,1.65-.96,2.66-.89Z"/>
      <path class="cls-10" d="m221.62,10.5c-.12.52-.48.55-.91.46.17-.41.54-.44.91-.46Z"/>
      <path class="cls-10" d="m223.19,5.72s.09.09.14.14c-.05.04-.1.12-.15.11-.05,0-.09-.08-.14-.13.05-.04.1-.08.15-.12Z"/>
      <path class="cls-3" d="m209.68,10.03c.93-1.05,2.22-1.13,3.48-1.27-.05.15-.04.29.02.43,0,0,.02-.03.02-.03-.45.16-.79.38-.46.93,0,0,.02-.03.02-.03-.99.2-1.19.99-1.35,1.81,0,0,.03-.03.03-.03-.13-.08-.27-.09-.41-.02-.45-.6-.9-1.19-1.36-1.79Z"/>
      <path class="cls-10" d="m211.41,11.87c.16-.82.36-1.61,1.35-1.81-.02.25-.03.5-.05.75-.6.16-.46,1.2-1.3,1.07Z"/>
      <path class="cls-3" d="m213.2,11.38c.26.18.65.29.5.72-.02.07-.25.13-.35.11-.56-.13-.22-.51-.19-.8,0,0,.05-.03.05-.03Z"/>
      <path class="cls-10" d="m211.01,12.76c-.07.31.11.76-.42.81-.11.01-.23-.08-.34-.13.16-.3.32-.6.48-.9.09.07.19.15.28.22Z"/>
      <path class="cls-10" d="m211.03,11.82c.14-.07.28-.06.41.02.21.47,0,.75-.43.92-.09-.07-.19-.15-.28-.22.1-.24.2-.48.3-.72Z"/>
      <path class="cls-10" d="m212.74,10.08c-.33-.55.01-.76.46-.93.43.6.04.79-.46.93Z"/>
      <path class="cls-10" d="m213.17,9.19c-.06-.14-.07-.28-.02-.43.17,0,.34,0,.51,0,.1.44-.01.65-.49.43Z"/>
      <path class="cls-10" d="m213.65,8.77c.03-.28.12-.49.46-.45.08.39.03.64-.46.45Z"/>
      <path class="cls-3" d="m219.01,4.31c.73-1.8,1.5-1.28,2.28-.04-.74,1.08-1.53-.44-2.28.04Z"/>
      <path class="cls-12" d="m198.54,7.3c-.06.12-.12.23-.18.34-.1-.06-.29-.11-.29-.17,0-.11.1-.23.17-.34.1.06.2.11.31.17Z"/>
      <path class="cls-9" d="m202.98,14.5c.25.21.75.15.72.65,0,.05-.11.12-.17.12-.55-.02-.33-.54-.51-.81,0,0-.03.03-.03.03Z"/>
      <path class="cls-10" d="m203.05,16.34c.13.23.32.49.28.52-.18.18-.42.3-.63.44-.03-.2-.12-.41-.07-.58.04-.14.24-.23.42-.39Z"/>
      <path class="cls-9" d="m200.33,10.52c.19-.39.02-1.14.88-.88.27.86-.45.72-.88.88Z"/>
      <path class="cls-10" d="m199.88,11.42c-.14-.45-.06-.79.46-.91-.03.37.07.8-.46.91Z"/>
      <path class="cls-10" d="m199,12.75c-.15-.47.03-.76.47-.93.1.44,0,.78-.47.93Z"/>
      <path class="cls-9" d="m201.24,9.6c-.12-.39-.08-.61.4-.4.08.35-.03.51-.4.4Z"/>
      <path class="cls-10" d="m199.43,11.85c.02-.3.06-.59.49-.48-.02.3-.06.58-.49.48Z"/>
      <path class="cls-9" d="m49.67,113.36c.82.42,1.13,1.2,1.42,2-.45.28-.92.45-1.44.19-.09-.96-.35-1.47-1.51-1.02-.92.35-1.89.8-2.95.56,1.31-1.05,2.93-1.31,4.48-1.73Z"/>
      <path class="cls-7" d="m49.67,113.36c-1.55.42-3.17.68-4.48,1.73,0,0,.02-.02.02-.02-2.19.43-4.29,1.1-6.23,2.23,0,0,.03-.02.03-.02-.49.04-1.05-.11-1.36.46,0,0,.03-.02.03-.02-1.73.12-3.19,1.12-4.86,1.44-.3-.03-.61-.07-.91-.1-.1-.03-.19-.07-.29-.1,0-.39.02-.79.03-1.18,1.59.1,3.01-.53,4.45-1.03,3.83-1.34,7.65-2.74,11.46-4.13.98-.36,1.94-.64,2.93-.04-.27.26-.54.52-.81.77Z"/>
      <path class="cls-9" d="m38.98,117.3c1.94-1.13,4.04-1.8,6.23-2.23-1.8,1.53-3.97,2.01-6.23,2.23Z"/>
      <path class="cls-9" d="m32.82,119.17c1.67-.32,3.13-1.33,4.86-1.44-1.44,1.1-2.87,2.23-4.86,1.44Z"/>
      <path class="cls-9" d="m37.65,117.75c.31-.57.87-.42,1.36-.46-.29.65-.84.49-1.36.46Z"/>
      <path class="cls-6" d="m31.61,118.98c.1.03.19.07.29.1-.08.17-.17.35-.25.52-.01-.21-.02-.41-.04-.62Z"/>
      <path class="cls-6" d="m152,49.49c-.01-.15,0-.29.02-.44.44,0,.89-.01,1.33-.02-.28.68-.85.45-1.36.45Z"/>
      <path class="cls-3" d="m190.14,34.38c3.5-1.85,7.35-2.74,11.09-3.94.24-.08.59-.03.76.54-3.74,1.83-7.61,3.35-11.82,3.86-.01-.15-.02-.31-.03-.46Z"/>
      <path class="cls-3" d="m185.69,36.53c-1.37.87-2.9,1.22-4.54,1.25,1.21-1.34,2.92-1.52,4.54-1.89,0,.22,0,.43,0,.65Z"/>
      <path class="cls-6" d="m185.69,36.53c0-.22,0-.43,0-.65,1.33-.96,2.86-1.29,4.44-1.5.01.15.02.31.03.46-1.37.9-2.91,1.34-4.48,1.68Z"/>
    </g>
  </g>
</svg>